<!-- Generated by IcoMoon.io -->
<svg version="1.1" xmlns="http://www.w3.org/2000/svg" width="32" height="32" viewBox="0 0 32 32">
<title>arrow-narrow-right</title>
<path d="M23.394 8.071c-0.411 0.243-0.744 0.577-0.978 0.977l-0.007 0.013c-0.077 0.16-0.122 0.347-0.122 0.546 0 0.207 0.049 0.403 0.137 0.576l-0.003-0.007c0.099 0.206 0.711 0.87 2.091 2.259l1.95 1.966-12.561 0.002c-8.357 0.002-12.655 0.024-12.847 0.067-0.399 0.083-0.725 0.338-0.904 0.682l-0.003 0.007c-0.117 0.238-0.145 0.404-0.145 0.841 0 0.89 0.326 1.364 1.053 1.53 0.192 0.043 4.508 0.066 12.847 0.067l12.561 0.002-1.95 1.966c-1.379 1.389-1.992 2.052-2.091 2.259-0.273 0.574-0.137 1.124 0.416 1.678 0.553 0.551 1.105 0.689 1.678 0.416 0.214-0.101 1.154-0.991 3.525-3.341 1.105-1.101 2.231-2.208 3.364-3.309l0.092-0.089c0.256-0.227 0.505-0.806 0.505-1.178 0-0.369-0.241-0.929-0.502-1.167-1.235-1.208-2.362-2.319-3.485-3.435l0.026 0.025c-2.371-2.35-3.31-3.24-3.525-3.341-0.166-0.084-0.363-0.133-0.57-0.133-0.2 0-0.389 0.046-0.558 0.127l0.008-0.003z"></path>
</svg>
