<!-- Generated by IcoMoon.io -->
<svg version="1.1" xmlns="http://www.w3.org/2000/svg" width="32" height="32" viewBox="0 0 32 32">
<title>arrows-expand</title>
<path d="M1.089 0.159c-0.45 0.161-0.796 0.513-0.946 0.956l-0.003 0.011c-0.135 0.371-0.138 0.527-0.103 4.393l0.037 4.008 0.168 0.342c0.216 0.438 0.571 0.674 1.174 0.777 0.897 0.154 1.655-0.145 1.965-0.777 0.161-0.326 0.17-0.422 0.192-2.036l0.023-1.695 3.065 3.056c2.286 2.281 3.144 3.093 3.382 3.201 0.646 0.293 1.256 0.14 1.866-0.468 0.612-0.614 0.764-1.224 0.463-1.862-0.114-0.238-0.968-1.144-3.208-3.393l-3.054-3.068h1.564c1.126 0 1.656-0.027 1.89-0.098 0.77-0.232 1.078-0.713 1.078-1.676 0-0.988-0.36-1.509-1.169-1.697-0.195-0.044-1.821-0.082-4.171-0.092-3.669-0.018-3.868-0.012-4.214 0.119zM26.179 0.054l-3.689 0.037-0.342 0.168c-0.438 0.216-0.674 0.571-0.777 1.174-0.154 0.897 0.145 1.655 0.777 1.965 0.326 0.161 0.422 0.17 2.036 0.192l1.695 0.023-3.056 3.064c-3.244 3.251-3.345 3.373-3.345 4.019 0 0.433 0.19 0.821 0.605 1.236 0.608 0.608 1.229 0.759 1.869 0.454 0.238-0.112 1.151-0.975 3.387-3.201l3.064-3.049 0.021 1.695c0.021 1.616 0.030 1.71 0.192 2.036 0.216 0.438 0.571 0.674 1.174 0.777 0.897 0.154 1.655-0.145 1.965-0.777l0.168-0.342 0.037-4.008c0.037-3.87 0.034-4.020-0.103-4.393-0.090-0.233-0.212-0.434-0.364-0.609l0.002 0.003c-0.282-0.28-0.947-0.539-1.335-0.518-0.161 0.009-1.954 0.032-3.983 0.053zM10.043 19.64c-0.238 0.108-1.096 0.92-3.382 3.201l-3.064 3.056-0.023-1.695c-0.021-1.614-0.030-1.71-0.192-2.036-0.31-0.631-1.068-0.931-1.965-0.777-0.603 0.103-0.958 0.339-1.174 0.777l-0.168 0.342-0.037 4.008c-0.037 3.87-0.034 4.020 0.103 4.393 0.154 0.46 0.509 0.815 0.958 0.965l0.011 0.003c0.371 0.135 0.527 0.138 4.393 0.103l4.008-0.037 0.342-0.168c0.63-0.31 0.938-1.11 0.771-2.006-0.106-0.573-0.344-0.922-0.771-1.133-0.326-0.161-0.42-0.17-2.036-0.192l-1.695-0.021 3.049-3.064c2.226-2.236 3.089-3.15 3.201-3.387 0.303-0.637 0.144-1.27-0.472-1.887-0.585-0.583-1.213-0.734-1.855-0.443zM20.716 19.626c-0.365 0.167-0.94 0.741-1.107 1.107-0.078 0.178-0.124 0.386-0.124 0.605 0 0.231 0.051 0.45 0.142 0.646l-0.004-0.009c0.108 0.238 0.92 1.096 3.201 3.382l3.056 3.064-1.695 0.023c-1.614 0.021-1.71 0.030-2.036 0.192-0.438 0.216-0.674 0.571-0.777 1.174-0.154 0.897 0.145 1.655 0.777 1.965l0.342 0.168 4.008 0.037c3.87 0.037 4.020 0.034 4.393-0.103 0.46-0.154 0.815-0.509 0.965-0.958l0.003-0.011c0.137-0.372 0.14-0.523 0.103-4.393l-0.037-4.008-0.168-0.342c-0.31-0.631-1.068-0.931-1.965-0.777-0.603 0.103-0.958 0.339-1.174 0.777-0.161 0.326-0.17 0.422-0.192 2.036l-0.023 1.695-3.064-3.056c-2.286-2.281-3.144-3.093-3.382-3.201-0.187-0.087-0.406-0.138-0.637-0.138-0.218 0-0.426 0.046-0.615 0.128l0.010-0.004z"></path>
</svg>
