<!-- Generated by IcoMoon.io -->
<svg version="1.1" xmlns="http://www.w3.org/2000/svg" width="32" height="32" viewBox="0 0 32 32">
<title>arrow-sm-right-solid</title>
<path d="M17.807 2.81c-1.056 0.357-1.803 1.339-1.803 2.496 0 0.348 0.067 0.679 0.19 0.983l-0.006-0.018c0.176 0.478 0.424 0.75 3.442 3.781l3.253 3.269-20.894 0.048-0.51 0.248c-0.883 0.44-1.479 1.336-1.479 2.372 0 0.734 0.299 1.397 0.782 1.876l0 0c0.27 0.267 0.595 0.48 0.926 0.606l0.51 0.189h20.667l-3.253 3.269c-3.021 3.034-3.269 3.306-3.445 3.784-0.113 0.283-0.179 0.61-0.179 0.953 0 0.733 0.3 1.396 0.785 1.872l0 0c0.477 0.485 1.14 0.785 1.872 0.785 0.343 0 0.671-0.066 0.971-0.185l-0.018 0.006c0.488-0.176 0.819-0.491 6.188-5.847 6.204-6.188 6.116-6.089 6.186-7.168 0.005-0.056 0.008-0.122 0.008-0.188 0-0.319-0.064-0.623-0.179-0.9l0.006 0.016c-0.187-0.512-0.432-0.771-5.855-6.207-4.555-4.566-5.751-5.719-6.127-5.903-0.348-0.173-0.758-0.274-1.191-0.274-0.303 0-0.595 0.049-0.867 0.141l0.019-0.006z"></path>
</svg>
