<!-- Generated by IcoMoon.io -->
<svg version="1.1" xmlns="http://www.w3.org/2000/svg" width="32" height="32" viewBox="0 0 32 32">
<title>arrow-left</title>
<path d="M12.276 3.286c-0.213 0.102-1.765 1.608-5.918 5.739-1.892 1.89-3.798 3.779-5.712 5.661l-0.14 0.137c-0.257 0.227-0.507 0.806-0.507 1.178 0 0.366 0.249 0.953 0.5 1.178 0.121 0.109 2.756 2.717 5.854 5.798 4.258 4.233 5.707 5.635 5.927 5.739 0.575 0.272 1.125 0.134 1.678-0.417 0.551-0.553 0.689-1.103 0.417-1.678-0.104-0.221-1.22-1.378-4.49-4.656l-4.353-4.364 12.562-0.002c8.358-0.002 12.658-0.024 12.85-0.067 0.708-0.161 1.052-0.651 1.053-1.498 0-0.607-0.090-0.895-0.368-1.181-0.441-0.452 0.724-0.416-13.375-0.433l-12.722-0.018 4.353-4.362c3.269-3.278 4.385-4.436 4.489-4.656 0.272-0.575 0.134-1.125-0.417-1.678-0.553-0.551-1.113-0.691-1.683-0.417z"></path>
</svg>
