<!-- Generated by IcoMoon.io -->
<svg version="1.1" xmlns="http://www.w3.org/2000/svg" width="32" height="32" viewBox="0 0 32 32">
<title>arrow-narrow-right-solid</title>
<path d="M21.357 6.109c-0.792 0.268-1.352 1.004-1.352 1.871 0 0.261 0.051 0.509 0.142 0.737l-0.005-0.013c0.132 0.358 0.318 0.562 2.581 2.837l2.441 2.449-23.674 0.036-0.382 0.186c-0.662 0.33-1.109 1.002-1.109 1.779 0 0.55 0.224 1.048 0.586 1.407l0 0c0.202 0.2 0.446 0.36 0.694 0.454l0.382 0.142h23.502l-2.439 2.451c-2.265 2.275-2.451 2.479-2.583 2.837-0.085 0.212-0.134 0.458-0.134 0.715 0 0.55 0.225 1.047 0.588 1.404l0 0c0.357 0.363 0.855 0.589 1.404 0.589 0.257 0 0.503-0.049 0.728-0.139l-0.013 0.005c0.366-0.132 0.614-0.368 4.64-4.384 4.652-4.64 4.586-4.566 4.638-5.375 0.004-0.042 0.006-0.091 0.006-0.141 0-0.239-0.048-0.467-0.134-0.675l0.004 0.012c-0.14-0.384-0.324-0.578-4.39-4.654-3.416-3.424-4.312-4.288-4.594-4.426-0.261-0.13-0.568-0.205-0.893-0.205-0.227 0-0.446 0.037-0.65 0.105l0.014-0.004z"></path>
</svg>
