<!-- Generated by IcoMoon.io -->
<svg version="1.1" xmlns="http://www.w3.org/2000/svg" width="32" height="32" viewBox="0 0 32 32">
<title>arrow-narrow-left-solid</title>
<path d="M9.42 6.080c-0.192 0.067-0.358 0.144-0.513 0.237l0.012-0.007c-0.122 0.076-2.117 2.037-4.432 4.36-4.034 4.044-4.218 4.238-4.358 4.622-0.082 0.196-0.13 0.424-0.13 0.663 0 0.050 0.002 0.099 0.006 0.147l-0-0.006c0.052 0.808-0.014 0.734 4.638 5.375 4.026 4.016 4.274 4.252 4.64 4.384 0.212 0.085 0.458 0.134 0.715 0.134 0.55 0 1.047-0.225 1.404-0.588l0-0c0.363-0.357 0.589-0.855 0.589-1.404 0-0.257-0.049-0.503-0.139-0.728l0.005 0.013c-0.132-0.358-0.318-0.562-2.583-2.837l-2.439-2.451h23.502l0.382-0.142c0.248-0.094 0.492-0.254 0.694-0.454 0.362-0.359 0.586-0.857 0.586-1.407 0-0.777-0.447-1.449-1.097-1.773l-0.011-0.005-0.382-0.186-23.674-0.036 2.441-2.449c2.263-2.275 2.449-2.479 2.581-2.837 0.086-0.213 0.136-0.46 0.136-0.719 0-1.056-0.829-1.918-1.872-1.97l-0.005-0c-0.044-0.003-0.095-0.005-0.147-0.005-0.195 0-0.385 0.026-0.565 0.074l0.015-0.003z"></path>
</svg>
