<!-- Generated by IcoMoon.io -->
<svg version="1.1" xmlns="http://www.w3.org/2000/svg" width="32" height="32" viewBox="0 0 32 32">
<title>arrow-left-solid</title>
<path d="M13.422 2.080c-0.192 0.067-0.358 0.144-0.513 0.237l0.012-0.007c-0.122 0.076-3.018 2.939-6.435 6.361-5.927 5.939-6.217 6.241-6.353 6.609-0.085 0.212-0.134 0.457-0.134 0.714s0.049 0.503 0.138 0.728l-0.005-0.013c0.136 0.368 0.426 0.67 6.387 6.641 6.817 6.83 6.549 6.587 7.376 6.639 0.023 0.001 0.051 0.002 0.078 0.002 1.107 0 2.006-0.887 2.027-1.989l0-0.002c0-0.18-0.064-0.502-0.142-0.714-0.132-0.366-0.372-0.618-4.584-4.838l-4.442-4.452h23.504l0.382-0.142c0.248-0.094 0.492-0.254 0.694-0.454 0.362-0.359 0.586-0.857 0.586-1.407 0-0.777-0.447-1.449-1.097-1.773l-0.011-0.005-0.382-0.186-23.674-0.036 4.442-4.45c4.21-4.22 4.45-4.472 4.582-4.838 0.085-0.213 0.135-0.459 0.135-0.717 0-1.056-0.828-1.918-1.871-1.972l-0.005-0c-0.044-0.003-0.095-0.005-0.147-0.005-0.195 0-0.385 0.026-0.565 0.075l0.015-0.003z"></path>
</svg>
