<!-- Generated by IcoMoon.io -->
<svg version="1.1" xmlns="http://www.w3.org/2000/svg" width="32" height="32" viewBox="0 0 32 32">
<title>arrow-narrow-left</title>
<path d="M7.481 8.083c-0.205 0.099-1.213 1.055-3.52 3.341-1.108 1.104-2.234 2.212-3.367 3.312l-0.089 0.086c-0.256 0.227-0.505 0.806-0.505 1.178 0 0.364 0.249 0.953 0.5 1.178 0.12 0.109 1.675 1.638 3.456 3.398 2.369 2.345 3.315 3.24 3.529 3.341 0.574 0.273 1.125 0.136 1.678-0.416 0.553-0.555 0.689-1.105 0.416-1.678-0.099-0.206-0.711-0.87-2.091-2.259l-1.95-1.966 12.561-0.002c8.357-0.002 12.655-0.024 12.847-0.067 0.708-0.161 1.052-0.651 1.053-1.498 0-0.607-0.090-0.895-0.368-1.181-0.441-0.452 0.724-0.416-13.373-0.433l-12.719-0.018 1.95-1.965c1.378-1.389 1.99-2.052 2.089-2.259 0.273-0.574 0.137-1.124-0.416-1.678-0.555-0.553-1.113-0.691-1.683-0.416z"></path>
</svg>
