<!-- Generated by IcoMoon.io -->
<svg version="1.1" xmlns="http://www.w3.org/2000/svg" width="32" height="32" viewBox="0 0 32 32">
<title>arrow-right</title>
<path d="M18.598 3.276c-0.411 0.243-0.744 0.577-0.978 0.977l-0.007 0.013c-0.077 0.16-0.122 0.348-0.122 0.547 0 0.206 0.049 0.402 0.135 0.574l-0.003-0.007c0.104 0.221 1.22 1.378 4.49 4.656l4.353 4.364-12.562 0.002c-8.358 0.002-12.658 0.024-12.85 0.067-0.399 0.083-0.725 0.338-0.904 0.682l-0.003 0.007c-0.117 0.238-0.145 0.404-0.145 0.841 0 0.89 0.326 1.364 1.053 1.53 0.192 0.043 4.509 0.066 12.85 0.067l12.562 0.002-4.353 4.364c-3.27 3.278-4.386 4.436-4.49 4.656-0.272 0.575-0.134 1.125 0.417 1.678 0.553 0.551 1.103 0.689 1.678 0.417 0.222-0.104 1.664-1.503 5.922-5.739 1.892-1.89 3.798-3.779 5.712-5.661l0.14-0.137c0.257-0.227 0.507-0.806 0.507-1.178 0-0.369-0.241-0.929-0.502-1.167-2.065-2.035-3.974-3.928-5.877-5.828l0.019 0.019c-4.257-4.238-5.699-5.635-5.921-5.739-0.166-0.083-0.362-0.132-0.569-0.132-0.2 0-0.39 0.046-0.56 0.127l0.008-0.003z"></path>
</svg>
