<!-- Generated by IcoMoon.io -->
<svg version="1.1" xmlns="http://www.w3.org/2000/svg" width="39" height="32" viewBox="0 0 39 32">
<title>burger-menu</title>
<path d="M36.963 4.571h-34.652c-1.275 0-2.31-1.022-2.31-2.286s1.035-2.286 2.31-2.286h34.652c1.275 0 2.31 1.022 2.31 2.286s-1.035 2.286-2.31 2.286zM36.963 32h-34.652c-1.275 0-2.31-1.022-2.31-2.286s1.035-2.286 2.31-2.286h34.652c1.275 0 2.31 1.022 2.31 2.286s-1.035 2.286-2.31 2.286zM36.963 18.286h-34.652c-1.275 0-2.31-1.022-2.31-2.286s1.035-2.286 2.31-2.286h34.652c1.275 0 2.31 1.022 2.31 2.286s-1.035 2.286-2.31 2.286z"></path>
</svg>
