<!-- Generated by IcoMoon.io -->
<svg version="1.1" xmlns="http://www.w3.org/2000/svg" width="32" height="32" viewBox="0 0 32 32">
<title>calendar</title>
<path d="M26.667 26.667h-5.333v-5.333h5.333v5.333zM18.667 13.333h-5.333v5.333h5.333v-5.333zM26.667 13.333h-5.333v5.333h5.333v-5.333zM10.667 21.333h-5.333v5.333h5.333v-5.333zM18.667 21.333h-5.333v5.333h5.333v-5.333zM10.667 13.333h-5.333v5.333h5.333v-5.333zM32 2.667v29.333h-32v-29.333h4v1.333c0 1.471 1.196 2.667 2.667 2.667s2.667-1.196 2.667-2.667v-1.333h13.333v1.333c0 1.471 1.196 2.667 2.667 2.667s2.667-1.196 2.667-2.667v-1.333h4zM29.333 10.667h-26.667v18.667h26.667v-18.667zM26.667 1.333c0-0.736-0.596-1.333-1.333-1.333s-1.333 0.597-1.333 1.333v2.667c0 0.736 0.596 1.333 1.333 1.333s1.333-0.597 1.333-1.333v-2.667zM8 4c0 0.736-0.596 1.333-1.333 1.333s-1.333-0.597-1.333-1.333v-2.667c0-0.736 0.596-1.333 1.333-1.333s1.333 0.597 1.333 1.333v2.667z"></path>
</svg>
