<!-- Generated by IcoMoon.io -->
<svg version="1.1" xmlns="http://www.w3.org/2000/svg" width="32" height="32" viewBox="0 0 32 32">
<title>caret-left</title>
<path d="M22.196 0.15c-0.432 0.186-14.719 14.442-14.997 14.963-0.127 0.26-0.201 0.566-0.201 0.889s0.074 0.629 0.207 0.902l-0.005-0.012c0.295 0.553 14.57 14.781 15.016 14.967 0.389 0.161 1.158 0.189 1.507 0.056 0.374-0.142 0.923-0.679 1.105-1.081 0.163-0.358 0.17-1.051 0.172-14.811 0.003-15.825 0.040-14.788-0.54-15.398-0.378-0.386-0.905-0.626-1.487-0.626-0.28 0-0.546 0.055-0.79 0.155l0.014-0.005z"></path>
</svg>
