<!-- Generated by IcoMoon.io -->
<svg version="1.1" xmlns="http://www.w3.org/2000/svg" width="32" height="32" viewBox="0 0 32 32">
<title>caret-right</title>
<path d="M8.163 0.145c-0.432 0.229-0.774 0.578-0.987 1.003l-0.006 0.013c-0.165 0.358-0.172 0.956-0.172 14.835 0 13.788 0.007 14.479 0.17 14.837 0.183 0.402 0.732 0.939 1.106 1.081 0.349 0.133 1.118 0.105 1.508-0.056 0.446-0.186 14.727-14.419 15.021-14.972 0.125-0.244 0.199-0.532 0.199-0.837 0-0.018-0-0.037-0.001-0.055l0 0.003c0-0.016 0.001-0.034 0.001-0.053 0-0.305-0.074-0.594-0.204-0.848l0.005 0.010c-0.295-0.553-14.576-14.786-15.021-14.972-0.446-0.184-1.257-0.179-1.618 0.011z"></path>
</svg>
