<!-- Generated by IcoMoon.io -->
<svg version="1.1" xmlns="http://www.w3.org/2000/svg" width="32" height="32" viewBox="0 0 32 32">
<title>chat</title>
<path d="M27.225 3.936c-1.731-1.454-3.744-2.534-5.913-3.171-1.329-0.405-2.7-0.651-4.087-0.733-0.355-0.033-0.716-0.033-1.075-0.033s-0.64 0-0.96 0.029c-0.889 0.046-1.774 0.142-2.653 0.287-1.861 0.337-3.652 0.988-5.296 1.924-2.211 1.199-4.073 2.953-5.401 5.087-1.736 2.729-2.273 6.051-1.485 9.188 0.639 2.606 2.081 4.944 4.125 6.681 2.556 2.24 5.734 3.646 9.11 4.033 0.404 0.023 0.78 0.21 1.039 0.519 0.26 0.31 0.38 0.712 0.331 1.114 0 0.525-0.119 1.046-0.182 1.567-0.099 0.387-0.12 0.791-0.064 1.188 0.016 0.206 0.182 0.37 0.39 0.384h0.071c0.329-0.043 0.651-0.126 0.96-0.25 1.364-0.633 2.659-1.406 3.861-2.31 2.674-1.889 5.197-3.98 7.549-6.256 0.82-0.751 1.561-1.584 2.215-2.482 1.439-2.038 2.221-4.466 2.24-6.96 0.001-1.107-0.15-2.209-0.451-3.274-0.749-2.564-2.255-4.841-4.324-6.531l0-0zM28.162 19.616h0.001c-0.579 0.794-1.234 1.529-1.956 2.195-2.285 2.201-4.734 4.226-7.327 6.054-0.675 0.476-1.344 0.941-2.025 1.348v-0.291c0.124-1.821-1.22-3.412-3.038-3.594-2.988-0.337-5.799-1.584-8.058-3.567-1.755-1.475-2.994-3.47-3.539-5.696-0.675-2.644-0.219-5.45 1.26-7.744 1.156-1.859 2.778-3.381 4.704-4.419 1.459-0.825 3.046-1.397 4.695-1.694 0.807-0.132 1.621-0.22 2.439-0.262 0.265-0.025 0.544-0.025 0.831-0.025s0.64 0 0.96 0.029c1.234 0.069 2.455 0.284 3.639 0.64 1.92 0.56 3.701 1.514 5.233 2.8 1.782 1.447 3.081 3.405 3.721 5.61 0.251 0.891 0.378 1.813 0.378 2.739-0.029 2.106-0.699 4.154-1.92 5.869l0.002 0.010zM16.243 12.48c-0.745-0.001-1.416 0.446-1.703 1.134-0.285 0.688-0.129 1.479 0.398 2.006 0.525 0.526 1.317 0.685 2.005 0.4 0.689-0.284 1.136-0.955 1.136-1.7-0.008-1.011-0.825-1.83-1.836-1.84zM9.546 12.48c-0.744-0.010-1.421 0.429-1.716 1.113-0.294 0.684-0.146 1.477 0.373 2.011 0.52 0.534 1.31 0.701 2.001 0.425s1.147-0.943 1.158-1.686c0.008-0.488-0.18-0.959-0.52-1.309-0.341-0.349-0.806-0.549-1.295-0.554v-0zM22.665 12.48c-0.746-0.010-1.425 0.431-1.718 1.117-0.293 0.688-0.141 1.482 0.383 2.014 0.524 0.533 1.317 0.694 2.008 0.411 0.691-0.284 1.143-0.956 1.143-1.703 0.004-1.008-0.806-1.83-1.815-1.84l0-0z"></path>
</svg>
