<!-- Generated by IcoMoon.io -->
<svg version="1.1" xmlns="http://www.w3.org/2000/svg" width="32" height="32" viewBox="0 0 32 32">
<title>check</title>
<path d="M29.216 4.152c-0.269 0.129-2.731 2.54-9.771 9.572l-9.414 9.399-3.443-3.427c-2.518-2.504-3.543-3.473-3.81-3.599-0.715-0.34-1.401-0.169-2.090 0.517-0.687 0.689-0.858 1.373-0.519 2.090 0.245 0.523 8.626 8.905 9.15 9.15 0.208 0.103 0.453 0.163 0.713 0.163 0.258 0 0.501-0.059 0.718-0.165l-0.010 0.004c0.529-0.249 20.845-20.564 21.094-21.094 0.336-0.719 0.165-1.401-0.521-2.090-0.689-0.687-1.383-0.86-2.096-0.519z"></path>
</svg>
