<!-- Generated by IcoMoon.io -->
<svg version="1.1" xmlns="http://www.w3.org/2000/svg" width="32" height="32" viewBox="0 0 32 32">
<title>check-circle</title>
<path d="M14.942 0.016c-1.633 0.164-2.658 0.369-3.944 0.793-3.743 1.236-6.771 3.673-8.798 7.077-1.061 1.786-1.808 3.976-2.111 6.199-0.107 0.786-0.107 3.062 0 3.847 0.612 4.487 2.833 8.291 6.387 10.947 2.14 1.6 4.779 2.655 7.6 3.039 0.786 0.107 3.062 0.107 3.847 0 5.067-0.693 9.327-3.483 11.877-7.788 1.063-1.794 1.807-3.979 2.11-6.199 0.107-0.785 0.107-3.062 0-3.847-0.693-5.067-3.483-9.327-7.788-11.877-1.749-1.036-3.852-1.767-5.975-2.074-0.632-0.091-2.708-0.168-3.206-0.119zM18.084 3.34c1.349 0.226 2.558 0.633 3.672 1.2l-0.072-0.033c1.266 0.614 2.369 1.419 3.447 2.512 1.908 1.938 3.038 4.139 3.54 6.906 0.167 0.911 0.167 3.257 0 4.168-0.338 1.868-0.968 3.474-1.935 4.942-1.722 2.613-4.48 4.615-7.404 5.372-1.27 0.329-1.795 0.39-3.331 0.39-1.533 0-2.062-0.061-3.323-0.388-2.946-0.761-5.633-2.709-7.409-5.369-0.951-1.422-1.598-3.076-1.938-4.947-0.167-0.911-0.167-3.257 0-4.168 0.372-2.044 1.090-3.777 2.22-5.354 2.074-2.888 5.257-4.866 8.913-5.313l0.062-0.006c0.713-0.088 2.874-0.034 3.559 0.088zM20.232 11.275c-0.205 0.099-1.090 0.936-3.060 2.897l-2.772 2.757-1.172-1.153c-0.757-0.744-1.276-1.202-1.465-1.294-0.574-0.277-1.127-0.141-1.683 0.415-0.553 0.555-0.691 1.106-0.418 1.683 0.196 0.414 3.749 3.968 4.163 4.163 0.167 0.083 0.364 0.131 0.572 0.131s0.405-0.048 0.58-0.135l-0.008 0.003c0.422-0.197 7.172-6.948 7.369-7.369 0.273-0.577 0.135-1.129-0.418-1.683-0.556-0.555-1.116-0.693-1.688-0.417z"></path>
</svg>
