<!-- Generated by IcoMoon.io -->
<svg version="1.1" xmlns="http://www.w3.org/2000/svg" width="32" height="32" viewBox="0 0 32 32">
<title>check-circle-solid</title>
<path d="M14.866 0.018l-0.853 0.1c-3.84 0.447-7.698 2.514-10.148 5.435-2.059 2.454-3.251 5.066-3.732 8.183-0.166 1.072-0.166 3.468 0 4.539 1.102 7.128 6.472 12.498 13.6 13.6 1.072 0.166 3.468 0.166 4.539 0 3.13-0.483 5.893-1.79 8.137-3.69l-0.024 0.020c2.532-2.135 4.395-5.164 5.198-8.462 0.321-1.318 0.409-2.115 0.409-3.738 0-1.108-0.032-1.705-0.12-2.27-0.779-5.046-3.7-9.279-8.093-11.729-1.59-0.902-3.446-1.555-5.419-1.848l-0.088-0.011c-0.667-0.102-2.911-0.186-3.405-0.13zM22.909 10.224c0.697 0.341 1.070 0.958 1.072 1.775 0.002 0.901 0.156 0.719-4.621 5.485-4.030 4.020-4.279 4.257-4.645 4.389-0.212 0.086-0.458 0.135-0.715 0.135s-0.503-0.050-0.728-0.14l0.013 0.005c-0.357-0.13-0.559-0.313-2.642-2.388-2.576-2.56-2.62-2.62-2.618-3.48 0.004-1.148 0.811-1.969 1.935-1.969 0.843 0 0.954 0.072 2.59 1.693l1.452 1.44 3.422-3.412c1.881-1.877 3.496-3.452 3.588-3.5 0.605-0.31 1.306-0.322 1.899-0.034z"></path>
</svg>
