<!-- Generated by IcoMoon.io -->
<svg version="1.1" xmlns="http://www.w3.org/2000/svg" width="32" height="32" viewBox="0 0 32 32">
<title>chevron-left-solid</title>
<path d="M21.483 0.114c-0.308 0.107-0.573 0.231-0.821 0.38l0.020-0.011c-0.195 0.122-3.39 3.262-7.098 6.983-6.46 6.476-6.755 6.787-6.98 7.403-0.131 0.314-0.208 0.679-0.208 1.062 0 0.080 0.003 0.158 0.010 0.236l-0.001-0.010c0.083 1.295-0.022 1.176 7.428 8.608 6.448 6.432 6.845 6.81 7.431 7.021 0.34 0.136 0.733 0.215 1.145 0.215 0.88 0 1.676-0.361 2.248-0.942l0-0c0.582-0.572 0.943-1.368 0.943-2.249 0-0.412-0.079-0.806-0.223-1.166l0.008 0.021c-0.212-0.583-0.551-0.945-5.739-6.146l-5.512-5.528 5.512-5.528c5.188-5.201 5.528-5.563 5.739-6.146 0.137-0.341 0.217-0.737 0.217-1.151 0-1.691-1.328-3.071-2.998-3.156l-0.008-0c-0.070-0.005-0.152-0.008-0.235-0.008-0.313 0-0.616 0.042-0.904 0.119l0.024-0.006z"></path>
</svg>
