<!-- Generated by IcoMoon.io -->
<svg version="1.1" xmlns="http://www.w3.org/2000/svg" width="32" height="32" viewBox="0 0 32 32">
<title>chevron-right-circle</title>
<path d="M15.007 0.014c-1.161 0.114-1.505 0.16-2.199 0.299-6.128 1.224-11.076 6.049-12.431 12.121-0.303 1.355-0.369 1.984-0.373 3.524-0.004 1.518 0.046 2.043 0.317 3.348 1.141 5.497 5.229 10.092 10.571 11.877 1.693 0.567 3.279 0.82 5.109 0.817 2.525-0.004 4.697-0.502 6.966-1.596 4.063-1.96 7.050-5.478 8.382-9.874 0.728-2.407 0.847-5.167 0.332-7.721-1.091-5.22-4.604-9.438-9.283-11.485l-0.103-0.040c-1.424-0.61-2.729-0.963-4.33-1.169-0.619-0.080-2.511-0.143-2.958-0.1zM18.174 1.219c0.896 0.135 2.177 0.455 2.914 0.726 0.699 0.257 2.235 1.014 2.847 1.401 1.341 0.875 2.495 1.888 3.489 3.043l0.018 0.021c1.304 1.552 2.433 3.687 2.942 5.567 0.335 1.155 0.527 2.482 0.527 3.853 0 0.045-0 0.089-0.001 0.134l0-0.007c0.001 1.745-0.217 3.149-0.733 4.707-1.576 4.762-5.312 8.338-10.167 9.732-1.309 0.375-2.535 0.539-4.035 0.536-2.473-0.004-4.611-0.518-6.801-1.636-1.41-0.72-2.504-1.526-3.718-2.739-2.398-2.397-3.775-5.157-4.28-8.582-0.119-0.805-0.134-3.012-0.026-3.792 0.578-4.172 2.606-7.658 5.901-10.142 2.273-1.712 4.777-2.654 7.849-2.951 0.588-0.058 2.562 0.021 3.276 0.129zM13.008 7.671c-0.202 0.123-0.274 0.363-0.169 0.56 0.038 0.074 1.488 1.593 3.22 3.379 1.732 1.785 3.372 3.479 3.645 3.765l0.495 0.518-3.645 3.752c-2.005 2.063-3.677 3.81-3.715 3.882-0.191 0.351 0.215 0.778 0.599 0.63 0.068-0.025 4.429-4.492 7.126-7.297 0.8-0.832 0.854-0.926 0.694-1.202-0.095-0.163-7.533-7.825-7.736-7.969-0.209-0.147-0.294-0.15-0.513-0.017z"></path>
</svg>
