<!-- Generated by IcoMoon.io -->
<svg version="1.1" xmlns="http://www.w3.org/2000/svg" width="32" height="32" viewBox="0 0 32 32">
<title>chevron-left</title>
<path d="M22.247 0.169c-0.525 0.251-14.874 14.603-15.115 15.121-0.103 0.208-0.163 0.452-0.163 0.711s0.060 0.503 0.167 0.72l-0.004-0.010c0.245 0.527 14.593 14.876 15.121 15.121 0.719 0.338 1.401 0.167 2.090-0.519 0.687-0.689 0.858-1.373 0.519-2.090-0.129-0.277-1.732-1.927-6.586-6.793l-6.415-6.429 6.415-6.429c4.854-4.866 6.457-6.516 6.586-6.793 0.338-0.717 0.167-1.401-0.519-2.090-0.689-0.687-1.383-0.86-2.096-0.519z"></path>
</svg>
