<!-- Generated by IcoMoon.io -->
<svg version="1.1" xmlns="http://www.w3.org/2000/svg" width="32" height="32" viewBox="0 0 32 32">
<title>chevron-down</title>
<path d="M1.379 7.126c-0.512 0.302-0.926 0.719-1.218 1.216l-0.009 0.016c-0.096 0.2-0.152 0.434-0.152 0.681 0 0.257 0.061 0.5 0.168 0.715l-0.004-0.009c0.245 0.528 14.596 14.878 15.123 15.123 0.208 0.103 0.452 0.163 0.711 0.163s0.503-0.060 0.72-0.167l-0.010 0.004c0.528-0.245 14.878-14.596 15.123-15.123 0.338-0.719 0.167-1.401-0.52-2.090-0.689-0.687-1.374-0.858-2.090-0.52-0.277 0.129-1.927 1.732-6.794 6.587l-6.43 6.416-6.43-6.416c-4.867-4.855-6.517-6.458-6.794-6.587-0.207-0.103-0.45-0.164-0.708-0.164-0.25 0-0.486 0.057-0.697 0.158l0.010-0.004z"></path>
</svg>
