<!-- Generated by IcoMoon.io -->
<svg version="1.1" xmlns="http://www.w3.org/2000/svg" width="32" height="32" viewBox="0 0 32 32">
<title>chevron-right-solid</title>
<path d="M8.561 0.162c-1.268 0.43-2.165 1.61-2.165 2.999 0 0.417 0.081 0.814 0.227 1.179l-0.008-0.021c0.211 0.583 0.551 0.945 5.739 6.146l5.511 5.527-5.511 5.527c-5.188 5.201-5.527 5.563-5.739 6.146-0.136 0.339-0.215 0.733-0.215 1.145 0 0.88 0.361 1.676 0.942 2.248l0 0c0.572 0.582 1.368 0.943 2.248 0.943 0.412 0 0.805-0.079 1.166-0.223l-0.021 0.008c0.586-0.211 0.984-0.59 7.431-7.021 7.45-7.431 7.344-7.312 7.427-8.607 0.006-0.068 0.009-0.146 0.009-0.226 0-0.383-0.076-0.748-0.215-1.081l0.007 0.019c-0.224-0.615-0.519-0.926-7.030-7.453-5.47-5.482-6.905-6.867-7.357-7.088-0.418-0.207-0.91-0.329-1.43-0.329-0.364 0-0.714 0.059-1.041 0.169l0.023-0.007z"></path>
</svg>
