<!-- Generated by IcoMoon.io -->
<svg version="1.1" xmlns="http://www.w3.org/2000/svg" width="32" height="32" viewBox="0 0 32 32">
<title>chevron-right</title>
<path d="M8.351 0.154c-0.512 0.302-0.926 0.719-1.218 1.216l-0.009 0.016c-0.096 0.2-0.152 0.434-0.152 0.681 0 0.257 0.061 0.5 0.168 0.715l-0.004-0.009c0.129 0.277 1.732 1.927 6.587 6.794l6.416 6.43-6.416 6.43c-4.855 4.867-6.458 6.518-6.587 6.794-0.338 0.717-0.167 1.401 0.52 2.090 0.689 0.687 1.372 0.858 2.090 0.52 0.528-0.245 14.878-14.596 15.123-15.123 0.103-0.208 0.163-0.452 0.163-0.711s-0.060-0.503-0.167-0.72l0.004 0.010c-0.245-0.528-14.596-14.878-15.123-15.123-0.207-0.103-0.45-0.164-0.708-0.164-0.25 0-0.486 0.057-0.697 0.158l0.010-0.004z"></path>
</svg>
