<!-- Generated by IcoMoon.io -->
<svg version="1.1" xmlns="http://www.w3.org/2000/svg" width="32" height="32" viewBox="0 0 32 32">
<title>clic</title>
<path d="M6.583 31.764c0.342 0.002 0.669-0.134 0.91-0.376l4.152-4.152 3.732 3.703c0.318 0.315 0.774 0.443 1.208 0.34 0.434-0.105 0.783-0.425 0.924-0.848l7.156-21.583c0.154-0.463 0.031-0.975-0.315-1.319-0.349-0.344-0.861-0.463-1.324-0.304l-21.467 7.328c-0.42 0.143-0.738 0.494-0.839 0.928s0.031 0.89 0.347 1.203l3.692 3.678-4.146 4.146c-0.241 0.241-0.378 0.568-0.378 0.91s0.136 0.669 0.378 0.91l5.060 5.060c0.242 0.241 0.568 0.378 0.91 0.376l0-0zM11.644 24.13c-0.342-0.002-0.671 0.134-0.912 0.376l-4.148 4.15-3.238-3.238 4.148-4.148c0.242-0.241 0.378-0.57 0.378-0.912s-0.136-0.669-0.378-0.91l-3.142-3.126 17.050-5.821-5.684 17.144-3.166-3.144c-0.242-0.239-0.568-0.373-0.908-0.371l0 0zM23.83 15.351c2.358-0.327 4.325-1.961 5.075-4.219 0.753-2.257 0.156-4.748-1.533-6.421-1.692-1.673-4.187-2.243-6.437-1.466-2.248 0.775-3.863 2.758-4.163 5.119l-2.823 0.965v-0.171c0-4.977 4.048-9.024 9.024-9.024s9.027 4.048 9.027 9.024c0 4.977-4.050 9.027-9.027 9.027h-0.082l0.939-2.835z"></path>
</svg>
