<!-- Generated by IcoMoon.io -->
<svg version="1.1" xmlns="http://www.w3.org/2000/svg" width="32" height="32" viewBox="0 0 32 32">
<title>cloud-download</title>
<path d="M13.648 0.048c-1.134 0.139-2.166 0.455-3.109 0.923l0.056-0.025c-1.402 0.703-2.804 2.041-3.605 3.441-0.723 1.264-1.156 2.953-1.156 4.508v0.415l-0.465 0.228c-0.906 0.447-1.894 1.319-2.573 2.27-0.16 0.224-0.43 0.697-0.603 1.052-1.044 2.153-0.911 4.776 0.349 6.852 1.212 1.996 3.219 3.239 5.597 3.467 0.806 0.077 1.191 0.023 1.541-0.215 0.536-0.363 0.67-1.496 0.251-2.128-0.218-0.33-0.564-0.465-1.329-0.519-0.831-0.058-1.111-0.128-1.752-0.436-1.467-0.701-2.462-2.173-2.462-3.877 0-0.096 0.003-0.19 0.009-0.284l-0.001 0.013c0.051-0.985 0.333-1.721 0.96-2.512 0.581-0.732 1.255-1.168 2.307-1.492 0.699-0.216 0.965-0.386 1.127-0.722 0.148-0.307 0.155-0.641 0.029-1.349-0.183-1.021-0.041-2.225 0.382-3.239 0.54-1.3 1.766-2.526 3.066-3.067 0.848-0.354 1.227-0.426 2.281-0.429 0.831-0.001 1.024 0.016 1.453 0.134 2.051 0.564 3.601 2.105 4.156 4.131 0.2 0.731 0.295 0.943 0.514 1.153 0.267 0.259 0.447 0.308 1.315 0.362 1.64 0.102 2.847 0.626 3.926 1.705 0.73 0.722 1.269 1.634 1.539 2.655l0.009 0.041c0.186 0.677 0.183 2.105-0.004 2.828-0.51 1.968-2.021 3.553-3.931 4.124l-0.813 0.244c-0.66 0.199-0.938 0.62-0.883 1.336 0.062 0.832 0.417 1.304 1.066 1.421 0.304 0.054 0.411 0.042 1.008-0.11 1.678-0.431 3.004-1.203 4.191-2.44 1.493-1.557 2.412-3.675 2.412-6.008 0-1.975-0.659-3.797-1.77-5.256l0.016 0.021c-0.722-0.96-1.942-1.987-2.987-2.51-0.811-0.399-1.753-0.703-2.742-0.865l-0.059-0.008c-0.17-0.028-0.219-0.065-0.251-0.192-0.076-0.304-0.604-1.332-0.966-1.877-0.5-0.752-1.583-1.829-2.352-2.337-1.358-0.925-3.034-1.477-4.84-1.477-0.32 0-0.636 0.017-0.947 0.051l0.039-0.003zM15.475 11.681c-0.376 0.106-0.606 0.289-0.763 0.607l-0.135 0.276-0.032 14.399-1.069-1.056c-1.136-1.121-1.367-1.283-1.833-1.283-0.354 0-0.673 0.155-1.012 0.495-0.492 0.492-0.619 1.002-0.379 1.533 0.086 0.187 0.715 0.863 2.31 2.477 1.204 1.22 2.27 2.308 2.369 2.417 0.205 0.228 0.739 0.455 1.071 0.455 0.317 0 0.866-0.227 1.050-0.433 0.087-0.097 1.149-1.184 2.362-2.414 1.573-1.596 2.24-2.313 2.33-2.503 0.248-0.521 0.119-1.040-0.386-1.546-0.327-0.325-0.648-0.481-0.998-0.481-0.466 0-0.697 0.161-1.835 1.284l-1.071 1.058-0.001-7.055c-0.001-4.603-0.022-7.147-0.061-7.317-0.138-0.607-0.559-0.93-1.265-0.966-0.037-0.002-0.081-0.003-0.124-0.003-0.187 0-0.368 0.021-0.543 0.060l0.016-0.003z"></path>
</svg>
