<!-- Generated by IcoMoon.io -->
<svg version="1.1" xmlns="http://www.w3.org/2000/svg" width="32" height="32" viewBox="0 0 32 32">
<title>cloud-upload-solid</title>
<path d="M13.544 0.026c-0.916 0.1-1.753 0.351-2.516 0.728l0.044-0.020c-2.365 1.191-3.96 3.599-3.96 6.38 0 0.375 0.029 0.743 0.085 1.102l-0.005-0.040c0.046 0.312 0.101 0.609 0.123 0.66 0.030 0.078-0.023 0.103-0.294 0.137-1.182 0.148-2.52 0.838-3.446 1.776-0.779 0.78-1.351 1.767-1.628 2.871l-0.009 0.043c-0.194 0.746-0.199 2.129-0.011 2.878 0.589 2.332 2.268 4.019 4.615 4.644 0.456 0.121 0.627 0.126 4.078 0.148l3.603 0.020 0.016 4.671c0.018 4.635 0.018 4.671 0.144 4.945 0.164 0.354 0.552 0.74 0.902 0.899 0.404 0.183 1.066 0.176 1.458-0.014 0.378-0.191 0.678-0.491 0.865-0.858l0.005-0.011 0.142-0.292 0.018-4.667 0.016-4.669 2.802-0.025c2.579-0.023 2.841-0.036 3.305-0.148 1.71-0.416 2.976-1.136 4.135-2.348 0.774-0.786 1.376-1.744 1.743-2.811l0.016-0.052c0.347-1 0.422-1.467 0.422-2.634s-0.073-1.63-0.424-2.638c-0.434-1.246-1.136-2.304-2.042-3.146l-0.005-0.004c-0.818-0.795-1.814-1.411-2.921-1.785l-0.055-0.016c-0.968-0.317-1.394-0.381-2.563-0.386l-1.073-0.004-0.109-0.376c-0.16-0.561-0.692-1.6-1.093-2.129-1.106-1.46-2.733-2.475-4.6-2.768l-0.040-0.005c-0.335-0.051-0.721-0.081-1.114-0.081-0.221 0-0.441 0.009-0.657 0.028l0.028-0.002zM16.793 9.087c0.247 0.121 0.899 0.742 3.195 3.047 3.213 3.223 3.108 3.092 3.108 3.903 0 1.233-1.209 2.058-2.385 1.623-0.308-0.114-0.477-0.26-1.634-1.406l-1.29-1.28v6.372h-3.56v-6.372l-1.29 1.28c-1.157 1.146-1.326 1.292-1.634 1.406-0.189 0.075-0.408 0.119-0.637 0.119-0.691 0-1.29-0.398-1.578-0.977l-0.005-0.010c-0.106-0.193-0.168-0.424-0.168-0.669 0-0.030 0.001-0.060 0.003-0.090l-0 0.004c0-0.812-0.101-0.684 3.078-3.875 1.57-1.577 2.944-2.921 3.053-2.989 0.518-0.324 1.196-0.358 1.746-0.087z"></path>
</svg>
