<!-- Generated by IcoMoon.io -->
<svg version="1.1" xmlns="http://www.w3.org/2000/svg" width="32" height="32" viewBox="0 0 32 32">
<title>control-panel</title>
<path d="M16 12c0.736 0 1.333 0.599 1.333 1.333s-0.597 1.333-1.333 1.333-1.333-0.599-1.333-1.333 0.597-1.333 1.333-1.333zM16 9.333c-2.209 0-4 1.791-4 4s1.791 4 4 4 4-1.791 4-4-1.791-4-4-4zM4 14.667c-2.209 0-4 1.791-4 4s1.791 4 4 4 4-1.791 4-4-1.791-4-4-4zM28 14.667c-2.209 0-4 1.791-4 4s1.791 4 4 4 4-1.791 4-4-1.791-4-4-4zM16 6.667c0.457 0 0.903 0.047 1.333 0.135v-4.135c0-0.736-0.596-1.333-1.333-1.333s-1.333 0.597-1.333 1.333v4.135c0.431-0.088 0.876-0.135 1.333-0.135zM28 12c0.457 0 0.903 0.047 1.333 0.135v-9.468c0-0.736-0.596-1.333-1.333-1.333s-1.333 0.597-1.333 1.333v9.468c0.431-0.088 0.876-0.135 1.333-0.135zM28 25.333c-0.457 0-0.903-0.047-1.333-0.135v4.135c0 0.736 0.596 1.333 1.333 1.333s1.333-0.597 1.333-1.333v-4.135c-0.431 0.088-0.876 0.135-1.333 0.135zM4 12c0.457 0 0.903 0.047 1.333 0.135v-9.468c0-0.736-0.596-1.333-1.333-1.333s-1.333 0.597-1.333 1.333v9.468c0.431-0.088 0.876-0.135 1.333-0.135zM16 20c-0.457 0-0.903-0.047-1.333-0.135v9.468c0 0.736 0.596 1.333 1.333 1.333s1.333-0.597 1.333-1.333v-9.468c-0.431 0.088-0.876 0.135-1.333 0.135zM4 25.333c-0.457 0-0.903-0.047-1.333-0.135v4.135c0 0.736 0.596 1.333 1.333 1.333s1.333-0.597 1.333-1.333v-4.135c-0.431 0.088-0.876 0.135-1.333 0.135z"></path>
</svg>
