<!-- Generated by IcoMoon.io -->
<svg version="1.1" xmlns="http://www.w3.org/2000/svg" width="32" height="32" viewBox="0 0 32 32">
<title>cookies</title>
<path d="M9.823 0.052c-3.986 0.416-7.486 3.226-8.836 7.092-0.452 1.297-0.626 2.323-0.627 3.705-0.002 2.442 0.711 4.613 2.164 6.59 0.457 0.623 1.562 1.733 2.171 2.183 0.84 0.62 1.913 1.19 2.809 1.493 0.172 0.058 0.328 0.137 0.347 0.175 0.019 0.039 0.096 0.395 0.171 0.791 1.004 5.311 5.471 9.342 10.946 9.876 1.347 0.131 3.206-0.044 4.429-0.418 3.273-1.002 5.704-2.903 7.327-5.729 0.284-0.495 0.916-1.86 0.916-1.979 0-0.024-0.126-0.044-0.28-0.044-0.476-0.002-1.014-0.102-1.301-0.241-0.345-0.168-0.732-0.579-0.917-0.973-0.124-0.264-0.143-0.374-0.143-0.813 0-0.465 0.014-0.538 0.173-0.86 0.241-0.489 0.54-0.745 1.272-1.089 0.335-0.157 0.609-0.296 0.609-0.308s-0.231-0.16-0.513-0.328c-0.901-0.538-1.212-0.98-1.216-1.734-0.002-0.523 0.138-0.829 0.674-1.469l0.403-0.48-0.612-0.088c-1.007-0.146-1.418-0.324-1.919-0.833-0.464-0.475-0.75-1.126-0.75-1.843 0-0.129 0.009-0.256 0.027-0.38l-0.002 0.014c0.079-0.543 0.292-0.984 0.701-1.458 0.178-0.206 0.324-0.39 0.324-0.411 0-0.063-0.849-0.703-1.459-1.099-1.489-0.968-3.164-1.588-4.99-1.845l-0.832-0.117-0.166-0.451c-0.983-2.606-2.868-4.683-5.265-5.891l-0.062-0.028c-1.326-0.668-2.89-1.059-4.545-1.059-0.363 0-0.722 0.019-1.075 0.056l0.044-0.004zM12.672 1.316c0.848 0.186 1.596 0.457 2.295 0.811l-0.054-0.025c0.951 0.47 0.892 0.406 0.824 0.892-0.077 0.558-0.176 0.868-0.269 0.846-0.041-0.010-0.362-0.101-0.711-0.202-0.83-0.239-1.328-0.282-1.562-0.133-0.373 0.236-0.337 0.829 0.060 0.995 0.102 0.043 0.278 0.078 0.389 0.078 0.191 0 1.113 0.226 1.175 0.288 0.054 0.054-0.226 0.241-0.493 0.329-0.87 0.287-1.379 0.859-1.385 1.561-0.002 0.316 0.009 0.348 0.172 0.494 0.367 0.328 0.871 0.126 0.952-0.383 0.046-0.284 0.205-0.44 0.572-0.559 0.973-0.316 1.817-1.306 2.109-2.475 0.055-0.219 0.123-0.405 0.151-0.414s0.277 0.217 0.555 0.504c0.94 0.971 1.628 2.008 2.094 3.154 0.096 0.235 0.117 0.339 0.072 0.353-0.162 0.023-0.362 0.042-0.564 0.051l-0.015 0.001c-1.038 0.064-2.392 0.375-3.434 0.788-1.702 0.678-3.15 1.663-4.34 2.898l-0.004 0.004-0.632 0.653-0.206-0.212c-0.281-0.284-0.628-0.502-1.015-0.629l-0.018-0.005c-0.293-0.098-0.432-0.113-0.887-0.093-0.485 0.021-0.582 0.043-0.95 0.218-0.92 0.437-1.471 1.304-1.471 2.314 0 1.202 0.772 2.175 1.974 2.49 0.195 0.051 0.288 0.102 0.276 0.149l-0.146 0.552c-0.215 0.808-0.35 1.722-0.382 2.576-0.029 0.796-0.032 0.814-0.142 0.782-0.317-0.091-1.67-0.814-2.113-1.13-0.604-0.431-1.628-1.429-2.052-2-0.931-1.239-1.594-2.732-1.871-4.357l-0.008-0.060c-0.084-0.49-0.135-2.407-0.067-2.475 0.016-0.017 0.208 0.063 0.426 0.177 0.538 0.276 1.163 0.499 1.819 0.636l0.049 0.009c0.47 0.096 0.55 0.099 0.71 0.033 0.233-0.098 0.354-0.275 0.354-0.521-0.005-0.282-0.212-0.514-0.482-0.56l-0.003-0c-0.115-0.018-0.209-0.045-0.209-0.059s0.076-0.112 0.168-0.217c0.42-0.478 0.662-1.422 0.449-1.747-0.134-0.205-0.421-0.311-0.641-0.238-0.254 0.084-0.359 0.227-0.412 0.566-0.1 0.635-0.45 1.016-1.013 1.103-0.161 0.025-0.253-0.003-0.507-0.155-0.541-0.324-0.531-0.301-0.367-0.871 1.035-3.602 3.992-6.273 7.586-6.858 0.688-0.112 2.542-0.071 3.195 0.071zM8.536 2.946c-0.446 0.125-0.772 0.319-1.125 0.67-0.434 0.431-0.667 0.89-0.753 1.481-0.111 0.764 0.161 1.553 0.737 2.131 0.459 0.47 1.099 0.762 1.807 0.762s1.349-0.292 1.808-0.762l0.001-0.001c1.021-1.025 1.019-2.585-0.005-3.602-0.37-0.367-0.769-0.598-1.205-0.698-0.31-0.072-0.975-0.062-1.266 0.019zM9.634 4.071c0.566 0.169 0.932 0.649 0.97 1.275 0.022 0.352 0.011 0.407-0.155 0.723-0.568 1.087-2.026 1.033-2.542-0.094-0.111-0.243-0.127-0.343-0.105-0.65 0.068-0.942 0.92-1.526 1.832-1.254zM21.454 8.66c0.072 0.028 0.081 0.112 0.060 0.551-0.029 0.602 0.053 0.998 0.314 1.517 0.292 0.581 1.103 1.269 1.495 1.269 0.243-0.017 0.445-0.179 0.52-0.4l0.001-0.004c0.082-0.295-0.028-0.502-0.391-0.743-0.545-0.362-0.797-0.826-0.8-1.477-0.001-0.225 0.017-0.428 0.039-0.45 0.060-0.060 1.066 0.261 1.785 0.57 0.686 0.294 1.271 0.617 1.821 0.988l-0.038-0.024 0.302 0.204-0.179 0.361c-0.386 0.78-0.506 1.762-0.315 2.576 0.245 1.043 1.033 2.042 1.98 2.508 0.268 0.132 0.338 0.19 0.312 0.258-0.354 0.912-0.203 2.007 0.387 2.809l0.157 0.214-0.283 0.306c-0.494 0.551-0.797 1.284-0.797 2.087 0 0.302 0.043 0.595 0.123 0.872l-0.005-0.022c0.26 0.876 0.919 1.64 1.725 1.999 0.162 0.072 0.3 0.137 0.308 0.145 0.025 0.023-0.41 0.773-0.684 1.18-1.26 1.856-3.024 3.286-5.095 4.108l-0.075 0.026-0.503 0.197-0.11-0.326c-0.079-0.224-0.165-0.414-0.266-0.595l0.010 0.019c-0.426-0.724-1.595-1.646-2.088-1.646-0.008-0-0.017-0.001-0.025-0.001-0.296 0-0.535 0.24-0.535 0.535 0 0.044 0.005 0.087 0.015 0.127l-0.001-0.004c0.039 0.209 0.156 0.322 0.589 0.573 0.604 0.348 1.257 1.139 1.257 1.522 0 0.127-0.082 0.149-1.093 0.294-0.633 0.091-2.080 0.077-2.817-0.027-0.849-0.131-1.602-0.32-2.326-0.572l0.092 0.028c-0.782-0.302-1.443-0.626-2.072-0.998l0.064 0.035-0.391-0.244 0.418-0.203c0.517-0.252 1.043-0.722 1.441-1.291 0.305-0.435 0.478-0.593 0.85-0.78 0.221-0.111 0.832-0.234 1.084-0.219 0.296 0.019 0.389-0.009 0.539-0.158 0.217-0.217 0.218-0.52 0.002-0.762-0.144-0.161-0.182-0.174-0.557-0.193-0.447-0.023-1.117 0.092-1.505 0.258-0.525 0.225-0.972 0.619-1.331 1.174-0.437 0.676-1.084 1.12-1.636 1.12-0.355 0-0.89-0.244-1.212-0.553-0.709-0.683-1.393-1.673-1.957-2.835-0.8-1.648-1.11-3.005-1.107-4.855 0.002-1.039 0.069-1.658 0.276-2.544 0.174-0.746 0.157-0.723 0.51-0.684 0.418 0.046 0.926-0.024 1.319-0.183 0.089-0.040 0.199-0.082 0.313-0.117l0.021-0.005c0.002 0.007 0.074 0.153 0.16 0.327 0.281 0.561 0.871 1.045 1.274 1.045 0.557 0 0.73-0.753 0.242-1.055-0.55-0.341-0.755-0.878-0.552-1.453 0.126-0.357 0.104-0.57-0.076-0.751-0.282-0.281-0.732-0.184-0.951 0.205-0.278 0.496-0.94 0.889-1.44 0.855l-0.235-0.016 0.318-0.626c1.727-3.402 4.902-5.601 8.76-6.069 0.425-0.051 2.423-0.033 2.566 0.024zM9.085 12.080c0.286 0.097 0.719 0.457 0.763 0.633 0.022 0.086-0.037 0.23-0.198 0.489-0.126 0.202-0.376 0.655-0.556 1.007-0.322 0.631-0.329 0.64-0.503 0.632-0.609-0.031-1.146-0.442-1.31-1.004-0.323-1.113 0.717-2.128 1.804-1.758zM18.888 12.323c-0.709 0.117-1.49 0.674-1.826 1.305-0.62 1.159-0.256 2.632 0.825 3.344 0.472 0.31 0.854 0.428 1.401 0.433 0.72 0.006 1.271-0.209 1.798-0.702 0.529-0.495 0.79-1.105 0.79-1.853 0-0.003 0-0.007 0-0.010 0-1.411-1.144-2.554-2.554-2.554-0.153 0-0.304 0.014-0.45 0.039l0.015-0.002zM20.025 13.615c0.99 0.58 0.94 1.994-0.088 2.525-0.090 0.047-0.312 0.097-0.493 0.112-0.437 0.035-0.802-0.088-1.091-0.368-0.306-0.297-0.422-0.578-0.424-1.021-0.002-0.606 0.236-1.001 0.764-1.269 0.297-0.15 0.365-0.164 0.709-0.143 0.288 0.017 0.44 0.057 0.623 0.164zM15.18 19.475c-0.687 0.131-1.456 0.712-1.75 1.325-0.393 0.814-0.397 1.542-0.015 2.321 0.438 0.894 1.284 1.418 2.299 1.422 1.534 0.006 2.757-1.386 2.536-2.886-0.183-1.267-1.262-2.231-2.566-2.231-0.178 0-0.353 0.018-0.521 0.052l0.017-0.003zM16.242 20.668c0.107 0.045 0.291 0.169 0.41 0.276 0.967 0.873 0.338 2.47-0.973 2.47-0.306 0-0.746-0.188-0.965-0.413-0.254-0.25-0.412-0.598-0.412-0.983 0-0.016 0-0.031 0.001-0.046l-0 0.002c0-0.813 0.574-1.387 1.389-1.387 0.198 0 0.442 0.036 0.551 0.081zM22.704 21.287c-0.477 0.068-1.045 0.362-1.413 0.728-1.34 1.34-0.816 3.583 0.988 4.234 0.227 0.082 0.45 0.115 0.796 0.119 0.793 0.008 1.4-0.257 1.942-0.85 0.442-0.484 0.642-1.014 0.643-1.704 0.003-1.573-1.379-2.754-2.957-2.527zM23.59 22.482c0.328 0.112 0.581 0.334 0.766 0.673 0.303 0.554 0.166 1.332-0.303 1.728-0.321 0.272-0.601 0.362-1.038 0.333-0.482-0.030-0.816-0.215-1.068-0.589-0.158-0.227-0.253-0.508-0.253-0.812 0-0.62 0.395-1.148 0.946-1.346l0.010-0.003c0.236-0.084 0.668-0.076 0.94 0.016z"></path>
</svg>
