<!-- Generated by IcoMoon.io -->
<svg version="1.1" xmlns="http://www.w3.org/2000/svg" width="32" height="32" viewBox="0 0 32 32">
<title>document-text</title>
<path d="M7.176 0.066c-0.485 0.080-1.171 0.33-1.597 0.579-0.467 0.274-1.455 1.261-1.728 1.728-0.262 0.448-0.494 1.106-0.583 1.653-0.094 0.578-0.094 23.363 0 23.94 0.168 1.047 0.554 1.773 1.371 2.592 0.819 0.818 1.546 1.203 2.592 1.371 0.574 0.093 16.965 0.093 17.539 0 1.047-0.168 1.773-0.554 2.592-1.371 0.818-0.819 1.203-1.546 1.371-2.592 0.045-0.275 0.067-3.135 0.067-8.418 0-8.806 0.016-8.416-0.395-9.211-0.171-0.333-0.898-1.087-4.879-5.068s-4.735-4.708-5.068-4.879c-0.771-0.398-0.717-0.395-6.075-0.389-2.676 0.005-5.020 0.032-5.209 0.064zM21.267 7.531l4.337 4.337v7.841l-0.002 7.841-0.15 0.32c-0.16 0.36-0.445 0.641-0.798 0.792l-0.010 0.004c-0.285 0.128-0.374 0.13-8.642 0.13s-8.357-0.002-8.642-0.13c-0.363-0.154-0.648-0.435-0.804-0.786l-0.004-0.010-0.15-0.32v-11.554c0.002-11.487 0.002-11.556 0.131-11.842 0.154-0.363 0.435-0.648 0.786-0.804l0.010-0.004 0.32-0.15 9.282-0.002 4.337 4.337zM10.622 14.482c-0.691 0.189-0.986 0.64-0.987 1.514-0.002 0.904 0.331 1.375 1.087 1.536 0.216 0.045 2.005 0.061 5.473 0.050l5.153-0.018 0.309-0.152c0.568-0.28 0.847-1.002 0.696-1.81-0.096-0.517-0.31-0.832-0.696-1.023l-0.309-0.152-5.217-0.013c-3.988-0.010-5.286 0.006-5.508 0.067zM10.622 20.884c-0.691 0.189-0.986 0.64-0.987 1.514-0.002 0.904 0.331 1.375 1.087 1.536 0.216 0.045 2.005 0.061 5.473 0.050l5.153-0.018 0.309-0.152c0.386-0.19 0.6-0.506 0.696-1.023 0.15-0.808-0.128-1.53-0.696-1.81l-0.309-0.152-5.217-0.013c-3.988-0.010-5.286 0.006-5.508 0.067z"></path>
</svg>
