<!-- Generated by IcoMoon.io -->
<svg version="1.1" xmlns="http://www.w3.org/2000/svg" width="32" height="32" viewBox="0 0 32 32">
<title>double-chevron-left</title>
<path d="M7.695 8.089l-7.695 7.917 7.687 7.907c4.228 4.348 7.705 7.913 7.726 7.921 0.031 0.012 1.448-1.484 2.050-2.163l0.108-0.122-13.538-13.539 8.317-8.394c2.845-2.87 5.172-5.24 5.172-5.266 0-0.058-2.045-2.183-2.097-2.18-0.020 0.002-3.499 3.566-7.73 7.921zM22.157 8.062c-4.222 4.343-7.676 7.918-7.676 7.944 0 0.068 15.344 15.844 15.394 15.827 0.023-0.008 0.507-0.518 1.076-1.134l1.034-1.119-6.739-6.769c-3.707-3.724-6.739-6.79-6.739-6.814s3.036-3.106 6.747-6.848l6.746-6.805-1.052-1.090c-0.579-0.599-1.067-1.089-1.085-1.089s-3.486 3.553-7.707 7.895z"></path>
</svg>
