<!-- Generated by IcoMoon.io -->
<svg version="1.1" xmlns="http://www.w3.org/2000/svg" width="32" height="32" viewBox="0 0 32 32">
<title>double-chevron-right</title>
<path d="M1.054 1.23l-1.054 1.092 6.758 6.816c3.716 3.749 6.757 6.835 6.757 6.858s-3.037 3.094-6.75 6.824l-6.75 6.783 1.036 1.12c0.57 0.617 1.055 1.128 1.078 1.136 0.050 0.017 15.421-15.786 15.421-15.854 0-0.052-15.357-15.866-15.409-15.866-0.018 0-0.507 0.491-1.087 1.091zM15.539 1.205c-0.569 0.589-1.035 1.093-1.035 1.12s2.331 2.4 5.181 5.275l8.332 8.409-13.56 13.56 0.104 0.121c0.41 0.478 2.025 2.182 2.055 2.17 0.082-0.032 15.384-15.802 15.384-15.854s-15.303-15.822-15.386-15.855c-0.022-0.009-0.506 0.466-1.075 1.055z"></path>
</svg>
