<!-- Generated by IcoMoon.io -->
<svg version="1.1" xmlns="http://www.w3.org/2000/svg" width="32" height="32" viewBox="0 0 32 32">
<title>download</title>
<path d="M30.762 14.042h-2.083c-0.509 0-0.918 0.413-0.918 0.918v12.8h-23.52v-12.8c0-0.509-0.413-0.918-0.918-0.918h-2.083c-0.509 0-0.918 0.413-0.918 0.918v15.805c0 0.509 0.413 0.918 0.918 0.918h29.523c0.509 0 0.918-0.413 0.918-0.918v-15.805c0-0.509-0.413-0.918-0.918-0.918zM17.962 14.042v-12.742c0-0.541-0.438-0.979-0.979-0.979h-1.962c-0.541 0-0.979 0.438-0.979 0.979v12.739h-5.882l7.84 7.84 7.84-7.84h-5.878z"></path>
</svg>
