<!-- Generated by IcoMoon.io -->
<svg version="1.1" xmlns="http://www.w3.org/2000/svg" width="32" height="32" viewBox="0 0 32 32">
<title>emoji-happy</title>
<path d="M14.942 0.016c-1.633 0.164-2.658 0.369-3.944 0.793-3.743 1.236-6.771 3.673-8.798 7.077-1.061 1.786-1.808 3.976-2.111 6.199-0.107 0.786-0.107 3.062 0 3.847 0.612 4.487 2.833 8.291 6.387 10.947 2.14 1.6 4.779 2.655 7.6 3.039 0.786 0.107 3.062 0.107 3.847 0 5.067-0.693 9.327-3.483 11.877-7.788 1.063-1.794 1.807-3.979 2.11-6.199 0.107-0.785 0.107-3.062 0-3.847-0.693-5.067-3.483-9.327-7.788-11.877-1.749-1.036-3.852-1.767-5.975-2.074-0.632-0.091-2.708-0.168-3.206-0.119zM18.084 3.34c1.349 0.226 2.558 0.633 3.672 1.2l-0.072-0.033c1.266 0.614 2.369 1.419 3.447 2.512 1.908 1.938 3.038 4.139 3.54 6.906 0.167 0.911 0.167 3.257 0 4.168-0.338 1.868-0.968 3.474-1.935 4.942-1.722 2.613-4.48 4.615-7.404 5.372-1.27 0.329-1.795 0.39-3.331 0.39-1.533 0-2.062-0.061-3.323-0.388-2.946-0.761-5.633-2.709-7.409-5.369-0.951-1.422-1.598-3.076-1.938-4.947-0.167-0.911-0.167-3.257 0-4.168 0.372-2.044 1.090-3.777 2.22-5.354 2.074-2.888 5.257-4.866 8.913-5.313l0.062-0.006c0.713-0.088 2.874-0.034 3.559 0.088zM10.646 11.272c-0.386 0.094-0.7 0.345-0.875 0.68l-0.004 0.007c-0.117 0.239-0.146 0.406-0.146 0.843 0 0.957 0.353 1.409 1.212 1.557 0.787 0.135 1.496-0.133 1.781-0.675 0.207-0.393 0.208-1.367 0.003-1.759-0.311-0.588-1.113-0.854-1.972-0.654zM20.264 11.272c-0.386 0.094-0.7 0.345-0.875 0.68l-0.003 0.007c-0.117 0.239-0.146 0.406-0.146 0.843 0 0.957 0.353 1.409 1.212 1.557 0.787 0.135 1.496-0.133 1.781-0.675 0.207-0.393 0.208-1.367 0.003-1.759-0.311-0.588-1.113-0.854-1.972-0.654zM11.223 18.891c-0.314 0.075-0.572 0.236-0.883 0.551-0.802 0.811-0.729 1.568 0.231 2.429 0.824 0.741 1.549 1.197 2.491 1.569 0.871 0.353 1.881 0.558 2.938 0.558s2.068-0.205 2.992-0.577l-0.054 0.019c0.943-0.372 1.667-0.829 2.491-1.569 0.96-0.861 1.032-1.617 0.231-2.43-0.377-0.382-0.731-0.561-1.105-0.561-0.423 0-0.67 0.128-1.316 0.683-1.25 1.074-2.7 1.468-4.253 1.156-0.846-0.172-1.577-0.566-2.408-1.302-0.523-0.462-0.938-0.624-1.356-0.526z"></path>
</svg>
