<!-- Generated by IcoMoon.io -->
<svg version="1.1" xmlns="http://www.w3.org/2000/svg" width="32" height="32" viewBox="0 0 32 32">
<title>exclamation-circle-solid</title>
<path d="M14.866 0.018l-0.853 0.1c-3.84 0.447-7.698 2.514-10.148 5.435-2.059 2.454-3.251 5.066-3.732 8.183-0.166 1.072-0.166 3.468 0 4.539 1.102 7.128 6.472 12.498 13.6 13.6 1.072 0.166 3.468 0.166 4.539 0 3.13-0.483 5.893-1.79 8.137-3.69l-0.024 0.020c2.532-2.135 4.395-5.164 5.198-8.462 0.321-1.318 0.409-2.115 0.409-3.738 0-1.108-0.032-1.705-0.12-2.27-0.779-5.046-3.7-9.279-8.093-11.729-1.59-0.902-3.446-1.555-5.419-1.848l-0.088-0.011c-0.667-0.102-2.911-0.186-3.405-0.13zM16.9 6.218c0.415 0.207 0.74 0.544 0.927 0.957l0.005 0.012c0.138 0.3 0.14 0.371 0.14 4.812v4.507l-0.186 0.383c-0.227 0.456-0.612 0.805-1.082 0.981l-0.014 0.004c-0.205 0.079-0.443 0.124-0.691 0.124-0.777 0-1.449-0.447-1.774-1.098l-0.005-0.012-0.186-0.383-0.022-4.307c-0.014-2.977 0.002-4.413 0.054-4.649 0.27-1.256 1.659-1.907 2.835-1.332zM16.9 22.244c0.697 0.341 1.070 0.958 1.072 1.775 0 0.415-0.032 0.565-0.186 0.883-0.227 0.456-0.612 0.805-1.082 0.981l-0.014 0.004c-1.472 0.551-2.993-0.795-2.626-2.326 0.214-0.886 0.999-1.533 1.936-1.533 0.328 0 0.638 0.080 0.911 0.221l-0.011-0.005z"></path>
</svg>
