<!-- Generated by IcoMoon.io -->
<svg version="1.1" xmlns="http://www.w3.org/2000/svg" width="32" height="32" viewBox="0 0 32 32">
<title>eye</title>
<path d="M14.874 3.871c-0.94 0.086-1.78 0.215-2.602 0.391l0.143-0.025c-5.69 1.272-10.312 5.38-12.207 10.849-0.277 0.802-0.277 1.042 0 1.845 2.068 5.969 7.319 10.239 13.662 11.11 1.044 0.143 3.217 0.143 4.261 0 6.343-0.87 11.593-5.141 13.662-11.11 0.277-0.802 0.277-1.042 0-1.845-2.064-5.955-7.36-10.268-13.631-11.102-0.717-0.094-2.686-0.163-3.287-0.113zM17.522 6.966c2.027 0.237 3.692 0.788 5.409 1.791 2.287 1.368 4.105 3.308 5.289 5.626l0.036 0.078c0.339 0.679 0.65 1.42 0.65 1.546 0 0.272-0.817 1.957-1.354 2.794-2.471 3.835-6.721 6.338-11.555 6.338-1.012 0-1.998-0.11-2.948-0.318l0.091 0.017c-4.027-0.842-7.545-3.569-9.394-7.285-0.339-0.679-0.65-1.42-0.65-1.546 0-0.272 0.817-1.957 1.354-2.794 2.843-4.424 7.923-6.851 13.073-6.247zM15.224 9.981c-1.382 0.192-2.59 0.823-3.506 1.744l-0 0c-0.761 0.752-1.323 1.704-1.598 2.772l-0.009 0.042c-0.132 0.501-0.155 0.715-0.155 1.469s0.023 0.968 0.155 1.469c0.485 1.826 1.689 3.273 3.368 4.048 0.832 0.385 1.508 0.527 2.522 0.527 0.752 0 0.969-0.024 1.469-0.155 1.823-0.482 3.272-1.688 4.048-3.366 0.385-0.832 0.527-1.508 0.527-2.522 0-0.752-0.024-0.969-0.155-1.469-0.482-1.823-1.688-3.272-3.366-4.048-0.944-0.435-2.316-0.648-3.298-0.51zM16.682 13.032c1.058 0.225 2.074 1.24 2.295 2.293 0.041 0.204 0.064 0.438 0.064 0.678 0 0.243-0.024 0.48-0.069 0.709l0.004-0.023c-0.225 1.058-1.24 2.074-2.293 2.295-0.2 0.047-0.429 0.074-0.665 0.074-0.864 0-1.643-0.362-2.195-0.942l-0.001-0.001c-1.164-1.213-1.166-3.003-0.002-4.214 0.553-0.582 1.332-0.943 2.196-0.943 0.236 0 0.466 0.027 0.687 0.078l-0.020-0.004z"></path>
</svg>
