<!-- Generated by IcoMoon.io -->
<svg version="1.1" xmlns="http://www.w3.org/2000/svg" width="32" height="32" viewBox="0 0 32 32">
<path fill="none" stroke-linejoin="round" stroke-linecap="round" stroke-miterlimit="4" stroke-width="2.9091" stroke="#000" d="M3.47 6.788c-1.1-1.23-1.65-1.844-1.671-2.367-0.018-0.454 0.177-0.89 0.527-1.179 0.403-0.333 1.228-0.333 2.878-0.333h21.59c1.65 0 2.475 0 2.878 0.333 0.35 0.289 0.545 0.725 0.527 1.179-0.021 0.522-0.571 1.137-1.671 2.367l-8.3 9.276c-0.219 0.245-0.329 0.368-0.407 0.507-0.069 0.124-0.12 0.257-0.151 0.395-0.035 0.156-0.035 0.321-0.035 0.649v7.778c0 0.284 0 0.427-0.046 0.55-0.041 0.109-0.106 0.206-0.192 0.284-0.097 0.088-0.229 0.141-0.493 0.247l-4.945 1.978c-0.535 0.214-0.802 0.321-1.017 0.276-0.188-0.039-0.352-0.15-0.458-0.31-0.121-0.183-0.121-0.471-0.121-1.046v-9.756c0-0.329 0-0.493-0.035-0.649-0.031-0.138-0.082-0.272-0.151-0.395-0.078-0.14-0.188-0.262-0.407-0.507l-8.3-9.276z"></path>
</svg>
