<svg width="52" height="53" viewBox="0 0 52 53" fill="none" xmlns="http://www.w3.org/2000/svg">
<path d="M50.1129 17.0985C49.648 17.0985 49.1888 16.8878 48.8874 16.488C44.8645 11.1498 39.3758 7.23045 33.015 5.15374C31.1376 4.54075 29.1908 4.09669 27.2288 3.83373L27.226 3.83332C18.7037 2.69267 10.2226 4.91541 3.34535 10.0927C2.66879 10.6019 1.7078 10.4663 1.19864 9.78994C0.68948 9.11358 0.824997 8.15239 1.50136 7.64323C9.02716 1.97757 18.3082 -0.454684 27.6359 0.794915L27.6409 0.795528C29.7857 1.08332 31.914 1.56898 33.9667 2.2391C40.927 4.51172 46.9333 8.80075 51.336 14.6428C51.8455 15.319 51.7105 16.2801 51.0343 16.7897C50.7581 16.9979 50.4341 17.0985 50.1129 17.0985Z" fill="white"/>
<path d="M31.8614 52.1527C31.5937 52.1527 31.3225 52.0824 31.0758 51.935C30.3493 51.5003 30.1127 50.559 30.5474 49.8324C31.2729 48.6196 31.9311 47.3306 32.5038 46.0011C34.2287 41.9961 34.7724 38.6289 34.898 37.6924C35.6727 31.9102 32.2131 26.4002 26.6718 24.5911C25.9733 24.3631 25.2478 24.1976 24.5155 24.0995C21.3514 23.6755 18.1995 24.5028 15.6412 26.4288C13.1456 28.3077 11.4903 31.0305 10.9804 34.0957C10.6415 36.133 9.56551 37.9642 7.95064 39.2518C7.28849 39.7797 6.32423 39.6709 5.79627 39.0089C5.26851 38.3469 5.37715 37.3824 6.0392 36.8545C7.06079 36.0399 7.74144 34.8815 7.95586 33.5925C8.59563 29.7476 10.6702 26.3336 13.7972 23.9793C17.0033 21.5656 20.9543 20.5291 24.9226 21.0606C25.8393 21.1834 26.7479 21.3906 27.6233 21.6763C34.5705 23.9444 38.9078 30.8514 37.9368 38.0995C37.7981 39.1343 37.1995 42.8495 35.3197 47.2139C34.6937 48.6673 33.9733 50.0779 33.1785 51.4064C32.8913 51.8864 32.3829 52.1527 31.8614 52.1527ZM49.4746 31.5098C48.7765 31.5098 48.1453 31.0297 47.9821 30.3203C45.97 21.5784 39.4251 14.4191 30.9013 11.6362C29.417 11.1516 27.8773 10.8004 26.3252 10.5924C19.588 9.6897 12.8828 11.4474 7.44475 15.5414C5.79208 16.7855 4.29485 18.2201 2.99466 19.8051C2.4575 20.4598 1.49161 20.5551 0.837118 20.0181C0.18263 19.4812 0.0871749 18.5152 0.624133 17.8607C2.07895 16.0872 3.75329 14.4828 5.60076 13.0919C11.6867 8.51021 19.1914 6.54347 26.7323 7.55362C28.469 7.78633 30.1918 8.17929 31.853 8.72166C36.621 10.2784 40.9141 13.0642 44.2681 16.7781C47.5545 20.417 49.8719 24.8621 50.97 29.6327C51.1598 30.4578 50.6449 31.2806 49.8198 31.4705C49.7041 31.497 49.5885 31.5098 49.4746 31.5098Z" fill="white"/>
<path d="M41.4887 47.3634C41.3283 47.3634 41.1652 47.338 41.0046 47.2846C40.2013 47.0173 39.7667 46.1493 40.034 45.3461C41.0691 42.2348 41.4906 39.78 41.6497 38.5936C42.8608 29.5535 37.4503 20.9387 28.7848 18.1095C27.6932 17.7531 26.5607 17.4947 25.4186 17.3417C20.4676 16.6785 15.5394 17.9709 11.5412 20.9808C7.64216 23.9163 5.05527 28.1752 4.25709 32.9731C4.1181 33.8083 3.3282 34.3723 2.49322 34.2336C1.65805 34.0948 1.0937 33.3051 1.23259 32.4699C2.16056 26.8922 5.16667 21.9421 9.6972 18.5312C14.3432 15.0336 20.0711 13.532 25.8257 14.3028C27.1521 14.4805 28.468 14.7806 29.7363 15.1948C39.8075 18.4829 46.0959 28.4948 44.6885 39.0009C44.5151 40.2944 44.0577 42.9642 42.9431 46.3139C42.7293 46.9566 42.131 47.3633 41.4887 47.3634Z" fill="white"/>
<path d="M22.9062 52.8026C22.5299 52.8026 22.153 52.665 21.857 52.3872C21.2398 51.8076 21.2093 50.8374 21.7889 50.2202C26.9479 44.7266 28.0335 37.5814 28.1402 36.7846C28.5268 33.8987 26.4933 31.2361 23.6071 30.8495C20.7217 30.4624 18.0586 32.4963 17.6719 35.3824C17.664 35.4414 16.6871 41.4994 12.5428 44.3192C11.8428 44.7957 10.8892 44.6142 10.4129 43.9142C9.93669 43.2142 10.118 42.2607 10.818 41.7844C13.2765 40.1116 14.4044 36.2998 14.6365 34.9495C15.2606 30.4011 19.4609 27.2007 24.0141 27.8106C28.576 28.4218 31.7901 32.6303 31.1791 37.1919C31.0973 37.8014 30.7508 40.0095 29.7221 42.839C28.3788 46.5336 26.4617 49.7231 24.0238 52.3191C23.7222 52.6403 23.3147 52.8026 22.9062 52.8026Z" fill="white"/>
<path d="M15.5178 50.2182C15.0274 50.2182 14.5456 49.9835 14.249 49.5475C13.7727 48.8475 13.954 47.894 14.654 47.4177C20.2692 43.5971 21.3795 35.9539 21.39 35.8771C21.5052 35.0395 22.2762 34.4517 23.1151 34.5656C23.953 34.6793 24.5408 35.4487 24.4286 36.2868C24.3793 36.6548 23.144 45.3497 16.3788 49.9526C16.1147 50.1322 15.8148 50.2182 15.5178 50.2182Z" fill="white"/>
</svg>
