<!-- Generated by IcoMoon.io -->
<svg version="1.1" xmlns="http://www.w3.org/2000/svg" width="32" height="32" viewBox="0 0 32 32">
<title>gps</title>
<path d="M16 24.616c0.681 0 1.232 0.551 1.232 1.229v1.162c5.134-0.568 9.207-4.641 9.775-9.775h-1.162c-0.678 0-1.229-0.551-1.229-1.232 0-0.678 0.551-1.229 1.229-1.229h1.163c-0.567-5.134-4.641-9.208-9.776-9.776v1.16c0 0.681-0.551 1.232-1.232 1.232s-1.232-0.551-1.232-1.232v-1.16c-5.133 0.569-9.209 4.642-9.776 9.776h1.162c0.681 0 1.232 0.551 1.232 1.229 0 0.681-0.551 1.232-1.232 1.232h-1.162c0.568 5.134 4.643 9.207 9.775 9.775v-1.162c0-0.678 0.551-1.229 1.232-1.229zM27.007 17.232h-1.162c-0.678 0-1.229-0.551-1.229-1.232 0-0.678 0.551-1.229 1.229-1.229h4.923c0.681 0 1.232 0.551 1.232 1.229 0 0.681-0.551 1.232-1.232 1.232h-3.761zM4.993 17.232h-3.761c-0.681 0-1.232-0.551-1.232-1.232 0-0.678 0.551-1.229 1.232-1.229h4.922c0.681 0 1.232 0.551 1.232 1.229 0 0.681-0.551 1.232-1.232 1.232h-1.162zM17.232 4.995v1.16c0 0.681-0.551 1.232-1.232 1.232s-1.232-0.551-1.232-1.232v-4.923c0-0.681 0.551-1.232 1.232-1.232s1.232 0.551 1.232 1.232v3.763zM14.768 27.007v-1.162c0-0.678 0.551-1.229 1.232-1.229s1.232 0.551 1.232 1.229v4.923c0 0.681-0.551 1.232-1.232 1.232s-1.232-0.551-1.232-1.232v-3.761zM8.353 16c0-4.224 3.423-7.647 7.647-7.647s7.649 3.423 7.649 7.647c0 4.223-3.426 7.649-7.649 7.649s-7.647-3.426-7.647-7.649z"></path>
</svg>
