<!-- Generated by IcoMoon.io -->
<svg version="1.1" xmlns="http://www.w3.org/2000/svg" width="32" height="32" viewBox="0 0 32 32">
<title>home</title>
<path d="M15.426 0.165c-0.21 0.1-1.793 1.634-5.993 5.806l-5.782 5.744c-0.041 0.040-0.818 0.834-1.725 1.763-1.111 1.14-1.694 1.785-1.788 1.981-0.276 0.571-0.139 1.12 0.413 1.674 0.542 0.542 1.106 0.689 1.642 0.427 0.143-0.070 0.438-0.287 0.657-0.483l0.397-0.354 0.035 12.725 0.14 0.367c0.397 1.039 1.191 1.761 2.228 2.027 0.475 0.121 0.765 0.124 10.35 0.124s9.875-0.003 10.35-0.124c0.609-0.156 0.993-0.378 1.446-0.83s0.674-0.837 0.83-1.446c0.12-0.469 0.124-0.74 0.124-6.669v-6.178l0.398 0.355c0.218 0.196 0.515 0.414 0.658 0.485 0.536 0.261 1.1 0.115 1.642-0.427 0.551-0.553 0.689-1.103 0.413-1.674-0.096-0.198-0.685-0.85-1.823-2.013-0.924-0.947-1.701-1.739-1.723-1.76-0.024-0.021-2.611-2.592-5.749-5.712-4.31-4.284-5.778-5.708-5.998-5.811-0.166-0.083-0.362-0.131-0.57-0.131-0.209 0-0.406 0.049-0.581 0.136l0.008-0.003zM20.797 8.745l4.766 4.766v15.269h-4.782v-3.337c0-3.105-0.008-3.369-0.124-3.825-0.133-0.575-0.426-1.068-0.829-1.444l-0.002-0.002c-0.384-0.41-0.885-0.705-1.451-0.832l-0.019-0.004c-0.47-0.12-0.666-0.128-2.564-0.105-1.911 0.022-2.082 0.033-2.423 0.161-0.924 0.344-1.626 1.047-1.981 1.986-0.131 0.346-0.137 0.469-0.156 3.879l-0.021 3.522h-4.775v-15.269l4.766-4.766c1.58-1.59 3.143-3.143 4.716-4.686l0.081-0.079c0.018 0 2.176 2.144 4.797 4.766zM17.594 25.592v3.188h-3.188v-6.375h3.188v3.188z"></path>
</svg>
