<!-- Generated by IcoMoon.io -->
<svg version="1.1" xmlns="http://www.w3.org/2000/svg" width="160" height="160" viewBox="0 0 160 160">
<title></title>
<g id="icomoon-ignore">
</g>
<path d="M79.995 133.333c3.378 0 6.169 2.119 6.61 4.87l0.061 0.765v15.398c0 3.112-2.986 5.634-6.671 5.634-3.369 0-6.16-2.119-6.601-4.87l-0.061-0.765v-15.398c0-3.112 2.986-5.634 6.662-5.634zM127.805 120.743l0.715 0.523 9.973 9.965c1.466 1.465 1.912 3.673 1.119 5.591-0.793 1.925-2.67 3.178-4.746 3.178-1.094-0.006-2.146-0.356-3.013-0.992l-0.613-0.53-9.973-9.965c-1.778-2.038-1.672-5.096 0.241-7.007 1.7-1.699 4.307-1.971 6.297-0.763zM38.515 121.485c1.678 1.678 1.942 4.258 0.747 6.225l-0.517 0.706-9.847 9.847c-0.923 1.056-2.245 1.685-3.651 1.734s-2.77-0.49-3.763-1.482c-0.993-0.993-1.532-2.357-1.483-3.763 0.039-1.125 0.45-2.196 1.153-3.052l0.581-0.599 9.847-9.847c2.014-1.755 5.042-1.657 6.931 0.231zM80.004 40c10.613 0 20.784 4.22 28.284 11.719 7.507 7.507 11.72 17.677 11.713 28.288 0 10.605-4.213 20.782-11.72 28.281-7.5 7.499-17.678 11.712-28.291 11.712-10.598-0.015-20.769-4.235-28.262-11.734-7.5-7.499-11.713-17.662-11.727-28.266 0-10.612 4.213-20.782 11.72-28.281 7.5-7.506 17.678-11.719 28.284-11.719zM79.989 50.511c-7.818 0.008-15.311 3.12-20.834 8.65-5.531 5.53-8.636 13.022-8.651 20.839 0 7.825 3.113 15.324 8.644 20.854s13.030 8.635 20.856 8.635c7.826 0 15.325-3.105 20.856-8.643 5.531-5.53 8.636-13.029 8.636-20.854 0-7.818-3.113-15.324-8.644-20.854s-13.038-8.635-20.863-8.628zM154.364 73.333c3.113 0 5.636 2.984 5.636 6.667 0 3.375-2.12 6.164-4.871 6.606l-0.765 0.061h-15.402c-3.105 0-5.628-2.984-5.628-6.667 0-1.763 0.59-3.462 1.646-4.711 0.845-0.999 1.933-1.651 3.097-1.872l0.885-0.084h15.402zM21.038 73.333c3.113 0 5.628 2.984 5.628 6.667 0 3.375-2.113 6.164-4.864 6.606l-0.765 0.061h-15.402c-3.113 0-5.636-2.984-5.636-6.667 0-3.375 2.12-6.164 4.871-6.606l0.765-0.061h15.402zM138.491 21.508c1.701 1.694 1.975 4.306 0.764 6.299l-0.523 0.715-9.982 9.976c-0.964 0.964-2.269 1.502-3.63 1.502-2.070-0.007-3.935-1.261-4.729-3.174-0.681-1.64-0.46-3.487 0.536-4.91l0.562-0.673 9.982-9.976c2.035-1.778 5.104-1.672 7.018 0.241zM25.249 20.003c1.406 0.042 2.728 0.671 3.651 1.735v0l9.849 9.849c1.756 2.008 1.651 5.036-0.238 6.925s-4.91 1.993-6.925 0.238v0l-9.849-9.849c-1.063-0.923-1.686-2.245-1.735-3.651s0.49-2.77 1.483-3.763c0.993-0.993 2.357-1.532 3.763-1.483zM79.995 0c3.378 0 6.169 2.119 6.61 4.87l0.061 0.765v15.398c0 3.112-2.986 5.635-6.671 5.635-1.764 0-3.464-0.598-4.714-1.653-1-0.844-1.647-1.932-1.865-3.096l-0.083-0.885v-15.398c0-3.112 2.986-5.634 6.662-5.634z"></path>
</svg>
