<!-- Generated by IcoMoon.io -->
<svg version="1.1" xmlns="http://www.w3.org/2000/svg" width="34" height="32" viewBox="0 0 34 32">
<title>linkedin</title>
<path d="M8.215 3.751c0-2.072-1.838-3.751-4.106-3.751-2.27 0-4.109 1.679-4.109 3.751 0 2.070 1.838 3.747 4.109 3.747 2.268 0 4.106-1.677 4.106-3.747zM0.941 31.603h7.368v-21.25h-7.368zM18.65 19.784c0-2.437 1.153-4.82 3.91-4.82s3.435 2.383 3.435 4.762v11.605h7.335v-12.080c0-8.393-4.961-9.839-8.013-9.839-3.049 0-4.731 1.031-6.667 3.531v-2.861h-7.356v21.25h7.356v-11.547z"></path>
</svg>
