<!-- Generated by IcoMoon.io -->
<svg version="1.1" xmlns="http://www.w3.org/2000/svg" width="28" height="32" viewBox="0 0 28 32">
<title>lock</title>
<path d="M6.957 20.248c0.686 0 1.242 0.556 1.242 1.242v0c0 0.686-0.556 1.242-1.242 1.242s-1.242-0.556-1.242-1.242v0c0-0.686 0.556-1.242 1.242-1.242zM10.373 21.491v0c0 0.686 0.556 1.242 1.242 1.242s1.242-0.556 1.242-1.242v0c0-0.686-0.556-1.242-1.242-1.242s-1.242 0.556-1.242 1.242zM15.031 21.491v0c0 0.686 0.556 1.242 1.242 1.242s1.242-0.556 1.242-1.242v0c0-0.686-0.556-1.242-1.242-1.242s-1.242 0.556-1.242 1.242zM19.752 21.491v0c0 0.686 0.556 1.242 1.242 1.242s1.242-0.556 1.242-1.242v0c0-0.686-0.556-1.242-1.242-1.242s-1.242 0.556-1.242 1.242zM25.342 21.242v-4.596c0-1.37-1.115-2.484-2.484-2.484h-17.888c-1.37 0-2.484 1.115-2.484 2.484v10.186c0 1.37 1.115 2.484 2.484 2.484h17.888c1.37 0 2.484-1.115 2.484-2.484 0-0.686 0.556-1.242 1.242-1.242s1.242 0.556 1.242 1.242c0 2.74-2.229 4.969-4.969 4.969h-17.888c-2.74 0-4.969-2.229-4.969-4.969v-10.186c0-2.74 2.229-4.969 4.969-4.969h1.488v-4.381c0-4.023 3.344-7.296 7.453-7.296s7.453 3.273 7.453 7.296v4.381h1.493c2.74 0 4.969 2.229 4.969 4.969v4.596c0 0.686-0.556 1.242-1.242 1.242s-1.242-0.556-1.242-1.242zM8.942 11.677h9.938v-4.381c0-2.653-2.229-4.812-4.969-4.812s-4.969 2.158-4.969 4.812v4.381z"></path>
</svg>
