<!-- Generated by IcoMoon.io -->
<svg version="1.1" xmlns="http://www.w3.org/2000/svg" width="32" height="32" viewBox="0 0 32 32">
<title>mail</title>
<path d="M3.987 3.281c-0.956 0.162-1.79 0.608-2.548 1.364-0.787 0.788-1.204 1.59-1.372 2.636-0.093 0.585-0.088 16.891 0.006 17.479 0.275 1.73 1.53 3.197 3.243 3.79l0.622 0.216h24.116l0.622-0.216c0.781-0.27 1.445-0.707 1.976-1.271l0.002-0.002c0.485-0.495 0.86-1.101 1.081-1.776l0.009-0.032 0.211-0.605 0.032-7.612c0.018-4.187 0.014-8.174-0.010-8.861-0.038-1.174-0.053-1.284-0.241-1.852-0.224-0.707-0.595-1.312-1.080-1.804l0.001 0.001c-0.633-0.672-1.283-1.065-2.284-1.387-0.288-0.093-1.492-0.104-12.186-0.114-6.635-0.006-12.013 0.014-12.202 0.046zM27.863 6.561c0.649 0.307 0.924 0.795 0.926 1.646l0.002 0.549-6.103 4.068c-5.188 3.457-6.147 4.073-6.397 4.11-0.694 0.106-0.401 0.277-6.985-4.11l-6.103-4.068 0.002-0.549c0.002-0.851 0.277-1.339 0.926-1.646l0.32-0.15h23.093l0.32 0.15zM8.321 16.005c2.727 1.817 5.116 3.392 5.309 3.501 0.681 0.392 1.497 0.623 2.367 0.623 0.597 0 1.169-0.109 1.696-0.308l-0.033 0.011c0.56-0.201 0.787-0.347 6.077-3.872l5.021-3.346 0.018 5.837c0.016 5.287 0.008 5.863-0.088 6.115-0.154 0.393-0.446 0.704-0.815 0.879l-0.010 0.004-0.32 0.149h-23.093l-0.32-0.15c-0.36-0.16-0.64-0.444-0.791-0.798l-0.004-0.010c-0.128-0.283-0.13-0.39-0.131-6.16-0.002-4.683 0.014-5.864 0.078-5.826 0.043 0.027 2.311 1.534 5.037 3.35z"></path>
</svg>
