<!-- Generated by IcoMoon.io -->
<svg version="1.1" xmlns="http://www.w3.org/2000/svg" width="32" height="32" viewBox="0 0 32 32">
<title>mail-solid</title>
<path d="M3.134 4.119c-0.358 0.092-0.669 0.207-0.964 0.351l0.030-0.013c-0.624 0.306-1.402 1.062-1.72 1.67-0.198 0.376-0.48 1.288-0.48 1.548 0 0.076 2.398 1.306 8 4.106l8 4 8-4c5.602-2.8 8-4.030 8-4.106 0-0.26-0.282-1.172-0.48-1.548-0.318-0.608-1.096-1.364-1.72-1.668-0.956-0.47-0.094-0.442-13.834-0.438-10.37 0.004-12.47 0.020-12.832 0.098zM0.014 18.499l0.020 6.216 0.182 0.534c0.412 1.244 1.391 2.198 2.622 2.569l0.028 0.007 0.5 0.156h25.268l0.5-0.156c1.259-0.378 2.238-1.332 2.642-2.548l0.008-0.028 0.182-0.534 0.020-6.216c0.010-3.42 0.002-6.218-0.018-6.218-0.018 0-3.62 1.794-8.002 3.984l-7.966 3.984-7.966-3.984c5.493 2.423 2.868 1.093 0.239-0.229l-8.241-3.755c-0.020 0-0.028 2.798-0.018 6.218z"></path>
</svg>
