<!-- Generated by IcoMoon.io -->
<svg version="1.1" xmlns="http://www.w3.org/2000/svg" width="32" height="32" viewBox="0 0 32 32">
<title>minus-circle</title>
<path d="M14.942 0.016c-1.633 0.164-2.658 0.369-3.944 0.793-3.743 1.236-6.771 3.673-8.798 7.077-1.061 1.786-1.808 3.976-2.111 6.199-0.107 0.786-0.107 3.062 0 3.847 0.612 4.487 2.833 8.291 6.387 10.947 2.14 1.6 4.779 2.655 7.6 3.039 0.786 0.107 3.062 0.107 3.847 0 5.067-0.693 9.327-3.483 11.877-7.788 1.063-1.794 1.807-3.979 2.11-6.199 0.107-0.785 0.107-3.062 0-3.847-0.693-5.067-3.483-9.327-7.788-11.877-1.749-1.036-3.852-1.767-5.975-2.074-0.632-0.091-2.708-0.168-3.206-0.119zM18.084 3.34c1.349 0.226 2.558 0.633 3.672 1.2l-0.072-0.033c1.266 0.614 2.369 1.419 3.447 2.512 1.908 1.938 3.038 4.139 3.54 6.906 0.167 0.911 0.167 3.257 0 4.168-0.338 1.868-0.968 3.474-1.935 4.942-1.722 2.613-4.48 4.615-7.404 5.372-1.27 0.329-1.795 0.39-3.331 0.39-1.533 0-2.062-0.061-3.323-0.388-2.946-0.761-5.633-2.709-7.409-5.369-0.951-1.422-1.598-3.076-1.938-4.947-0.167-0.911-0.167-3.257 0-4.168 0.372-2.044 1.090-3.777 2.22-5.354 2.074-2.888 5.257-4.866 8.913-5.313l0.062-0.006c0.713-0.088 2.874-0.034 3.559 0.088zM10.646 14.478c-0.386 0.093-0.7 0.345-0.875 0.68l-0.004 0.007c-0.117 0.239-0.146 0.406-0.146 0.843 0 0.893 0.327 1.367 1.056 1.534 0.394 0.090 10.25 0.090 10.644 0 0.71-0.162 1.055-0.652 1.056-1.502 0-0.609-0.090-0.898-0.369-1.185-0.43-0.441-0.099-0.417-5.882-0.43-3.116-0.005-5.33 0.014-5.482 0.051z"></path>
</svg>
