<!-- Generated by IcoMoon.io -->
<svg version="1.1" xmlns="http://www.w3.org/2000/svg" width="160" height="160" viewBox="0 0 160 160">
<title></title>
<g id="icomoon-ignore">
</g>
<path d="M75.669 0.009c-42.205 2.672-75.669 37.49-75.669 79.917 0 44.162 36.274 80.074 80.882 80.074 38.618 0 70.996-26.906 78.987-62.818 0.546-2.326-0.652-4.718-2.857-5.695-2.212-0.977-4.805-0.274-6.2 1.681-10.42 14.186-27.244 23.458-46.339 23.458-31.699 0-57.292-25.337-57.292-56.719 0-22.019 12.657-41.046 31.121-50.463 2.113-1.088 3.173-3.493 2.541-5.767-0.638-2.281-2.791-3.805-5.174-3.669l-0.001 0.001zM54.764 15.075c-10.92 11.86-17.693 27.552-17.693 44.833 0 36.792 30.238 66.728 67.402 66.728 13.777 0 26.598-4.157 37.282-11.208-12.302 20.637-34.872 34.563-60.872 34.563-39.144 0-70.772-31.312-70.772-70.065 0-29.559 18.556-54.542 44.654-64.852v0z"></path>
</svg>
