<!-- Generated by IcoMoon.io -->
<svg version="1.1" xmlns="http://www.w3.org/2000/svg" width="32" height="32" viewBox="0 0 32 32">
<title>phone</title>
<path d="M7.607 2.718l3.631 4.742c0.137 0.258 0.29 0.597 0.238 0.752-0.011 0.037-0.088 0.185-0.565 0.611-1.659 1.485-2.477 3.306-2.303 5.13 0.183 1.912 1.325 3.386 2.252 4.286l2.912 2.91c0.899 0.928 2.374 2.071 4.289 2.255 1.81 0.177 3.64-0.643 5.127-2.301 0.432-0.48 0.578-0.553 0.61-0.565 0.126-0.040 0.379 0.037 0.696 0.198l4.757 3.633c0.326 0.323 0.317 0.355 0.242 0.594-0.084 0.262-0.401 0.701-0.827 1.139-2.739 2.737-5.105 3.762-7.711 3.311-2.419-0.419-5.24-2.266-8.621-5.646l-4.089-4.089c-3.38-3.381-5.229-6.201-5.646-8.621-0.449-2.593 0.572-4.971 3.308-7.707 0.439-0.429 0.878-0.747 1.144-0.831 0.085-0.025 0.144-0.044 0.197-0.044 0.096 0 0.176 0.061 0.361 0.243zM30.985 22.565c-1.298-1.029-2.645-2.048-3.977-3.056l-1.233-0.927c-1.012-0.541-1.97-0.688-2.771-0.419-0.776 0.258-1.247 0.786-1.68 1.271-1.304 1.455-2.341 1.537-3.019 1.476-0.936-0.11-1.939-0.661-2.752-1.516l-2.934-2.934c-0.856-0.815-1.41-1.819-1.513-2.745-0.067-0.674 0.016-1.721 1.529-3.076 0.426-0.379 0.955-0.851 1.216-1.629 0.27-0.801 0.125-1.761-0.457-2.829l-0.858-1.134c-1.018-1.346-2.047-2.708-3.121-4.055-0.858-0.858-2.048-1.186-3.108-0.854-0.89 0.277-1.56 0.848-2.149 1.421-3.25 3.12-4.604 6.459-4.028 9.924 0.522 3.021 2.481 6.093 6.35 9.962l4.088 4.089c3.87 3.87 6.941 5.826 9.973 6.351 0.454 0.069 0.912 0.103 1.369 0.103 2.967 0 5.956-1.435 8.542-4.13 0.576-0.59 1.146-1.26 1.424-2.151 0.33-1.060 0.003-2.251-0.889-3.142z"></path>
</svg>
