<!-- Generated by IcoMoon.io -->
<svg version="1.1" xmlns="http://www.w3.org/2000/svg" width="32" height="32" viewBox="0 0 32 32">
<title>photo-camera</title>
<path d="M6.667 5.333h-4v-1.333h4v1.333zM17.333 13.333c-2.205 0-4 1.795-4 4s1.795 4 4 4 4-1.795 4-4-1.795-4-4-4zM32 6.667v22.667h-32v-22.667h7.907c0.892 0 1.724-0.445 2.219-1.188l1.875-2.812h10.667l1.875 2.812c0.495 0.743 1.327 1.188 2.219 1.188h5.24zM6.667 12c0-0.736-0.596-1.333-1.333-1.333s-1.333 0.597-1.333 1.333 0.596 1.333 1.333 1.333 1.333-0.597 1.333-1.333zM24 17.333c0-3.681-2.985-6.667-6.667-6.667s-6.667 2.985-6.667 6.667 2.985 6.667 6.667 6.667 6.667-2.985 6.667-6.667z"></path>
</svg>
