<!-- Generated by IcoMoon.io -->
<svg version="1.1" xmlns="http://www.w3.org/2000/svg" width="32" height="32" viewBox="0 0 32 32">
<title>picture</title>
<path d="M10.286 10.286q0 1.429-1 2.429t-2.429 1-2.429-1-1-2.429 1-2.429 2.429-1 2.429 1 1 2.429zM28.571 17.143v8h-25.143v-3.429l5.714-5.714 2.857 2.857 9.143-9.143zM30.286 4.571h-28.571q-0.232 0-0.402 0.17t-0.17 0.402v21.714q0 0.232 0.17 0.402t0.402 0.17h28.571q0.232 0 0.402-0.17t0.17-0.402v-21.714q0-0.232-0.17-0.402t-0.402-0.17zM33.143 5.143v21.714q0 1.179-0.839 2.018t-2.018 0.839h-28.571q-1.179 0-2.018-0.839t-0.839-2.018v-21.714q0-1.179 0.839-2.018t2.018-0.839h28.571q1.179 0 2.018 0.839t0.839 2.018z"></path>
</svg>
