<!-- Generated by IcoMoon.io -->
<svg version="1.1" xmlns="http://www.w3.org/2000/svg" width="32" height="32" viewBox="0 0 32 32">
<title>plus</title>
<path d="M15.309 0.095c-0.429 0.134-0.66 0.313-0.874 0.676l-0.192 0.328-0.039 13.133-13.065 0.039-0.354 0.182c-0.239 0.12-0.433 0.301-0.564 0.522l-0.003 0.006c-0.199 0.322-0.214 0.395-0.214 1.029 0 0.618 0.020 0.714 0.198 1.018 0.133 0.221 0.313 0.401 0.527 0.53l0.007 0.004 0.336 0.198 13.133 0.039 0.039 13.133 0.198 0.336c0.133 0.221 0.313 0.401 0.527 0.53l0.007 0.004c0.304 0.178 0.4 0.198 1.018 0.198 0.634 0 0.707-0.014 1.029-0.214 0.228-0.135 0.409-0.329 0.525-0.56l0.004-0.008 0.182-0.354 0.039-13.065 13.144-0.039 0.347-0.214c0.44-0.272 0.676-0.707 0.726-1.337 0.050-0.612-0.117-1.182-0.445-1.508-0.479-0.481-0.267-0.466-7.38-0.466h-6.396v-6.396c0-7.111 0.012-6.901-0.465-7.38-0.417-0.417-1.308-0.58-1.994-0.365z"></path>
</svg>
