<!-- Generated by IcoMoon.io -->
<svg version="1.1" xmlns="http://www.w3.org/2000/svg" width="32" height="32" viewBox="0 0 32 32">
<title>question-mark-circle</title>
<path d="M14.942 0.016c-1.633 0.164-2.658 0.369-3.944 0.793-3.743 1.236-6.771 3.673-8.798 7.077-1.061 1.786-1.808 3.976-2.111 6.199-0.107 0.786-0.107 3.062 0 3.847 0.612 4.487 2.833 8.291 6.387 10.947 2.14 1.6 4.779 2.655 7.6 3.039 0.786 0.107 3.062 0.107 3.847 0 5.067-0.693 9.327-3.483 11.877-7.788 1.063-1.794 1.807-3.979 2.11-6.199 0.107-0.785 0.107-3.062 0-3.847-0.693-5.067-3.483-9.327-7.788-11.877-1.749-1.036-3.852-1.767-5.975-2.074-0.632-0.091-2.708-0.168-3.206-0.119zM18.084 3.34c1.349 0.226 2.558 0.633 3.672 1.2l-0.072-0.033c1.266 0.614 2.369 1.419 3.447 2.512 1.908 1.938 3.038 4.139 3.54 6.906 0.167 0.911 0.167 3.257 0 4.168-0.338 1.868-0.968 3.474-1.935 4.942-1.722 2.613-4.48 4.615-7.404 5.372-1.27 0.329-1.795 0.39-3.331 0.39-1.533 0-2.062-0.061-3.323-0.388-2.946-0.761-5.633-2.709-7.409-5.369-0.951-1.422-1.598-3.076-1.938-4.947-0.167-0.911-0.167-3.257 0-4.168 0.372-2.044 1.090-3.777 2.22-5.354 2.074-2.888 5.257-4.866 8.913-5.313l0.062-0.006c0.713-0.088 2.874-0.034 3.559 0.088zM15.102 6.436c-2.788 0.22-5.447 1.821-6.484 3.903-0.487 0.978-0.388 1.608 0.329 2.094 0.481 0.327 1.106 0.489 1.467 0.38 0.372-0.111 0.673-0.398 0.979-0.931 0.827-1.438 2.534-2.284 4.607-2.284 2.070 0.002 3.878 0.886 4.594 2.249 0.16 0.308 0.181 0.415 0.183 0.928 0 0.535-0.018 0.614-0.221 1.016-0.295 0.582-0.967 1.205-1.688 1.565-0.387 0.181-0.85 0.351-1.329 0.483l-0.064 0.015c-0.487 0.127-0.903 0.275-1.302 0.454l0.052-0.021c-0.502 0.26-1.228 0.989-1.459 1.467-0.537 1.109-0.444 2.352 0.207 2.783 0.531 0.351 1.541 0.349 2.049-0.003 0.309-0.215 0.446-0.463 0.542-0.983 0.090-0.491-0.040-0.409 1.186-0.749 1.452-0.402 2.581-1.060 3.568-2.079 0.571-0.59 0.829-0.957 1.153-1.643 0.331-0.665 0.525-1.449 0.525-2.279 0-0.59-0.098-1.158-0.279-1.687l0.011 0.037c-0.446-1.403-1.666-2.778-3.238-3.652-1.448-0.805-3.507-1.21-5.386-1.063zM15.455 22.494c-0.386 0.094-0.7 0.345-0.875 0.68l-0.004 0.007c-0.117 0.239-0.146 0.406-0.146 0.843 0 0.957 0.353 1.409 1.212 1.557 0.787 0.135 1.496-0.133 1.781-0.675 0.207-0.393 0.208-1.367 0.003-1.759-0.311-0.588-1.113-0.854-1.972-0.654z"></path>
</svg>
