<!-- Generated by IcoMoon.io -->
<svg version="1.1" xmlns="http://www.w3.org/2000/svg" width="32" height="32" viewBox="0 0 32 32">
<title>question-mark-circle-solid</title>
<path d="M14.866 0.018l-0.853 0.1c-3.84 0.447-7.698 2.514-10.148 5.435-2.059 2.454-3.251 5.066-3.732 8.183-0.166 1.072-0.166 3.468 0 4.539 1.102 7.128 6.472 12.498 13.6 13.6 1.072 0.166 3.468 0.166 4.539 0 3.13-0.483 5.893-1.79 8.137-3.69l-0.024 0.020c2.532-2.135 4.395-5.164 5.198-8.462 0.321-1.318 0.409-2.115 0.409-3.738 0-1.108-0.032-1.705-0.12-2.27-0.779-5.046-3.7-9.279-8.093-11.729-1.59-0.902-3.446-1.555-5.419-1.848l-0.088-0.011c-0.667-0.102-2.911-0.186-3.405-0.13zM17.505 6.188c2.11 0.573 3.739 2.2 4.305 4.266l0.010 0.043c0.188 0.701 0.208 2.171 0.038 2.861-0.452 1.828-1.683 3.302-3.31 4.077l-0.037 0.016-0.487 0.232-0.034 0.431c-0.044 0.81-0.566 1.488-1.286 1.76l-0.014 0.005c-0.205 0.079-0.443 0.124-0.691 0.124-0.777 0-1.449-0.447-1.774-1.098l-0.005-0.012-0.186-0.383v-1.502c0-1.386 0.010-1.526 0.14-1.807 0.335-0.723 0.911-1.102 1.819-1.194 0.96-0.096 1.587-0.537 1.879-1.32 0.567-1.512-0.861-3.051-2.412-2.6-0.495 0.144-0.863 0.425-1.194 0.911-0.158 0.231-0.34 0.43-0.546 0.601l-0.005 0.004c-1.020 0.739-2.496 0.353-3.001-0.785-0.309-0.699-0.218-1.354 0.296-2.143 0.931-1.372 2.379-2.335 4.057-2.609l0.035-0.005c0.593-0.094 1.785-0.030 2.402 0.128zM16.9 22.244c0.697 0.341 1.070 0.958 1.072 1.775 0 0.415-0.032 0.565-0.186 0.883-0.227 0.456-0.612 0.805-1.082 0.981l-0.014 0.004c-1.472 0.551-2.993-0.795-2.626-2.326 0.214-0.886 0.999-1.533 1.936-1.533 0.328 0 0.638 0.080 0.911 0.221l-0.011-0.005z"></path>
</svg>
