<!-- Generated by IcoMoon.io -->
<svg version="1.1" xmlns="http://www.w3.org/2000/svg" width="32" height="32" viewBox="0 0 32 32">
<title>search</title>
<path d="M11.487 0.060c-4.467 0.481-8.208 3.191-10.127 6.98l-0.034 0.073c-0.835 1.649-1.324 3.596-1.324 5.656 0 2.888 0.961 5.552 2.58 7.689l-0.023-0.032c2.197 2.938 5.527 4.761 9.262 5.066 2.903 0.238 6.019-0.636 8.384-2.353l0.382-0.276 4.443 4.433c3.342 3.332 4.516 4.465 4.737 4.569 0.575 0.272 1.125 0.134 1.677-0.417 0.551-0.553 0.688-1.102 0.417-1.677-0.104-0.22-1.236-1.395-4.569-4.737l-4.433-4.443 0.276-0.382c1.717-2.364 2.591-5.481 2.353-8.384-0.343-4.195-2.601-7.858-6.174-10.018-2.265-1.367-5.181-2.018-7.828-1.748zM14.093 3.279c2.778 0.395 5.13 1.89 6.697 4.259 1.024 1.546 1.559 3.342 1.559 5.23 0 3.251-1.602 6.205-4.353 8.024-1.459 0.977-3.255 1.559-5.186 1.559-0.015 0-0.031-0-0.046-0h0.002c-3.253 0-6.203-1.602-8.024-4.353-0.977-1.459-1.559-3.255-1.559-5.186 0-0.015 0-0.031 0-0.046v0.002c0-3.253 1.602-6.203 4.353-8.024 1.47-0.978 3.276-1.56 5.218-1.56 0.473 0 0.937 0.035 1.392 0.101l-0.052-0.006z"></path>
</svg>
