<!-- Generated by IcoMoon.io -->
<svg version="1.1" xmlns="http://www.w3.org/2000/svg" width="32" height="32" viewBox="0 0 32 32">
<title>trash</title>
<path d="M12.188 0.062c-1.131 0.237-2.033 1.035-2.415 2.082l-0.007 0.023c-0.122 0.328-0.136 0.525-0.159 2.297l-0.024 1.938-3.311 0.002c-2.030 0.002-3.423 0.027-3.599 0.067-0.4 0.083-0.727 0.339-0.906 0.683l-0.003 0.007c-0.117 0.239-0.146 0.405-0.146 0.843 0 0.972 0.357 1.419 1.246 1.559 0.248 0.040 0.45 0.096 0.45 0.127 0 0.61 1.309 18.163 1.382 18.53 0.341 1.719 1.663 3.135 3.391 3.633l0.513 0.147h14.801l0.513-0.147c1.764-0.516 3.091-1.965 3.422-3.764l0.005-0.030c0.046-0.256 1.347-17.992 1.347-18.37 0-0.030 0.203-0.086 0.45-0.127 0.87-0.136 1.245-0.594 1.246-1.527 0-0.609-0.090-0.897-0.368-1.184-0.418-0.429-0.292-0.416-4.131-0.437l-3.476-0.018v-1.749c0-1.528-0.016-1.812-0.125-2.241-0.134-0.578-0.428-1.073-0.833-1.451l-0.002-0.001c-0.38-0.407-0.875-0.701-1.434-0.831l-0.019-0.004c-0.461-0.117-0.711-0.125-4.021-0.119-1.941 0.005-3.646 0.032-3.787 0.061zM19.204 4.801v1.602h-6.407v-3.204h6.407v1.602zM25.481 9.782c-0.002 0.098-0.285 4.144-0.633 8.993-0.705 9.831-0.622 9.14-1.176 9.648-0.154 0.143-0.337 0.258-0.538 0.334l-0.011 0.004c-0.179 0.048-2.396 0.064-7.263 0.053-7.777-0.019-7.151 0.018-7.607-0.445-0.477-0.484-0.4 0.184-1.1-9.59-0.349-4.886-0.636-8.95-0.636-9.028v-0.144h18.966l-0.002 0.176zM12.252 12.879c-0.385 0.096-0.699 0.348-0.876 0.683l-0.004 0.007-0.146 0.298v10.7l0.152 0.309c0.191 0.386 0.506 0.601 1.024 0.697 0.806 0.151 1.535-0.135 1.818-0.708l0.146-0.298v-5.318c0-4.142-0.018-5.369-0.082-5.547-0.143-0.329-0.392-0.589-0.703-0.743l-0.009-0.004c-0.28-0.117-0.993-0.159-1.322-0.077zM18.659 12.879c-0.385 0.096-0.699 0.348-0.876 0.683l-0.004 0.007-0.146 0.298v10.7l0.152 0.309c0.191 0.386 0.506 0.601 1.024 0.697 0.806 0.151 1.535-0.135 1.818-0.708l0.146-0.298v-5.318c0-4.142-0.018-5.369-0.082-5.547-0.143-0.329-0.392-0.589-0.703-0.743l-0.009-0.004c-0.28-0.117-0.993-0.159-1.322-0.077z"></path>
</svg>
