<!-- Generated by IcoMoon.io -->
<svg version="1.1" xmlns="http://www.w3.org/2000/svg" width="39" height="32" viewBox="0 0 39 32">
<title>twitter</title>
<path d="M32.751 2.475c-1.46-1.523-3.515-2.475-5.794-2.475-4.427 0-8.016 3.59-8.016 8.014 0 0.615 0.071 1.214 0.203 1.79-6.006-0.158-12.573-3.167-16.527-8.318-2.431 4.207-0.327 8.887 2.431 10.592-0.944 0.071-2.682-0.109-3.501-0.907-0.055 2.793 1.288 6.493 6.184 7.835-0.943 0.507-2.612 0.362-3.338 0.254 0.255 2.357 3.556 5.439 7.166 5.439-1.287 1.488-6.127 4.188-11.56 3.329 3.689 2.245 7.989 3.545 12.54 3.545 12.933 0 22.977-10.482 22.436-23.412-0.002-0.077 0-0.111 0-0.145 0-0.040-0.003-0.078-0.005-0.117 1.177-0.805 2.757-2.23 3.886-4.104-0.655 0.361-2.618 1.082-4.445 1.262 1.173-0.633 2.91-2.706 3.339-4.354-1.129 0.723-3.721 1.774-5 1.774z"></path>
</svg>
