<!-- Generated by IcoMoon.io -->
<svg version="1.1" xmlns="http://www.w3.org/2000/svg" width="32" height="32" viewBox="0 0 32 32">
<title>upload</title>
<path d="M15.293 0.151c-0.224 0.090-0.415 0.214-0.578 0.368l0.001-0.001c-0.112 0.123-1.819 1.852-3.79 3.845-2.627 2.655-3.627 3.71-3.739 3.948-0.304 0.638-0.151 1.25 0.462 1.865 0.616 0.615 1.227 0.765 1.865 0.462 0.229-0.11 0.966-0.79 2.508-2.321l2.183-2.165 0.020 8.802 0.020 8.804 0.169 0.343c0.211 0.428 0.561 0.666 1.135 0.773 0.893 0.167 1.701-0.149 2.016-0.785l0.162-0.33 0.020-8.804 0.020-8.802 2.183 2.165c1.542 1.531 2.279 2.211 2.508 2.321 0.638 0.304 1.249 0.153 1.865-0.462 0.613-0.615 0.765-1.227 0.462-1.865-0.112-0.238-1.101-1.282-3.712-3.916-1.213-1.219-2.447-2.472-3.677-3.729l-0.112-0.114c-0.274-0.3-0.895-0.559-1.321-0.552-0.244 0.018-0.47 0.072-0.681 0.156l0.015-0.005zM1.171 21.455c-0.427 0.107-0.775 0.386-0.971 0.757l-0.004 0.008c-0.155 0.318-0.162 0.396-0.155 2.035 0.005 1.597 0.018 1.749 0.188 2.389 0.332 1.295 0.987 2.407 1.875 3.283l0.001 0.001c0.924 0.924 1.954 1.515 3.284 1.883l0.684 0.188h19.821l0.684-0.188c2.16-0.597 3.822-1.982 4.724-3.938 0.469-1.016 0.606-1.723 0.646-3.371 0.041-1.575-0.016-2.071-0.279-2.456-0.355-0.517-1.115-0.76-1.915-0.611-0.556 0.103-0.932 0.362-1.14 0.785-0.147 0.302-0.165 0.464-0.206 1.929-0.025 0.879-0.078 1.701-0.121 1.826-0.375 1.149-1.499 2.188-2.629 2.428-0.533 0.114-18.819 0.114-19.352 0-1.13-0.24-2.254-1.279-2.629-2.428-0.043-0.124-0.098-0.947-0.124-1.826-0.051-1.732-0.091-1.918-0.472-2.302-0.127-0.121-0.275-0.223-0.436-0.301l-0.010-0.004c-0.311-0.131-1.101-0.178-1.465-0.087z"></path>
</svg>
