<!-- Generated by IcoMoon.io -->
<svg version="1.1" xmlns="http://www.w3.org/2000/svg" width="32" height="32" viewBox="0 0 32 32">
<title>user-circle</title>
<path d="M14.942 0.016c-1.633 0.164-2.658 0.369-3.944 0.793-3.743 1.236-6.771 3.673-8.798 7.077-1.061 1.786-1.808 3.976-2.111 6.199-0.107 0.786-0.107 3.062 0 3.847 0.693 5.070 3.482 9.325 7.788 11.877 1.794 1.063 3.979 1.807 6.199 2.11 0.786 0.107 3.062 0.107 3.847 0 5.066-0.691 9.335-3.49 11.877-7.788 1.064-1.797 1.807-3.98 2.11-6.199 0.107-0.785 0.107-3.062 0-3.847-0.693-5.067-3.483-9.327-7.788-11.877-1.749-1.036-3.852-1.767-5.975-2.074-0.632-0.091-2.708-0.168-3.206-0.119zM18.084 3.34c1.349 0.226 2.558 0.633 3.672 1.2l-0.072-0.033c1.266 0.614 2.369 1.419 3.447 2.512 1.908 1.938 3.038 4.139 3.54 6.906 0.167 0.911 0.167 3.257 0 4.168-0.224 1.313-0.614 2.489-1.153 3.578l0.034-0.075c-0.207 0.433-0.845 1.547-0.943 1.651-0.013 0.013-0.45-0.163-0.971-0.394-3.091-1.361-6.138-1.989-9.637-1.989-3.509 0-6.529 0.624-9.641 1.993-0.776 0.34-0.963 0.401-1.013 0.329-2.042-3.036-2.679-6.874-1.744-10.51 0.345-1.34 1.085-2.9 1.948-4.104 2.074-2.888 5.257-4.866 8.913-5.313l0.062-0.006c0.713-0.088 2.874-0.034 3.559 0.088zM15.182 6.455c-2.226 0.314-4.065 1.721-4.977 3.652l-0.017 0.039c-0.406 0.877-0.555 1.589-0.555 2.656 0 0.792 0.026 1.021 0.164 1.547 0.508 1.92 1.778 3.447 3.546 4.264 0.877 0.406 1.589 0.555 2.656 0.555 0.792 0 1.021-0.026 1.547-0.163 1.92-0.508 3.447-1.778 4.264-3.546 0.406-0.877 0.555-1.589 0.555-2.656 0-0.792-0.026-1.021-0.163-1.547-0.508-1.92-1.778-3.447-3.546-4.264-0.994-0.458-2.44-0.683-3.474-0.537zM16.718 9.669c1.114 0.237 2.185 1.306 2.417 2.416 0.043 0.215 0.067 0.461 0.067 0.714 0 0.256-0.025 0.505-0.073 0.747l0.004-0.024c-0.237 1.114-1.306 2.185-2.416 2.417-0.211 0.050-0.452 0.078-0.701 0.078-0.91 0-1.731-0.381-2.312-0.992l-0.001-0.001c-1.226-1.278-1.228-3.163-0.002-4.439 0.582-0.613 1.403-0.994 2.313-0.994 0.249 0 0.491 0.029 0.724 0.083l-0.022-0.004zM18.020 24.119c1.454 0.143 2.639 0.37 3.911 0.749 0.686 0.205 1.935 0.656 2.231 0.805l0.181 0.090-0.406 0.324c-1.289 1.031-3.051 1.919-4.607 2.321-1.27 0.329-1.795 0.39-3.331 0.39s-2.062-0.061-3.331-0.39c-1.579-0.409-3.485-1.377-4.703-2.389l-0.308-0.256 0.18-0.090c0.297-0.149 1.547-0.6 2.231-0.805 1.781-0.535 3.829-0.843 5.948-0.843 0.705 0 1.403 0.034 2.091 0.101l-0.087-0.007z"></path>
</svg>
