<!-- Generated by IcoMoon.io -->
<svg version="1.1" xmlns="http://www.w3.org/2000/svg" width="32" height="32" viewBox="0 0 32 32">
<title>user</title>
<path d="M15.103 0.049c-1.869 0.213-3.511 1.051-4.742 2.297l-0.001 0.001c-1.358 1.358-2.104 2.945-2.309 4.919-0.146 1.406 0.155 3.014 0.814 4.329 0.509 1.015 1.554 2.234 2.471 2.881 1.295 0.934 2.913 1.494 4.663 1.494s3.37-0.56 4.689-1.512l-0.024 0.016c0.69-0.534 1.29-1.134 1.807-1.801l0.017-0.023c0.935-1.296 1.495-2.916 1.495-4.667 0-1.025-0.192-2.004-0.541-2.905l0.019 0.055c-0.774-2.069-2.532-3.825-4.617-4.611-0.847-0.33-1.827-0.522-2.852-0.522-0.313 0-0.622 0.018-0.925 0.053l0.037-0.003zM17.012 3.28c0.617 0.123 1.518 0.559 2.024 0.979 1.731 1.438 2.261 3.829 1.289 5.811-1.184 2.409-4.033 3.408-6.408 2.245-1.626-0.794-2.725-2.435-2.725-4.334 0-1.173 0.42-2.247 1.117-3.082l-0.006 0.008c0.642-0.775 1.728-1.443 2.643-1.624 0.313-0.058 0.674-0.091 1.042-0.091 0.362 0 0.716 0.032 1.060 0.093l-0.036-0.005zM14.719 17.668c-1.773 0.183-3.796 0.854-5.285 1.752-3.58 2.164-5.841 5.827-6.192 10.039-0.123 1.472 0.045 2.048 0.694 2.367l0.309 0.152 11.564 0.018c7.978 0.011 11.663-0.003 11.884-0.051 0.945-0.2 1.217-0.855 1.063-2.561-0.376-4.179-2.636-7.817-6.189-9.964-2.271-1.371-5.194-2.023-7.848-1.752zM17.331 20.896c1.477 0.195 2.803 0.716 3.945 1.489l-0.032-0.020c1.75 1.154 3.084 2.816 3.803 4.774l0.022 0.067c0.131 0.36 0.412 1.414 0.413 1.554 0 0.027-4.267 0.048-9.482 0.048s-9.482-0.021-9.482-0.048c0.002-0.139 0.282-1.193 0.413-1.554 0.741-2.025 2.074-3.687 3.788-4.819l0.036-0.023c1.474-0.98 3.284-1.564 5.231-1.564 0.474 0 0.94 0.035 1.395 0.101l-0.052-0.006z"></path>
</svg>
