<!-- Generated by IcoMoon.io -->
<svg version="1.1" xmlns="http://www.w3.org/2000/svg" width="32" height="32" viewBox="0 0 32 32">
<title>whatsapp</title>
<path d="M27.215 4.65c-2.995-2.997-6.977-4.649-11.221-4.65-8.743 0-15.858 7.113-15.862 15.856-0.001 2.795 0.729 5.523 2.117 7.927l-2.25 8.217 8.409-2.205c2.317 1.263 4.925 1.929 7.58 1.93h0.006c0.001 0-0.001 0 0 0 8.742 0 15.858-7.114 15.862-15.857 0.002-4.237-1.647-8.221-4.641-11.218v0zM15.995 29.047h-0.005c-2.366-0.001-4.686-0.636-6.71-1.837l-0.481-0.286-4.99 1.308 1.332-4.863-0.314-0.499c-1.32-2.098-2.017-4.524-2.016-7.014 0.003-7.267 5.917-13.179 13.189-13.179 3.521 0.001 6.832 1.374 9.321 3.865s3.859 5.803 3.858 9.324c-0.003 7.267-5.917 13.18-13.184 13.18v0zM20.518 17.887c-0.363-0.132-0.627-0.198-0.892 0.198s-1.024 1.289-1.255 1.553c-0.231 0.264-0.462 0.298-0.859 0.099s-1.673-0.617-3.187-1.966c-1.178-1.050-1.974-2.348-2.205-2.745s-0.025-0.611 0.174-0.809c0.178-0.178 0.396-0.463 0.595-0.694s0.264-0.397 0.396-0.661 0.066-0.496-0.033-0.694c-0.099-0.198-0.892-2.149-1.222-2.942-0.322-0.773-0.649-0.668-0.892-0.68-0.231-0.011-0.495-0.014-0.76-0.014s-0.694 0.099-1.057 0.496c-0.363 0.397-1.387 1.355-1.387 3.305s1.42 3.834 1.618 4.099c0.198 0.264 2.795 4.266 6.77 5.983 0.946 0.408 1.684 0.652 2.259 0.835 0.949 0.301 1.813 0.259 2.496 0.157 0.761-0.114 2.345-0.958 2.675-1.884s0.33-1.719 0.231-1.884-0.363-0.264-0.76-0.463c-0.396-0.198-2.345-1.157-2.708-1.289z"></path>
</svg>
