<!-- Generated by IcoMoon.io -->
<svg version="1.1" xmlns="http://www.w3.org/2000/svg" width="32" height="32" viewBox="0 0 32 32">
<title>x-solid</title>
<path d="M1.802 0.142c-1.056 0.358-1.802 1.34-1.802 2.497 0 0.347 0.067 0.678 0.189 0.981l-0.006-0.018c0.176 0.488 0.496 0.824 6.113 6.451l5.923 5.936-5.923 5.936c-5.616 5.627-5.936 5.963-6.113 6.451-0.113 0.283-0.179 0.61-0.179 0.953 0 0.733 0.3 1.396 0.784 1.872l0 0c0.477 0.485 1.139 0.785 1.872 0.785 0.343 0 0.671-0.066 0.971-0.185l-0.018 0.006c0.488-0.176 0.824-0.496 6.451-6.113l5.936-5.923 5.936 5.923c5.627 5.616 5.963 5.936 6.451 6.113 0.283 0.113 0.61 0.179 0.953 0.179 0.733 0 1.396-0.3 1.872-0.784l0-0c0.485-0.477 0.785-1.139 0.785-1.872 0-0.343-0.066-0.671-0.185-0.971l0.006 0.018c-0.176-0.488-0.496-0.824-6.113-6.451l-5.923-5.936 5.923-5.936c5.616-5.627 5.936-5.963 6.113-6.451 0.113-0.283 0.178-0.611 0.178-0.954 0-1.036-0.597-1.933-1.465-2.366l-0.015-0.007c-0.29-0.159-0.635-0.252-1.002-0.252-0.045 0-0.090 0.001-0.135 0.004l0.006-0c-1.241 0-0.846-0.334-7.449 6.257l-5.936 5.923-5.891-5.886c-4.864-4.859-5.968-5.92-6.331-6.081-0.331-0.145-0.716-0.23-1.122-0.23-0.305 0-0.6 0.048-0.875 0.137l0.020-0.006z"></path>
</svg>
