<!-- Generated by IcoMoon.io -->
<svg version="1.1" xmlns="http://www.w3.org/2000/svg" width="32" height="32" viewBox="0 0 32 32">
<title>x</title>
<path d="M1.579 0.181c-0.584 0.345-1.058 0.821-1.39 1.389l-0.010 0.018c-0.11 0.228-0.174 0.496-0.174 0.778 0 0.294 0.069 0.571 0.192 0.817l-0.005-0.011c0.148 0.314 1.734 1.959 6.385 6.622l6.19 6.206-6.19 6.206c-4.651 4.662-6.238 6.308-6.385 6.622-0.386 0.818-0.191 1.6 0.593 2.387 0.787 0.784 1.568 0.98 2.387 0.593 0.314-0.148 1.96-1.734 6.622-6.385l6.206-6.19 6.206 6.19c4.662 4.651 6.308 6.238 6.622 6.385 0.818 0.386 1.6 0.191 2.387-0.593 0.784-0.787 0.98-1.569 0.593-2.387-0.148-0.314-1.734-1.959-6.385-6.622l-6.19-6.206 6.19-6.206c4.651-4.662 6.238-6.308 6.385-6.622 0.386-0.818 0.191-1.6-0.593-2.387-0.787-0.784-1.569-0.98-2.387-0.593-0.314 0.148-1.959 1.734-6.622 6.385l-6.206 6.19-6.206-6.19c-4.662-4.651-6.308-6.238-6.622-6.385-0.236-0.118-0.514-0.187-0.809-0.187-0.285 0-0.555 0.065-0.796 0.18l0.011-0.005z"></path>
</svg>
