<!-- Generated by IcoMoon.io -->
<svg version="1.1" xmlns="http://www.w3.org/2000/svg" width="45" height="32" viewBox="0 0 45 32">
<title>youtube</title>
<path d="M17.95 21.901l-0.001-12.783 12.224 6.414-12.222 6.37zM44.789 6.903c0 0-0.443-3.135-1.798-4.516-1.721-1.813-3.649-1.821-4.533-1.927-6.331-0.461-15.827-0.461-15.827-0.461h-0.020c0 0-9.496 0-15.827 0.461-0.885 0.105-2.812 0.114-4.534 1.927-1.356 1.381-1.797 4.516-1.797 4.516s-0.452 3.682-0.452 7.363v3.452c0 3.682 0.452 7.363 0.452 7.363s0.441 3.135 1.797 4.516c1.722 1.813 3.983 1.756 4.989 1.945 3.619 0.35 15.382 0.458 15.382 0.458s9.506-0.014 15.837-0.475c0.884-0.107 2.812-0.115 4.533-1.928 1.356-1.381 1.798-4.516 1.798-4.516s0.452-3.681 0.452-7.363v-3.452c0-3.681-0.452-7.363-0.452-7.363v0z"></path>
</svg>
