<svg width="375" height="1144" viewBox="0 0 375 1144" fill="none" xmlns="http://www.w3.org/2000/svg">
<g clip-path="url(#clip0_2210_57978)">
<g clip-path="url(#clip1_2210_57978)">
<g opacity="0.2">
<path d="M59.9992 214.15L115.027 186.146C127.81 179.223 135.046 170.465 134.185 157.414C133.944 153.814 131.876 149.834 129.223 145.68C126.398 155.961 121.574 159.388 115.061 163.022L59.9992 193.069C47.2157 200.027 42.2539 203.142 42.2539 216.227C42.2539 221.627 46.3543 227.027 47.9048 230.073C50.7303 219.792 53.4868 217.75 59.9992 214.15Z" fill="url(#paint0_linear_2210_57978)"/>
<path d="M-67.0008 509.528L-11.9732 481.524C0.810266 474.6 8.04621 465.843 7.18479 452.792C6.94359 449.192 4.87618 445.212 2.223 441.058C-0.602459 451.339 -5.42642 454.766 -11.9388 458.4L-67.0008 488.447C-79.7843 495.405 -84.7461 498.52 -84.7461 511.605C-84.7461 517.005 -80.6457 522.405 -79.0952 525.451C-76.2697 515.17 -73.5132 513.128 -67.0008 509.528Z" fill="url(#paint1_linear_2210_57978)"/>
<path d="M82.9992 244.291L138.027 216.286C150.81 209.363 158.046 200.605 157.185 187.555C156.944 183.955 154.876 179.974 152.223 175.82C149.398 186.101 144.574 189.528 138.061 193.163L82.9992 223.21C70.2157 230.167 65.2539 233.283 65.2539 246.368C65.2539 251.768 69.3543 257.168 70.9048 260.214C73.7303 249.933 76.4868 247.891 82.9992 244.291Z" fill="url(#paint2_linear_2210_57978)"/>
<path d="M-44.0008 539.669L11.0268 511.664C23.8103 504.741 31.0462 495.983 30.1848 482.933C29.9436 479.333 27.8762 475.352 25.223 471.198C22.3975 481.479 17.5736 484.906 11.0612 488.541L-44.0008 518.587C-56.7843 525.545 -61.7461 528.661 -61.7461 541.746C-61.7461 547.146 -57.6457 552.546 -56.0952 555.592C-53.2697 545.311 -50.5132 543.269 -44.0008 539.669Z" fill="url(#paint3_linear_2210_57978)"/>
<path d="M144.107 323.893L140.732 262.012C140.308 247.428 144.24 236.753 155.919 230.977C159.143 229.387 163.608 229.196 168.515 229.427C161.066 237.026 160.524 242.937 160.647 250.42L162.279 313.352C162.673 327.954 162.468 333.829 151.189 340.371C146.534 343.071 139.829 342.204 136.428 342.378C143.878 334.779 144.26 331.359 144.107 323.893Z" fill="url(#paint4_linear_2210_57978)"/>
<path d="M17.1069 619.271L13.7324 557.39C13.3084 542.806 17.2395 532.131 28.9193 526.355C32.1431 524.765 36.6082 524.574 41.5155 524.805C34.0662 532.404 33.5241 538.315 33.6473 545.798L35.2785 608.73C35.6727 623.332 35.4682 629.207 24.1892 635.749C19.5344 638.449 12.8295 637.581 9.42839 637.755C16.8777 630.157 17.2599 626.737 17.1069 619.271Z" fill="url(#paint5_linear_2210_57978)"/>
<path d="M108.107 333.94L104.732 272.059C104.308 257.475 108.24 246.8 119.919 241.024C123.143 239.434 127.608 239.242 132.515 239.474C125.066 247.073 124.524 252.984 124.647 260.467L126.279 323.399C126.673 338.001 126.468 343.876 115.189 350.418C110.534 353.118 103.829 352.25 100.428 352.424C107.878 344.826 108.26 341.406 108.107 333.94Z" fill="url(#paint6_linear_2210_57978)"/>
<path d="M-18.8931 629.318L-22.2676 567.437C-22.6916 552.853 -18.7605 542.178 -7.08067 536.402C-3.85688 534.812 0.608249 534.62 5.51545 534.852C-1.93384 542.451 -2.47586 548.362 -2.35273 555.845L-0.721473 618.777C-0.327256 633.379 -0.53183 639.254 -11.8108 645.796C-16.4656 648.496 -23.1705 647.628 -26.5716 647.802C-19.1223 640.204 -18.7401 636.784 -18.8931 629.318Z" fill="url(#paint7_linear_2210_57978)"/>
<path d="M67.5086 285.483L12.481 257.478C-0.302456 250.555 -7.5384 241.797 -6.67698 228.747C-6.43578 225.147 -4.36837 221.166 -1.71519 217.012C1.11027 227.293 5.93423 230.72 12.4466 234.355L67.5086 264.401C80.2921 271.359 85.2539 274.475 85.2539 287.559C85.2539 292.96 81.1535 298.36 79.603 301.406C76.7775 291.125 74.021 289.083 67.5086 285.483Z" fill="url(#paint8_linear_2210_57978)"/>
<path d="M123.999 64.4518L179.027 36.4475C191.81 29.5243 199.046 20.7665 198.185 7.71624C197.944 4.11619 195.876 0.135357 193.223 -4.01855C190.398 6.26238 185.574 9.68936 179.061 13.324L123.999 43.3707C111.216 50.3285 106.254 53.4439 106.254 66.5287C106.254 71.9288 110.354 77.3289 111.905 80.3751C114.73 70.0942 117.487 68.0518 123.999 64.4518Z" fill="url(#paint9_linear_2210_57978)"/>
<path d="M-3.00082 359.83L52.0268 331.825C64.8103 324.902 72.0462 316.144 71.1848 303.094C70.9436 299.494 68.8762 295.513 66.223 291.359C63.3975 301.64 58.5736 305.067 52.0612 308.702L-3.00082 338.749C-15.7843 345.706 -20.7461 348.822 -20.7461 361.907C-20.7461 367.307 -16.6457 372.707 -15.0952 375.753C-12.2697 365.472 -9.51316 363.43 -3.00082 359.83Z" fill="url(#paint10_linear_2210_57978)"/>
<path d="M146.999 94.5924L202.027 66.5881C214.81 59.6649 222.046 50.9071 221.185 37.8569C220.944 34.2568 218.876 30.276 216.223 26.1221C213.398 36.403 208.574 39.83 202.061 43.4647L146.999 73.5113C134.216 80.4691 129.254 83.5845 129.254 96.6693C129.254 102.069 133.354 107.47 134.905 110.516C137.73 100.235 140.487 98.1924 146.999 94.5924Z" fill="url(#paint11_linear_2210_57978)"/>
<path d="M19.9992 389.97L75.0268 361.966C87.8103 355.043 95.0462 346.285 94.1848 333.235C93.9436 329.635 91.8762 325.654 89.223 321.5C86.3975 331.781 81.5736 335.208 75.0612 338.843L19.9992 368.889C7.21569 375.847 2.25391 378.962 2.25391 392.047C2.25391 397.447 6.35428 402.847 7.90484 405.894C10.7303 395.613 13.4868 393.57 19.9992 389.97Z" fill="url(#paint12_linear_2210_57978)"/>
<path d="M208.107 174.195L204.732 112.314C204.308 97.7295 208.24 87.0547 219.919 81.2791C223.143 79.6889 227.608 79.4973 232.515 79.7289C225.066 87.3277 224.524 93.2385 224.647 100.722L226.279 163.654C226.673 178.256 226.468 184.13 215.189 190.673C210.534 193.373 203.829 192.505 200.428 192.679C207.878 185.08 208.26 181.661 208.107 174.195Z" fill="url(#paint13_linear_2210_57978)"/>
<path d="M81.1069 469.572L77.7324 407.692C77.3084 393.107 81.2395 382.433 92.9193 376.657C96.1431 375.067 100.608 374.875 105.515 375.107C98.0662 382.706 97.5241 388.616 97.6473 396.1L99.2785 459.032C99.6727 473.634 99.4682 479.508 88.1892 486.051C83.5344 488.751 76.8295 487.883 73.4284 488.057C80.8777 480.458 81.2599 477.039 81.1069 469.572Z" fill="url(#paint14_linear_2210_57978)"/>
<path d="M172.107 184.241L168.732 122.361C168.308 107.776 172.24 97.1016 183.919 91.326C187.143 89.7358 191.608 89.5442 196.515 89.7757C189.066 97.3746 188.524 103.285 188.647 110.769L190.279 173.701C190.673 188.302 190.468 194.177 179.189 200.72C174.534 203.42 167.829 202.552 164.428 202.726C171.878 195.127 172.26 191.708 172.107 184.241Z" fill="url(#paint15_linear_2210_57978)"/>
<path d="M45.1069 479.619L41.7324 417.739C41.3084 403.154 45.2395 392.48 56.9193 386.704C60.1431 385.114 64.6082 384.922 69.5155 385.154C62.0662 392.753 61.5241 398.663 61.6473 406.147L63.2785 469.079C63.6727 483.68 63.4682 489.555 52.1892 496.098C47.5344 498.798 40.8295 497.93 37.4284 498.104C44.8777 490.505 45.2599 487.086 45.1069 479.619Z" fill="url(#paint16_linear_2210_57978)"/>
<path d="M131.509 135.784L76.481 107.78C63.6975 100.857 56.4616 92.099 57.323 79.0488C57.5642 75.4487 59.6316 71.4679 62.2848 67.314C65.1103 77.5949 69.9342 81.0219 76.4466 84.6566L131.509 114.703C144.292 121.661 149.254 124.776 149.254 137.861C149.254 143.261 145.154 148.661 143.603 151.708C140.778 141.427 138.021 139.384 131.509 135.784Z" fill="url(#paint17_linear_2210_57978)"/>
<path d="M4.50862 431.162L-50.519 403.158C-63.3025 396.235 -70.5384 387.477 -69.677 374.427C-69.4358 370.827 -67.3684 366.846 -64.7152 362.692C-61.8897 372.973 -57.0658 376.4 -50.5534 380.034L4.50862 410.081C17.2921 417.039 22.2539 420.154 22.2539 433.239C22.2539 438.639 18.1535 444.039 16.603 447.086C13.7775 436.805 11.021 434.762 4.50862 431.162Z" fill="url(#paint18_linear_2210_57978)"/>
<path d="M-46.8931 328.916L-50.2676 267.035C-50.6916 252.451 -46.7605 241.776 -35.0807 236.001C-31.8569 234.411 -27.3918 234.219 -22.4845 234.451C-29.9338 242.049 -30.4759 247.96 -30.3527 255.444L-28.7215 318.376C-28.3273 332.977 -28.5318 338.852 -39.8108 345.395C-44.4656 348.095 -51.1705 347.227 -54.5716 347.401C-47.1223 339.802 -46.7401 336.383 -46.8931 328.916Z" fill="url(#paint19_linear_2210_57978)"/>
<path d="M-67.0008 69.4752L-11.9732 41.4709C0.810266 34.5477 8.04621 25.7899 7.18479 12.7397C6.94359 9.13963 4.87618 5.15879 2.223 1.00488C-0.602459 11.2858 -5.42642 14.7128 -11.9388 18.3475L-67.0008 48.3941C-79.7843 55.3519 -84.7461 58.4673 -84.7461 71.5522C-84.7461 76.9522 -80.6457 82.3523 -79.0952 85.3985C-76.2697 75.1176 -73.5132 73.0753 -67.0008 69.4752Z" fill="url(#paint20_linear_2210_57978)"/>
<path d="M-44.0008 99.6158L11.0268 71.6115C23.8103 64.6883 31.0462 55.9305 30.1848 42.8803C29.9436 39.2803 27.8762 35.2994 25.223 31.1455C22.3975 41.4264 17.5736 44.8534 11.0612 48.4881L-44.0008 78.5347C-56.7843 85.4925 -61.7461 88.608 -61.7461 101.693C-61.7461 107.093 -57.6457 112.493 -56.0952 115.539C-53.2697 105.258 -50.5132 103.216 -44.0008 99.6158Z" fill="url(#paint21_linear_2210_57978)"/>
<path d="M17.1069 179.218L13.7324 117.337C13.3084 102.753 17.2395 92.0781 28.9193 86.3025C32.1431 84.7124 36.6082 84.5208 41.5155 84.7523C34.0662 92.3512 33.5241 98.2619 33.6473 105.746L35.2785 168.677C35.6727 183.279 35.4682 189.154 24.1892 195.696C19.5344 198.396 12.8295 197.529 9.42839 197.703C16.8777 190.104 17.2599 186.684 17.1069 179.218Z" fill="url(#paint22_linear_2210_57978)"/>
<path d="M-18.8931 189.265L-22.2676 127.384C-22.6916 112.8 -18.7605 102.125 -7.08067 96.3494C-3.85688 94.7592 0.608249 94.5677 5.51545 94.7992C-1.93384 102.398 -2.47586 108.309 -2.35273 115.792L-0.721473 178.724C-0.327256 193.326 -0.53183 199.201 -11.8108 205.743C-16.4656 208.443 -23.1705 207.576 -26.5716 207.75C-19.1223 200.151 -18.7401 196.731 -18.8931 189.265Z" fill="url(#paint23_linear_2210_57978)"/>
</g>
<g opacity="0.2">
<path d="M346.372 1010.54L401.4 982.535C414.183 975.612 421.419 966.854 420.558 953.804C420.317 950.204 418.249 946.223 415.596 942.069C412.771 952.35 407.947 955.777 401.434 959.411L346.372 989.458C333.589 996.416 328.627 999.531 328.627 1012.62C328.627 1018.02 332.727 1023.42 334.278 1026.46C337.103 1016.18 339.86 1014.14 346.372 1010.54Z" fill="url(#paint24_linear_2210_57978)"/>
<path d="M369.372 1040.68L424.4 1012.68C437.183 1005.75 444.419 996.994 443.558 983.944C443.317 980.344 441.249 976.363 438.596 972.209C435.771 982.49 430.947 985.917 424.434 989.552L369.372 1019.6C356.589 1026.56 351.627 1029.67 351.627 1042.76C351.627 1048.16 355.727 1053.56 357.278 1056.6C360.103 1046.32 362.86 1044.28 369.372 1040.68Z" fill="url(#paint25_linear_2210_57978)"/>
<path d="M394.48 1130.33L391.105 1068.45C390.681 1053.86 394.613 1043.19 406.292 1037.41C409.516 1035.82 413.981 1035.63 418.888 1035.86C411.439 1043.46 410.897 1049.37 411.02 1056.86L412.652 1119.79C413.046 1134.39 412.841 1140.26 401.562 1146.81C396.907 1149.51 390.203 1148.64 386.801 1148.81C394.251 1141.21 394.633 1137.8 394.48 1130.33Z" fill="url(#paint26_linear_2210_57978)"/>
<path d="M353.882 1081.87L298.854 1053.87C286.071 1046.94 278.835 1038.19 279.696 1025.14C279.937 1021.54 282.005 1017.56 284.658 1013.4C287.483 1023.68 292.307 1027.11 298.82 1030.74L353.882 1060.79C366.665 1067.75 371.627 1070.86 371.627 1083.95C371.627 1089.35 367.527 1094.75 365.976 1097.8C363.151 1087.51 360.394 1085.47 353.882 1081.87Z" fill="url(#paint27_linear_2210_57978)"/>
<path d="M417.882 932.173L362.854 904.169C350.071 897.246 342.835 888.488 343.696 875.438C343.937 871.838 346.005 867.857 348.658 863.703C351.483 873.984 356.307 877.411 362.82 881.046L417.882 911.092C430.665 918.05 435.627 921.166 435.627 934.25C435.627 939.65 431.527 945.051 429.976 948.097C427.151 937.816 424.394 935.774 417.882 932.173Z" fill="url(#paint28_linear_2210_57978)"/>
<path d="M282.372 720.185L337.4 692.18C350.183 685.257 357.419 676.499 356.558 663.449C356.317 659.849 354.249 655.868 351.596 651.714C348.771 661.995 343.947 665.422 337.434 669.057L282.372 699.104C269.589 706.061 264.627 709.177 264.627 722.262C264.627 727.662 268.727 733.062 270.278 736.108C273.103 725.827 275.86 723.785 282.372 720.185Z" fill="url(#paint29_linear_2210_57978)"/>
<path d="M155.372 1015.56L210.4 987.558C223.183 980.635 230.419 971.877 229.558 958.827C229.317 955.227 227.249 951.246 224.596 947.092C221.771 957.373 216.947 960.8 210.434 964.435L155.372 994.481C142.589 1001.44 137.627 1004.55 137.627 1017.64C137.627 1023.04 141.727 1028.44 143.278 1031.49C146.103 1021.21 148.86 1019.16 155.372 1015.56Z" fill="url(#paint30_linear_2210_57978)"/>
<path d="M305.372 750.325L360.4 722.321C373.183 715.398 380.419 706.64 379.558 693.59C379.317 689.99 377.249 686.009 374.596 681.855C371.771 692.136 366.947 695.563 360.434 699.198L305.372 729.244C292.589 736.202 287.627 739.317 287.627 752.402C287.627 757.802 291.727 763.202 293.278 766.249C296.103 755.968 298.86 753.925 305.372 750.325Z" fill="url(#paint31_linear_2210_57978)"/>
<path d="M178.372 1045.7L233.4 1017.7C246.183 1010.78 253.419 1002.02 252.558 988.968C252.317 985.368 250.249 981.387 247.596 977.233C244.771 987.514 239.947 990.941 233.434 994.575L178.372 1024.62C165.589 1031.58 160.627 1034.7 160.627 1047.78C160.627 1053.18 164.727 1058.58 166.278 1061.63C169.103 1051.35 171.86 1049.3 178.372 1045.7Z" fill="url(#paint32_linear_2210_57978)"/>
<path d="M366.48 829.927L363.105 768.047C362.681 753.462 366.613 742.788 378.292 737.012C381.516 735.422 385.981 735.23 390.888 735.462C383.439 743.061 382.897 748.971 383.02 756.455L384.652 819.387C385.046 833.989 384.841 839.863 373.562 846.406C368.907 849.106 362.203 848.238 358.801 848.412C366.251 840.813 366.633 837.394 366.48 829.927Z" fill="url(#paint33_linear_2210_57978)"/>
<path d="M239.48 1125.31L236.105 1063.42C235.681 1048.84 239.613 1038.17 251.292 1032.39C254.516 1030.8 258.981 1030.61 263.888 1030.84C256.439 1038.44 255.897 1044.35 256.02 1051.83L257.652 1114.76C258.046 1129.37 257.841 1135.24 246.562 1141.78C241.907 1144.48 235.203 1143.62 231.801 1143.79C239.251 1136.19 239.633 1132.77 239.48 1125.31Z" fill="url(#paint34_linear_2210_57978)"/>
<path d="M330.48 839.974L327.105 778.094C326.681 763.509 330.613 752.834 342.292 747.059C345.516 745.469 349.981 745.277 354.888 745.509C347.439 753.108 346.897 759.018 347.02 766.502L348.652 829.434C349.046 844.035 348.841 849.91 337.562 856.453C332.907 859.153 326.203 858.285 322.801 858.459C330.251 850.86 330.633 847.441 330.48 839.974Z" fill="url(#paint35_linear_2210_57978)"/>
<path d="M203.48 1135.35L200.105 1073.47C199.681 1058.89 203.613 1048.21 215.292 1042.44C218.516 1040.85 222.981 1040.66 227.888 1040.89C220.439 1048.49 219.897 1054.4 220.02 1061.88L221.652 1124.81C222.046 1139.41 221.841 1145.29 210.562 1151.83C205.907 1154.53 199.203 1153.66 195.801 1153.84C203.251 1146.24 203.633 1142.82 203.48 1135.35Z" fill="url(#paint36_linear_2210_57978)"/>
<path d="M289.882 791.517L234.854 763.513C222.071 756.59 214.835 747.832 215.696 734.782C215.937 731.182 218.005 727.201 220.658 723.047C223.483 733.328 228.307 736.755 234.82 740.389L289.882 770.436C302.665 777.394 307.627 780.509 307.627 793.594C307.627 798.994 303.527 804.394 301.976 807.441C299.151 797.16 296.394 795.117 289.882 791.517Z" fill="url(#paint37_linear_2210_57978)"/>
<path d="M162.882 1086.9L107.854 1058.89C95.0706 1051.97 87.8346 1043.21 88.6961 1030.16C88.9373 1026.56 91.0047 1022.58 93.6579 1018.42C96.4833 1028.71 101.307 1032.13 107.82 1035.77L162.882 1065.81C175.665 1072.77 180.627 1075.89 180.627 1088.97C180.627 1094.37 176.527 1099.77 174.976 1102.82C172.151 1092.54 169.394 1090.5 162.882 1086.9Z" fill="url(#paint38_linear_2210_57978)"/>
<path d="M346.372 570.486L401.4 542.482C414.183 535.559 421.419 526.801 420.558 513.751C420.317 510.151 418.249 506.17 415.596 502.016C412.771 512.297 407.947 515.724 401.434 519.359L346.372 549.405C333.589 556.363 328.627 559.479 328.627 572.563C328.627 577.963 332.727 583.364 334.278 586.41C337.103 576.129 339.86 574.086 346.372 570.486Z" fill="url(#paint39_linear_2210_57978)"/>
<path d="M219.372 865.864L274.4 837.86C287.183 830.937 294.419 822.179 293.558 809.129C293.317 805.529 291.249 801.548 288.596 797.394C285.771 807.675 280.947 811.102 274.434 814.737L219.372 844.783C206.589 851.741 201.627 854.856 201.627 867.941C201.627 873.341 205.727 878.741 207.278 881.788C210.103 871.507 212.86 869.464 219.372 865.864Z" fill="url(#paint40_linear_2210_57978)"/>
<path d="M369.372 600.627L424.4 572.623C437.183 565.7 444.419 556.942 443.558 543.892C443.317 540.291 441.249 536.311 438.596 532.157C435.771 542.438 430.947 545.865 424.434 549.499L369.372 579.546C356.589 586.504 351.627 589.619 351.627 602.704C351.627 608.104 355.727 613.504 357.278 616.55C360.103 606.269 362.86 604.227 369.372 600.627Z" fill="url(#paint41_linear_2210_57978)"/>
<path d="M242.372 896.005L297.4 868.001C310.183 861.078 317.419 852.32 316.558 839.269C316.317 835.669 314.249 831.689 311.596 827.535C308.771 837.816 303.947 841.243 297.434 844.877L242.372 874.924C229.589 881.882 224.627 884.997 224.627 898.082C224.627 903.482 228.727 908.882 230.278 911.928C233.103 901.647 235.86 899.605 242.372 896.005Z" fill="url(#paint42_linear_2210_57978)"/>
<path d="M303.48 975.607L300.105 913.726C299.681 899.142 303.613 888.467 315.292 882.692C318.516 881.102 322.981 880.91 327.888 881.141C320.439 888.74 319.897 894.651 320.02 902.135L321.652 965.067C322.046 979.668 321.841 985.543 310.562 992.086C305.907 994.786 299.203 993.918 295.801 994.092C303.251 986.493 303.633 983.073 303.48 975.607Z" fill="url(#paint43_linear_2210_57978)"/>
<path d="M394.48 690.276L391.105 628.395C390.681 613.811 394.613 603.136 406.292 597.361C409.516 595.77 413.981 595.579 418.888 595.81C411.439 603.409 410.897 609.32 411.02 616.804L412.652 679.736C413.046 694.337 412.841 700.212 401.562 706.754C396.907 709.454 390.203 708.587 386.801 708.761C394.251 701.162 394.633 697.742 394.48 690.276Z" fill="url(#paint44_linear_2210_57978)"/>
<path d="M267.48 985.654L264.105 923.773C263.681 909.189 267.613 898.514 279.292 892.739C282.516 891.148 286.981 890.957 291.888 891.188C284.439 898.787 283.897 904.698 284.02 912.182L285.652 975.113C286.046 989.715 285.841 995.59 274.562 1002.13C269.907 1004.83 263.203 1003.96 259.801 1004.14C267.251 996.54 267.633 993.12 267.48 985.654Z" fill="url(#paint45_linear_2210_57978)"/>
<path d="M353.882 641.819L298.854 613.815C286.071 606.891 278.835 598.134 279.696 585.083C279.937 581.483 282.005 577.503 284.658 573.349C287.483 583.63 292.307 587.057 298.82 590.691L353.882 620.738C366.665 627.696 371.627 630.811 371.627 643.896C371.627 649.296 367.527 654.696 365.976 657.742C363.151 647.461 360.394 645.419 353.882 641.819Z" fill="url(#paint46_linear_2210_57978)"/>
<path d="M226.882 937.197L171.854 909.193C159.071 902.269 151.835 893.512 152.696 880.461C152.937 876.861 155.005 872.88 157.658 868.727C160.483 879.007 165.307 882.434 171.82 886.069L226.882 916.116C239.665 923.074 244.627 926.189 244.627 939.274C244.627 944.674 240.527 950.074 238.976 953.12C236.151 942.839 233.394 940.797 226.882 937.197Z" fill="url(#paint47_linear_2210_57978)"/>
</g>
</g>
</g>
<defs>
<linearGradient id="paint0_linear_2210_57978" x1="134.254" y1="187.877" x2="42.2539" y2="187.877" gradientUnits="userSpaceOnUse">
<stop stop-color="#0c3fbf"/>
<stop offset="1" stop-color="#0c3fbf" stop-opacity="0"/>
</linearGradient>
<linearGradient id="paint1_linear_2210_57978" x1="7.2539" y1="483.254" x2="-84.7461" y2="483.254" gradientUnits="userSpaceOnUse">
<stop stop-color="#0c3fbf"/>
<stop offset="1" stop-color="#0c3fbf" stop-opacity="0"/>
</linearGradient>
<linearGradient id="paint2_linear_2210_57978" x1="157.254" y1="218.017" x2="65.2539" y2="218.017" gradientUnits="userSpaceOnUse">
<stop stop-color="#0c3fbf"/>
<stop offset="1" stop-color="#0c3fbf" stop-opacity="0"/>
</linearGradient>
<linearGradient id="paint3_linear_2210_57978" x1="30.2539" y1="513.395" x2="-61.7461" y2="513.395" gradientUnits="userSpaceOnUse">
<stop stop-color="#0c3fbf"/>
<stop offset="1" stop-color="#0c3fbf" stop-opacity="0"/>
</linearGradient>
<linearGradient id="paint4_linear_2210_57978" x1="129.627" y1="246.148" x2="175.95" y2="326.008" gradientUnits="userSpaceOnUse">
<stop stop-color="#0c3fbf"/>
<stop offset="1" stop-color="#0c3fbf" stop-opacity="0"/>
</linearGradient>
<linearGradient id="paint5_linear_2210_57978" x1="2.62693" y1="541.526" x2="48.9503" y2="621.386" gradientUnits="userSpaceOnUse">
<stop stop-color="#0c3fbf"/>
<stop offset="1" stop-color="#0c3fbf" stop-opacity="0"/>
</linearGradient>
<linearGradient id="paint6_linear_2210_57978" x1="93.6269" y1="256.195" x2="139.95" y2="336.055" gradientUnits="userSpaceOnUse">
<stop stop-color="#0c3fbf"/>
<stop offset="1" stop-color="#0c3fbf" stop-opacity="0"/>
</linearGradient>
<linearGradient id="paint7_linear_2210_57978" x1="-33.3731" y1="551.573" x2="12.9503" y2="631.433" gradientUnits="userSpaceOnUse">
<stop stop-color="#0c3fbf"/>
<stop offset="1" stop-color="#0c3fbf" stop-opacity="0"/>
</linearGradient>
<linearGradient id="paint8_linear_2210_57978" x1="-6.7461" y1="259.209" x2="85.2539" y2="259.209" gradientUnits="userSpaceOnUse">
<stop stop-color="#0c3fbf"/>
<stop offset="1" stop-color="#0c3fbf" stop-opacity="0"/>
</linearGradient>
<linearGradient id="paint9_linear_2210_57978" x1="198.254" y1="38.1783" x2="106.254" y2="38.1783" gradientUnits="userSpaceOnUse">
<stop stop-color="#0c3fbf"/>
<stop offset="1" stop-color="#0c3fbf" stop-opacity="0"/>
</linearGradient>
<linearGradient id="paint10_linear_2210_57978" x1="71.2539" y1="333.556" x2="-20.7461" y2="333.556" gradientUnits="userSpaceOnUse">
<stop stop-color="#0c3fbf"/>
<stop offset="1" stop-color="#0c3fbf" stop-opacity="0"/>
</linearGradient>
<linearGradient id="paint11_linear_2210_57978" x1="221.254" y1="68.3189" x2="129.254" y2="68.3189" gradientUnits="userSpaceOnUse">
<stop stop-color="#0c3fbf"/>
<stop offset="1" stop-color="#0c3fbf" stop-opacity="0"/>
</linearGradient>
<linearGradient id="paint12_linear_2210_57978" x1="94.2539" y1="363.697" x2="2.2539" y2="363.697" gradientUnits="userSpaceOnUse">
<stop stop-color="#0c3fbf"/>
<stop offset="1" stop-color="#0c3fbf" stop-opacity="0"/>
</linearGradient>
<linearGradient id="paint13_linear_2210_57978" x1="193.627" y1="96.45" x2="239.95" y2="176.31" gradientUnits="userSpaceOnUse">
<stop stop-color="#0c3fbf"/>
<stop offset="1" stop-color="#0c3fbf" stop-opacity="0"/>
</linearGradient>
<linearGradient id="paint14_linear_2210_57978" x1="66.6269" y1="391.828" x2="112.95" y2="471.688" gradientUnits="userSpaceOnUse">
<stop stop-color="#0c3fbf"/>
<stop offset="1" stop-color="#0c3fbf" stop-opacity="0"/>
</linearGradient>
<linearGradient id="paint15_linear_2210_57978" x1="157.627" y1="106.497" x2="203.95" y2="186.357" gradientUnits="userSpaceOnUse">
<stop stop-color="#0c3fbf"/>
<stop offset="1" stop-color="#0c3fbf" stop-opacity="0"/>
</linearGradient>
<linearGradient id="paint16_linear_2210_57978" x1="30.6269" y1="401.875" x2="76.9503" y2="481.735" gradientUnits="userSpaceOnUse">
<stop stop-color="#0c3fbf"/>
<stop offset="1" stop-color="#0c3fbf" stop-opacity="0"/>
</linearGradient>
<linearGradient id="paint17_linear_2210_57978" x1="57.2539" y1="109.511" x2="149.254" y2="109.511" gradientUnits="userSpaceOnUse">
<stop stop-color="#0c3fbf"/>
<stop offset="1" stop-color="#0c3fbf" stop-opacity="0"/>
</linearGradient>
<linearGradient id="paint18_linear_2210_57978" x1="-69.7461" y1="404.889" x2="22.2539" y2="404.889" gradientUnits="userSpaceOnUse">
<stop stop-color="#0c3fbf"/>
<stop offset="1" stop-color="#0c3fbf" stop-opacity="0"/>
</linearGradient>
<linearGradient id="paint19_linear_2210_57978" x1="-61.3731" y1="251.172" x2="-15.0497" y2="331.032" gradientUnits="userSpaceOnUse">
<stop stop-color="#0c3fbf"/>
<stop offset="1" stop-color="#0c3fbf" stop-opacity="0"/>
</linearGradient>
<linearGradient id="paint20_linear_2210_57978" x1="7.2539" y1="43.2017" x2="-84.7461" y2="43.2017" gradientUnits="userSpaceOnUse">
<stop stop-color="#0c3fbf"/>
<stop offset="1" stop-color="#0c3fbf" stop-opacity="0"/>
</linearGradient>
<linearGradient id="paint21_linear_2210_57978" x1="30.2539" y1="73.3423" x2="-61.7461" y2="73.3423" gradientUnits="userSpaceOnUse">
<stop stop-color="#0c3fbf"/>
<stop offset="1" stop-color="#0c3fbf" stop-opacity="0"/>
</linearGradient>
<linearGradient id="paint22_linear_2210_57978" x1="2.62693" y1="101.473" x2="48.9503" y2="181.334" gradientUnits="userSpaceOnUse">
<stop stop-color="#0c3fbf"/>
<stop offset="1" stop-color="#0c3fbf" stop-opacity="0"/>
</linearGradient>
<linearGradient id="paint23_linear_2210_57978" x1="-33.3731" y1="111.52" x2="12.9503" y2="191.38" gradientUnits="userSpaceOnUse">
<stop stop-color="#0c3fbf"/>
<stop offset="1" stop-color="#0c3fbf" stop-opacity="0"/>
</linearGradient>
<linearGradient id="paint24_linear_2210_57978" x1="420.627" y1="984.266" x2="328.627" y2="984.266" gradientUnits="userSpaceOnUse">
<stop stop-color="#0c3fbf"/>
<stop offset="1" stop-color="#0c3fbf" stop-opacity="0"/>
</linearGradient>
<linearGradient id="paint25_linear_2210_57978" x1="443.627" y1="1014.41" x2="351.627" y2="1014.41" gradientUnits="userSpaceOnUse">
<stop stop-color="#0c3fbf"/>
<stop offset="1" stop-color="#0c3fbf" stop-opacity="0"/>
</linearGradient>
<linearGradient id="paint26_linear_2210_57978" x1="380" y1="1052.58" x2="426.323" y2="1132.44" gradientUnits="userSpaceOnUse">
<stop stop-color="#0c3fbf"/>
<stop offset="1" stop-color="#0c3fbf" stop-opacity="0"/>
</linearGradient>
<linearGradient id="paint27_linear_2210_57978" x1="279.627" y1="1055.6" x2="371.627" y2="1055.6" gradientUnits="userSpaceOnUse">
<stop stop-color="#0c3fbf"/>
<stop offset="1" stop-color="#0c3fbf" stop-opacity="0"/>
</linearGradient>
<linearGradient id="paint28_linear_2210_57978" x1="343.627" y1="905.9" x2="435.627" y2="905.9" gradientUnits="userSpaceOnUse">
<stop stop-color="#0c3fbf"/>
<stop offset="1" stop-color="#0c3fbf" stop-opacity="0"/>
</linearGradient>
<linearGradient id="paint29_linear_2210_57978" x1="356.627" y1="693.911" x2="264.627" y2="693.911" gradientUnits="userSpaceOnUse">
<stop stop-color="#0c3fbf"/>
<stop offset="1" stop-color="#0c3fbf" stop-opacity="0"/>
</linearGradient>
<linearGradient id="paint30_linear_2210_57978" x1="229.627" y1="989.289" x2="137.627" y2="989.289" gradientUnits="userSpaceOnUse">
<stop stop-color="#0c3fbf"/>
<stop offset="1" stop-color="#0c3fbf" stop-opacity="0"/>
</linearGradient>
<linearGradient id="paint31_linear_2210_57978" x1="379.627" y1="724.052" x2="287.627" y2="724.052" gradientUnits="userSpaceOnUse">
<stop stop-color="#0c3fbf"/>
<stop offset="1" stop-color="#0c3fbf" stop-opacity="0"/>
</linearGradient>
<linearGradient id="paint32_linear_2210_57978" x1="252.627" y1="1019.43" x2="160.627" y2="1019.43" gradientUnits="userSpaceOnUse">
<stop stop-color="#0c3fbf"/>
<stop offset="1" stop-color="#0c3fbf" stop-opacity="0"/>
</linearGradient>
<linearGradient id="paint33_linear_2210_57978" x1="352" y1="752.183" x2="398.323" y2="832.043" gradientUnits="userSpaceOnUse">
<stop stop-color="#0c3fbf"/>
<stop offset="1" stop-color="#0c3fbf" stop-opacity="0"/>
</linearGradient>
<linearGradient id="paint34_linear_2210_57978" x1="225" y1="1047.56" x2="271.323" y2="1127.42" gradientUnits="userSpaceOnUse">
<stop stop-color="#0c3fbf"/>
<stop offset="1" stop-color="#0c3fbf" stop-opacity="0"/>
</linearGradient>
<linearGradient id="paint35_linear_2210_57978" x1="316" y1="762.23" x2="362.323" y2="842.09" gradientUnits="userSpaceOnUse">
<stop stop-color="#0c3fbf"/>
<stop offset="1" stop-color="#0c3fbf" stop-opacity="0"/>
</linearGradient>
<linearGradient id="paint36_linear_2210_57978" x1="189" y1="1057.61" x2="235.323" y2="1137.47" gradientUnits="userSpaceOnUse">
<stop stop-color="#0c3fbf"/>
<stop offset="1" stop-color="#0c3fbf" stop-opacity="0"/>
</linearGradient>
<linearGradient id="paint37_linear_2210_57978" x1="215.627" y1="765.244" x2="307.627" y2="765.244" gradientUnits="userSpaceOnUse">
<stop stop-color="#0c3fbf"/>
<stop offset="1" stop-color="#0c3fbf" stop-opacity="0"/>
</linearGradient>
<linearGradient id="paint38_linear_2210_57978" x1="88.627" y1="1060.62" x2="180.627" y2="1060.62" gradientUnits="userSpaceOnUse">
<stop stop-color="#0c3fbf"/>
<stop offset="1" stop-color="#0c3fbf" stop-opacity="0"/>
</linearGradient>
<linearGradient id="paint39_linear_2210_57978" x1="420.627" y1="544.213" x2="328.627" y2="544.213" gradientUnits="userSpaceOnUse">
<stop stop-color="#0c3fbf"/>
<stop offset="1" stop-color="#0c3fbf" stop-opacity="0"/>
</linearGradient>
<linearGradient id="paint40_linear_2210_57978" x1="293.627" y1="839.591" x2="201.627" y2="839.591" gradientUnits="userSpaceOnUse">
<stop stop-color="#0c3fbf"/>
<stop offset="1" stop-color="#0c3fbf" stop-opacity="0"/>
</linearGradient>
<linearGradient id="paint41_linear_2210_57978" x1="443.627" y1="574.354" x2="351.627" y2="574.354" gradientUnits="userSpaceOnUse">
<stop stop-color="#0c3fbf"/>
<stop offset="1" stop-color="#0c3fbf" stop-opacity="0"/>
</linearGradient>
<linearGradient id="paint42_linear_2210_57978" x1="316.627" y1="869.731" x2="224.627" y2="869.731" gradientUnits="userSpaceOnUse">
<stop stop-color="#0c3fbf"/>
<stop offset="1" stop-color="#0c3fbf" stop-opacity="0"/>
</linearGradient>
<linearGradient id="paint43_linear_2210_57978" x1="289" y1="897.863" x2="335.323" y2="977.723" gradientUnits="userSpaceOnUse">
<stop stop-color="#0c3fbf"/>
<stop offset="1" stop-color="#0c3fbf" stop-opacity="0"/>
</linearGradient>
<linearGradient id="paint44_linear_2210_57978" x1="380" y1="612.532" x2="426.323" y2="692.392" gradientUnits="userSpaceOnUse">
<stop stop-color="#0c3fbf"/>
<stop offset="1" stop-color="#0c3fbf" stop-opacity="0"/>
</linearGradient>
<linearGradient id="paint45_linear_2210_57978" x1="253" y1="907.909" x2="299.323" y2="987.77" gradientUnits="userSpaceOnUse">
<stop stop-color="#0c3fbf"/>
<stop offset="1" stop-color="#0c3fbf" stop-opacity="0"/>
</linearGradient>
<linearGradient id="paint46_linear_2210_57978" x1="279.627" y1="615.545" x2="371.627" y2="615.545" gradientUnits="userSpaceOnUse">
<stop stop-color="#0c3fbf"/>
<stop offset="1" stop-color="#0c3fbf" stop-opacity="0"/>
</linearGradient>
<linearGradient id="paint47_linear_2210_57978" x1="152.627" y1="910.923" x2="244.627" y2="910.923" gradientUnits="userSpaceOnUse">
<stop stop-color="#0c3fbf"/>
<stop offset="1" stop-color="#0c3fbf" stop-opacity="0"/>
</linearGradient>
<clipPath id="clip0_2210_57978">
<rect width="375" height="1144" fill="white"/>
</clipPath>
<clipPath id="clip1_2210_57978">
<rect width="375" height="1144" fill="white"/>
</clipPath>
</defs>
</svg>
