<svg width="1510" height="1151" viewBox="0 0 1510 1151" fill="none" xmlns="http://www.w3.org/2000/svg">
<g clip-path="url(#clip0_3071_12308)">
<path opacity="0.2" d="M104.745 218.169L159.773 190.164C172.556 183.241 179.792 174.483 178.931 161.433C178.69 157.833 176.622 153.852 173.969 149.698C171.144 159.979 166.32 163.406 159.807 167.041L104.745 197.087C91.9618 204.045 87 207.161 87 220.246C87 225.646 91.1004 231.046 92.6509 234.092C95.4764 223.811 98.2329 221.769 104.745 218.169Z" fill="url(#paint0_linear_3071_12308)"/>
<path opacity="0.2" d="M-22.2547 513.546L32.7729 485.542C45.5564 478.619 52.7923 469.861 51.9309 456.811C51.6897 453.211 49.6223 449.23 46.9691 445.076C44.1436 455.357 39.3197 458.784 32.8073 462.419L-22.2547 492.465C-35.0382 499.423 -40 502.539 -40 515.623C-40 521.024 -35.8996 526.424 -34.3491 529.47C-31.5236 519.189 -28.7671 517.147 -22.2547 513.546Z" fill="url(#paint1_linear_3071_12308)"/>
<path opacity="0.2" d="M188.853 327.911L185.479 266.031C185.054 251.446 188.986 240.771 200.665 234.996C203.889 233.406 208.354 233.214 213.262 233.446C205.812 241.045 205.27 246.955 205.393 254.439L207.025 317.371C207.419 331.972 207.214 337.847 195.935 344.39C191.281 347.09 184.576 346.222 181.174 346.396C188.624 338.797 189.006 335.378 188.853 327.911Z" fill="url(#paint2_linear_3071_12308)"/>
<path opacity="0.2" d="M152.853 337.958L149.479 276.077C149.054 261.493 152.986 250.818 164.665 245.043C167.889 243.453 172.354 243.261 177.262 243.493C169.812 251.091 169.27 257.002 169.393 264.486L171.025 327.418C171.419 342.019 171.214 347.894 159.935 354.437C155.281 357.137 148.576 356.269 145.174 356.443C152.624 348.844 153.006 345.425 152.853 337.958Z" fill="url(#paint3_linear_3071_12308)"/>
<path opacity="0.2" d="M25.853 633.336L22.4785 571.455C22.0545 556.871 25.9856 546.196 37.6654 540.421C40.8892 538.831 45.3543 538.639 50.2615 538.87C42.8123 546.469 42.2702 552.38 42.3934 559.864L44.0246 622.796C44.4188 637.397 44.2143 643.272 32.9353 649.815C28.2805 652.515 21.5755 651.647 18.1745 651.821C25.6238 644.222 26.006 640.802 25.853 633.336Z" fill="url(#paint4_linear_3071_12308)"/>
<path opacity="0.2" d="M168.745 68.4703L223.773 40.466C236.556 33.5428 243.792 24.785 242.931 11.7348C242.69 8.13474 240.622 4.15391 237.969 -2.19908e-07C235.144 10.2809 230.32 13.7079 223.807 17.3426L168.745 47.3892C155.962 54.347 151 57.4625 151 70.5473C151 75.9474 155.1 81.3474 156.651 84.3936C159.476 74.1127 162.233 72.0704 168.745 68.4703Z" fill="url(#paint5_linear_3071_12308)"/>
<path opacity="0.2" d="M41.7453 363.848L96.7729 335.844C109.556 328.921 116.792 320.163 115.931 307.112C115.69 303.512 113.622 299.532 110.969 295.378C108.144 305.659 103.32 309.086 96.8073 312.72L41.7453 342.767C28.9618 349.725 24 352.84 24 365.925C24 371.325 28.1004 376.725 29.6509 379.771C32.4764 369.49 35.2329 367.448 41.7453 363.848Z" fill="url(#paint6_linear_3071_12308)"/>
<path opacity="0.2" d="M252.853 178.213L249.479 116.332C249.054 101.748 252.986 91.0733 264.665 85.2977C267.889 83.7075 272.354 83.5159 277.262 83.7474C269.812 91.3463 269.27 97.257 269.393 104.741L271.025 167.673C271.419 182.274 271.214 188.149 259.935 194.691C255.281 197.392 248.576 196.524 245.174 196.698C252.624 189.099 253.006 185.679 252.853 178.213Z" fill="url(#paint7_linear_3071_12308)"/>
<path opacity="0.2" d="M125.853 473.591L122.479 411.71C122.054 397.126 125.986 386.451 137.665 380.676C140.889 379.085 145.354 378.894 150.262 379.125C142.812 386.724 142.27 392.635 142.393 400.119L144.025 463.05C144.419 477.652 144.214 483.527 132.935 490.069C128.281 492.769 121.576 491.902 118.174 492.076C125.624 484.477 126.006 481.057 125.853 473.591Z" fill="url(#paint8_linear_3071_12308)"/>
<path opacity="0.2" d="M89.853 483.638L86.4785 421.757C86.0545 407.173 89.9856 396.498 101.665 390.722C104.889 389.132 109.354 388.941 114.262 389.172C106.812 396.771 106.27 402.682 106.393 410.165L108.025 473.097C108.419 487.699 108.214 493.574 96.9353 500.116C92.2805 502.816 85.5755 501.949 82.1745 502.123C89.6238 494.524 90.006 491.104 89.853 483.638Z" fill="url(#paint9_linear_3071_12308)"/>
<path opacity="0.2" d="M-2.147 332.935L-5.52149 271.054C-5.94554 256.47 -2.01439 245.795 9.66542 240.019C12.8892 238.429 17.3543 238.238 22.2615 238.469C14.8123 246.068 14.2702 251.979 14.3934 259.462L16.0246 322.394C16.4188 336.996 16.2143 342.871 4.93533 349.413C0.280532 352.113 -6.42445 351.246 -9.82552 351.42C-2.37623 343.821 -1.99403 340.401 -2.147 332.935Z" fill="url(#paint10_linear_3071_12308)"/>
<path opacity="0.2" d="M0.745277 103.634L55.7729 75.6301C68.5564 68.7069 75.7923 59.9491 74.9309 46.8989C74.6897 43.2988 72.6223 39.318 69.9691 35.1641C67.1436 45.445 62.3197 48.872 55.8073 52.5066L0.745278 82.5533C-12.0382 89.5111 -17 92.6265 -17 105.711C-17 111.111 -12.8996 116.512 -11.3491 119.558C-8.52361 109.277 -5.76707 107.234 0.745277 103.634Z" fill="url(#paint11_linear_3071_12308)"/>
<path opacity="0.2" d="M61.853 183.237L58.4785 121.356C58.0545 106.771 61.9856 96.0967 73.6654 90.3211C76.8892 88.7309 81.3543 88.5393 86.2615 88.7709C78.8123 96.3697 78.2702 102.28 78.3934 109.764L80.0246 172.696C80.4188 187.298 80.2143 193.172 68.9353 199.715C64.2805 202.415 57.5755 201.547 54.1745 201.721C61.6238 194.122 62.006 190.703 61.853 183.237Z" fill="url(#paint12_linear_3071_12308)"/>
<path opacity="0.2" d="M1469.75 1002.83L1524.77 974.825C1537.56 967.902 1544.79 959.144 1543.93 946.094C1543.69 942.494 1541.62 938.513 1538.97 934.359C1536.14 944.64 1531.32 948.067 1524.81 951.701L1469.75 981.748C1456.96 988.706 1452 991.821 1452 1004.91C1452 1010.31 1456.1 1015.71 1457.65 1018.75C1460.48 1008.47 1463.23 1006.43 1469.75 1002.83Z" fill="url(#paint13_linear_3071_12308)"/>
<path opacity="0.2" d="M1477.25 1074.16L1422.23 1046.16C1409.44 1039.23 1402.21 1030.48 1403.07 1017.43C1403.31 1013.83 1405.38 1009.85 1408.03 1005.69C1410.86 1015.97 1415.68 1019.4 1422.19 1023.03L1477.25 1053.08C1490.04 1060.04 1495 1063.15 1495 1076.24C1495 1081.64 1490.9 1087.04 1489.35 1090.09C1486.52 1079.8 1483.77 1077.76 1477.25 1074.16Z" fill="url(#paint14_linear_3071_12308)"/>
<path opacity="0.2" d="M1428.75 742.615L1483.77 714.611C1496.56 707.688 1503.79 698.93 1502.93 685.88C1502.69 682.28 1500.62 678.299 1497.97 674.145C1495.14 684.426 1490.32 687.853 1483.81 691.488L1428.75 721.534C1415.96 728.492 1411 731.607 1411 744.692C1411 750.092 1415.1 755.492 1416.65 758.539C1419.48 748.258 1422.23 746.215 1428.75 742.615Z" fill="url(#paint15_linear_3071_12308)"/>
<path opacity="0.2" d="M1301.75 1037.99L1356.77 1009.99C1369.56 1003.07 1376.79 994.308 1375.93 981.258C1375.69 977.657 1373.62 973.677 1370.97 969.523C1368.14 979.804 1363.32 983.231 1356.81 986.865L1301.75 1016.91C1288.96 1023.87 1284 1026.99 1284 1040.07C1284 1045.47 1288.1 1050.87 1289.65 1053.92C1292.48 1043.64 1295.23 1041.59 1301.75 1037.99Z" fill="url(#paint16_linear_3071_12308)"/>
<path opacity="0.2" d="M1489.85 822.218L1486.48 760.337C1486.05 745.753 1489.99 735.078 1501.67 729.302C1504.89 727.712 1509.35 727.52 1514.26 727.752C1506.81 735.351 1506.27 741.262 1506.39 748.745L1508.02 811.677C1508.42 826.279 1508.21 832.154 1496.94 838.696C1492.28 841.396 1485.58 840.528 1482.17 840.702C1489.62 833.104 1490.01 829.684 1489.85 822.218Z" fill="url(#paint17_linear_3071_12308)"/>
<path opacity="0.2" d="M1362.85 1117.6L1359.48 1055.71C1359.05 1041.13 1362.99 1030.46 1374.67 1024.68C1377.89 1023.09 1382.35 1022.9 1387.26 1023.13C1379.81 1030.73 1379.27 1036.64 1379.39 1044.12L1381.02 1107.05C1381.42 1121.66 1381.21 1127.53 1369.94 1134.07C1365.28 1136.77 1358.58 1135.91 1355.17 1136.08C1362.62 1128.48 1363.01 1125.06 1362.85 1117.6Z" fill="url(#paint18_linear_3071_12308)"/>
<path opacity="0.2" d="M1453.85 832.264L1450.48 770.384C1450.05 755.799 1453.99 745.125 1465.67 739.349C1468.89 737.759 1473.35 737.567 1478.26 737.799C1470.81 745.398 1470.27 751.308 1470.39 758.792L1472.02 821.724C1472.42 836.325 1472.21 842.2 1460.94 848.743C1456.28 851.443 1449.58 850.575 1446.17 850.749C1453.62 843.15 1454.01 839.731 1453.85 832.264Z" fill="url(#paint19_linear_3071_12308)"/>
<path opacity="0.2" d="M1413.25 783.807L1358.23 755.803C1345.44 748.88 1338.21 740.122 1339.07 727.072C1339.31 723.472 1341.38 719.491 1344.03 715.337C1346.86 725.618 1351.68 729.045 1358.19 732.68L1413.25 762.726C1426.04 769.684 1431 772.8 1431 785.884C1431 791.285 1426.9 796.685 1425.35 799.731C1422.52 789.45 1419.77 787.408 1413.25 783.807Z" fill="url(#paint20_linear_3071_12308)"/>
<path opacity="0.2" d="M1286.25 1079.19L1231.23 1051.18C1218.44 1044.26 1211.21 1035.5 1212.07 1022.45C1212.31 1018.85 1214.38 1014.87 1217.03 1010.71C1219.86 1021 1224.68 1024.42 1231.19 1028.06L1286.25 1058.1C1299.04 1065.06 1304 1068.18 1304 1081.26C1304 1086.66 1299.9 1092.06 1298.35 1095.11C1295.52 1084.83 1292.77 1082.79 1286.25 1079.19Z" fill="url(#paint21_linear_3071_12308)"/>
<path opacity="0.2" d="M1342.75 858.154L1397.77 830.15C1410.56 823.227 1417.79 814.469 1416.93 801.419C1416.69 797.819 1414.62 793.838 1411.97 789.684C1409.14 799.965 1404.32 803.392 1397.81 807.027L1342.75 837.073C1329.96 844.031 1325 847.146 1325 860.231C1325 865.631 1329.1 871.031 1330.65 874.078C1333.48 863.797 1336.23 861.754 1342.75 858.154Z" fill="url(#paint22_linear_3071_12308)"/>
<path opacity="0.2" d="M1492.75 592.917L1547.77 564.913C1560.56 557.99 1567.79 549.232 1566.93 536.182C1566.69 532.582 1564.62 528.601 1561.97 524.447C1559.14 534.728 1554.32 538.155 1547.81 541.789L1492.75 571.836C1479.96 578.794 1475 581.909 1475 594.994C1475 600.394 1479.1 605.794 1480.65 608.84C1483.48 598.559 1486.23 596.517 1492.75 592.917Z" fill="url(#paint23_linear_3071_12308)"/>
<path opacity="0.2" d="M1426.85 967.897L1423.48 906.016C1423.05 891.432 1426.99 880.757 1438.67 874.982C1441.89 873.392 1446.35 873.2 1451.26 873.432C1443.81 881.03 1443.27 886.941 1443.39 894.425L1445.02 957.357C1445.42 971.958 1445.21 977.833 1433.94 984.376C1429.28 987.076 1422.58 986.208 1419.17 986.382C1426.62 978.783 1427.01 975.364 1426.85 967.897Z" fill="url(#paint24_linear_3071_12308)"/>
<path opacity="0.2" d="M1477.25 634.109L1422.23 606.105C1409.44 599.182 1402.21 590.424 1403.07 577.374C1403.31 573.774 1405.38 569.793 1408.03 565.639C1410.86 575.92 1415.68 579.347 1422.19 582.982L1477.25 613.028C1490.04 619.986 1495 623.101 1495 636.186C1495 641.586 1490.9 646.986 1489.35 650.033C1486.52 639.752 1483.77 637.709 1477.25 634.109Z" fill="url(#paint25_linear_3071_12308)"/>
<path opacity="0.2" d="M1350.25 929.487L1295.23 901.483C1282.44 894.559 1275.21 885.802 1276.07 872.751C1276.31 869.151 1278.38 865.171 1281.03 861.017C1283.86 871.298 1288.68 874.725 1295.19 878.359L1350.25 908.406C1363.04 915.364 1368 918.479 1368 931.564C1368 936.964 1363.9 942.364 1362.35 945.41C1359.52 935.129 1356.77 933.087 1350.25 929.487Z" fill="url(#paint26_linear_3071_12308)"/>
</g>
<defs>
<linearGradient id="paint0_linear_3071_12308" x1="179" y1="191.895" x2="87" y2="191.895" gradientUnits="userSpaceOnUse">
<stop stop-color="#0c3fbf"/>
<stop offset="1" stop-color="#0c3fbf" stop-opacity="0"/>
</linearGradient>
<linearGradient id="paint1_linear_3071_12308" x1="52" y1="487.273" x2="-40" y2="487.273" gradientUnits="userSpaceOnUse">
<stop stop-color="#0c3fbf"/>
<stop offset="1" stop-color="#0c3fbf" stop-opacity="0"/>
</linearGradient>
<linearGradient id="paint2_linear_3071_12308" x1="174.373" y1="250.167" x2="220.696" y2="330.027" gradientUnits="userSpaceOnUse">
<stop stop-color="#0c3fbf"/>
<stop offset="1" stop-color="#0c3fbf" stop-opacity="0"/>
</linearGradient>
<linearGradient id="paint3_linear_3071_12308" x1="138.373" y1="260.214" x2="184.696" y2="340.074" gradientUnits="userSpaceOnUse">
<stop stop-color="#0c3fbf"/>
<stop offset="1" stop-color="#0c3fbf" stop-opacity="0"/>
</linearGradient>
<linearGradient id="paint4_linear_3071_12308" x1="11.373" y1="555.592" x2="57.6964" y2="635.452" gradientUnits="userSpaceOnUse">
<stop stop-color="#0c3fbf"/>
<stop offset="1" stop-color="#0c3fbf" stop-opacity="0"/>
</linearGradient>
<linearGradient id="paint5_linear_3071_12308" x1="243" y1="42.1968" x2="151" y2="42.1968" gradientUnits="userSpaceOnUse">
<stop stop-color="#0c3fbf"/>
<stop offset="1" stop-color="#0c3fbf" stop-opacity="0"/>
</linearGradient>
<linearGradient id="paint6_linear_3071_12308" x1="116" y1="337.575" x2="24" y2="337.575" gradientUnits="userSpaceOnUse">
<stop stop-color="#0c3fbf"/>
<stop offset="1" stop-color="#0c3fbf" stop-opacity="0"/>
</linearGradient>
<linearGradient id="paint7_linear_3071_12308" x1="238.373" y1="100.469" x2="284.696" y2="180.329" gradientUnits="userSpaceOnUse">
<stop stop-color="#0c3fbf"/>
<stop offset="1" stop-color="#0c3fbf" stop-opacity="0"/>
</linearGradient>
<linearGradient id="paint8_linear_3071_12308" x1="111.373" y1="395.846" x2="157.696" y2="475.707" gradientUnits="userSpaceOnUse">
<stop stop-color="#0c3fbf"/>
<stop offset="1" stop-color="#0c3fbf" stop-opacity="0"/>
</linearGradient>
<linearGradient id="paint9_linear_3071_12308" x1="75.373" y1="405.893" x2="121.696" y2="485.753" gradientUnits="userSpaceOnUse">
<stop stop-color="#0c3fbf"/>
<stop offset="1" stop-color="#0c3fbf" stop-opacity="0"/>
</linearGradient>
<linearGradient id="paint10_linear_3071_12308" x1="-16.627" y1="255.19" x2="29.6964" y2="335.05" gradientUnits="userSpaceOnUse">
<stop stop-color="#0c3fbf"/>
<stop offset="1" stop-color="#0c3fbf" stop-opacity="0"/>
</linearGradient>
<linearGradient id="paint11_linear_3071_12308" x1="75" y1="77.3609" x2="-17" y2="77.3609" gradientUnits="userSpaceOnUse">
<stop stop-color="#0c3fbf"/>
<stop offset="1" stop-color="#0c3fbf" stop-opacity="0"/>
</linearGradient>
<linearGradient id="paint12_linear_3071_12308" x1="47.373" y1="105.492" x2="93.6964" y2="185.352" gradientUnits="userSpaceOnUse">
<stop stop-color="#0c3fbf"/>
<stop offset="1" stop-color="#0c3fbf" stop-opacity="0"/>
</linearGradient>
<linearGradient id="paint13_linear_3071_12308" x1="1544" y1="976.556" x2="1452" y2="976.556" gradientUnits="userSpaceOnUse">
<stop stop-color="#0c3fbf"/>
<stop offset="1" stop-color="#0c3fbf" stop-opacity="0"/>
</linearGradient>
<linearGradient id="paint14_linear_3071_12308" x1="1403" y1="1047.89" x2="1495" y2="1047.89" gradientUnits="userSpaceOnUse">
<stop stop-color="#0c3fbf"/>
<stop offset="1" stop-color="#0c3fbf" stop-opacity="0"/>
</linearGradient>
<linearGradient id="paint15_linear_3071_12308" x1="1503" y1="716.342" x2="1411" y2="716.342" gradientUnits="userSpaceOnUse">
<stop stop-color="#0c3fbf"/>
<stop offset="1" stop-color="#0c3fbf" stop-opacity="0"/>
</linearGradient>
<linearGradient id="paint16_linear_3071_12308" x1="1376" y1="1011.72" x2="1284" y2="1011.72" gradientUnits="userSpaceOnUse">
<stop stop-color="#0c3fbf"/>
<stop offset="1" stop-color="#0c3fbf" stop-opacity="0"/>
</linearGradient>
<linearGradient id="paint17_linear_3071_12308" x1="1475.37" y1="744.473" x2="1521.7" y2="824.333" gradientUnits="userSpaceOnUse">
<stop stop-color="#0c3fbf"/>
<stop offset="1" stop-color="#0c3fbf" stop-opacity="0"/>
</linearGradient>
<linearGradient id="paint18_linear_3071_12308" x1="1348.37" y1="1039.85" x2="1394.7" y2="1119.71" gradientUnits="userSpaceOnUse">
<stop stop-color="#0c3fbf"/>
<stop offset="1" stop-color="#0c3fbf" stop-opacity="0"/>
</linearGradient>
<linearGradient id="paint19_linear_3071_12308" x1="1439.37" y1="754.52" x2="1485.7" y2="834.38" gradientUnits="userSpaceOnUse">
<stop stop-color="#0c3fbf"/>
<stop offset="1" stop-color="#0c3fbf" stop-opacity="0"/>
</linearGradient>
<linearGradient id="paint20_linear_3071_12308" x1="1339" y1="757.534" x2="1431" y2="757.534" gradientUnits="userSpaceOnUse">
<stop stop-color="#0c3fbf"/>
<stop offset="1" stop-color="#0c3fbf" stop-opacity="0"/>
</linearGradient>
<linearGradient id="paint21_linear_3071_12308" x1="1212" y1="1052.91" x2="1304" y2="1052.91" gradientUnits="userSpaceOnUse">
<stop stop-color="#0c3fbf"/>
<stop offset="1" stop-color="#0c3fbf" stop-opacity="0"/>
</linearGradient>
<linearGradient id="paint22_linear_3071_12308" x1="1417" y1="831.881" x2="1325" y2="831.881" gradientUnits="userSpaceOnUse">
<stop stop-color="#0c3fbf"/>
<stop offset="1" stop-color="#0c3fbf" stop-opacity="0"/>
</linearGradient>
<linearGradient id="paint23_linear_3071_12308" x1="1567" y1="566.644" x2="1475" y2="566.644" gradientUnits="userSpaceOnUse">
<stop stop-color="#0c3fbf"/>
<stop offset="1" stop-color="#0c3fbf" stop-opacity="0"/>
</linearGradient>
<linearGradient id="paint24_linear_3071_12308" x1="1412.37" y1="890.153" x2="1458.7" y2="970.013" gradientUnits="userSpaceOnUse">
<stop stop-color="#0c3fbf"/>
<stop offset="1" stop-color="#0c3fbf" stop-opacity="0"/>
</linearGradient>
<linearGradient id="paint25_linear_3071_12308" x1="1403" y1="607.836" x2="1495" y2="607.836" gradientUnits="userSpaceOnUse">
<stop stop-color="#0c3fbf"/>
<stop offset="1" stop-color="#0c3fbf" stop-opacity="0"/>
</linearGradient>
<linearGradient id="paint26_linear_3071_12308" x1="1276" y1="903.213" x2="1368" y2="903.213" gradientUnits="userSpaceOnUse">
<stop stop-color="#0c3fbf"/>
<stop offset="1" stop-color="#0c3fbf" stop-opacity="0"/>
</linearGradient>
<clipPath id="clip0_3071_12308">
<rect width="1510" height="1151" fill="white"/>
</clipPath>
</defs>
</svg>
