
<svg width="0" height="0" class="hidden">
  <symbol xmlns="http://www.w3.org/2000/svg" viewBox="0 0 20 20" id="arrow-down-solid">
    <path fill-rule="evenodd" clip-rule="evenodd" d="M16.707 10.293a1 1 0 010 1.414l-6 6a1 1 0 01-1.414 0l-6-6a1 1 0 111.414-1.414L9 14.586V3a1 1 0 012 0v11.586l4.293-4.293a1 1 0 011.414 0z" fill="currentColor"></path>
  </symbol>
  <symbol xmlns="http://www.w3.org/2000/svg" viewBox="0 0 32 32" id="arrow-left-solid">
    <title>arrow-left-solid</title>
    <path d="M13.422 2.08a2.726 2.726 0 00-.513.237l.012-.007c-.122.076-3.018 2.939-6.435 6.361C.559 14.61.269 14.912.133 15.28a1.976 1.976 0 00.004 1.442l-.005-.013c.136.368.426.67 6.387 6.641 6.817 6.83 6.549 6.587 7.376 6.639l.078.002A2.028 2.028 0 0016 28.002V28c0-.18-.064-.502-.142-.714-.132-.366-.372-.618-4.584-4.838l-4.442-4.452h23.504l.382-.142c.248-.094.492-.254.694-.454a1.98 1.98 0 00-.511-3.18l-.011-.005-.382-.186-23.674-.036 4.442-4.45c4.21-4.22 4.45-4.472 4.582-4.838a1.974 1.974 0 00-1.736-2.689h-.005a2.202 2.202 0 00-.712.07l.015-.003z"></path>
  </symbol>
  <symbol xmlns="http://www.w3.org/2000/svg" viewBox="0 0 32 32" id="arrow-left">
    <title>arrow-left</title>
    <path d="M12.276 3.286c-.213.102-1.765 1.608-5.918 5.739-1.892 1.89-3.798 3.779-5.712 5.661l-.14.137c-.257.227-.507.806-.507 1.178 0 .366.249.953.5 1.178.121.109 2.756 2.717 5.854 5.798 4.258 4.233 5.707 5.635 5.927 5.739.575.272 1.125.134 1.678-.417.551-.553.689-1.103.417-1.678-.104-.221-1.22-1.378-4.49-4.656l-4.353-4.364 12.562-.002c8.358-.002 12.658-.024 12.85-.067.708-.161 1.052-.651 1.053-1.498 0-.607-.09-.895-.368-1.181-.441-.452.724-.416-13.375-.433l-12.722-.018 4.353-4.362c3.269-3.278 4.385-4.436 4.489-4.656.272-.575.134-1.125-.417-1.678-.553-.551-1.113-.691-1.683-.417z"></path>
  </symbol>
  <symbol xmlns="http://www.w3.org/2000/svg" viewBox="0 0 32 32" id="arrow-narrow-left-solid">
    <title>arrow-narrow-left-solid</title>
    <path d="M9.42 6.08a2.726 2.726 0 00-.513.237l.012-.007c-.122.076-2.117 2.037-4.432 4.36C.453 14.714.269 14.908.129 15.292a1.73 1.73 0 00-.124.81v-.006c.052.808-.014.734 4.638 5.375 4.026 4.016 4.274 4.252 4.64 4.384a1.963 1.963 0 002.119-.454 1.965 1.965 0 00.45-2.132l.005.013c-.132-.358-.318-.562-2.583-2.837l-2.439-2.451h23.502l.382-.142c.248-.094.492-.254.694-.454a1.98 1.98 0 00-.511-3.18l-.011-.005-.382-.186-23.674-.036 2.441-2.449c2.263-2.275 2.449-2.479 2.581-2.837a1.972 1.972 0 00-1.736-2.689h-.005a2.202 2.202 0 00-.712.069l.015-.003z"></path>
  </symbol>
  <symbol xmlns="http://www.w3.org/2000/svg" viewBox="0 0 32 32" id="arrow-narrow-left">
    <title>arrow-narrow-left</title>
    <path d="M7.481 8.083c-.205.099-1.213 1.055-3.52 3.341a364.781 364.781 0 01-3.367 3.312l-.089.086C.249 15.049 0 15.628 0 16c0 .364.249.953.5 1.178.12.109 1.675 1.638 3.456 3.398 2.369 2.345 3.315 3.24 3.529 3.341.574.273 1.125.136 1.678-.416.553-.555.689-1.105.416-1.678-.099-.206-.711-.87-2.091-2.259l-1.95-1.966 12.561-.002c8.357-.002 12.655-.024 12.847-.067.708-.161 1.052-.651 1.053-1.498 0-.607-.09-.895-.368-1.181-.441-.452.724-.416-13.373-.433l-12.719-.018 1.95-1.965c1.378-1.389 1.99-2.052 2.089-2.259.273-.574.137-1.124-.416-1.678-.555-.553-1.113-.691-1.683-.416z"></path>
  </symbol>
  <symbol xmlns="http://www.w3.org/2000/svg" viewBox="0 0 32 32" id="arrow-narrow-right-solid">
    <title>arrow-narrow-right-solid</title>
    <path d="M21.357 6.109a1.975 1.975 0 00-1.21 2.608l-.005-.013c.132.358.318.562 2.581 2.837l2.441 2.449-23.674.036-.382.186a1.985 1.985 0 00-.523 3.186c.202.2.446.36.694.454l.382.142h23.502l-2.439 2.451c-2.265 2.275-2.451 2.479-2.583 2.837a1.963 1.963 0 00.454 2.119 1.965 1.965 0 002.132.45l-.013.005c.366-.132.614-.368 4.64-4.384 4.652-4.64 4.586-4.566 4.638-5.375a1.763 1.763 0 00-.128-.816l.004.012c-.14-.384-.324-.578-4.39-4.654-3.416-3.424-4.312-4.288-4.594-4.426a2.054 2.054 0 00-1.543-.1l.014-.004z"></path>
  </symbol>
  <symbol xmlns="http://www.w3.org/2000/svg" viewBox="0 0 32 32" id="arrow-narrow-right">
    <title>arrow-narrow-right</title>
    <path d="M23.394 8.071a2.741 2.741 0 00-.978.977l-.007.013c-.077.16-.122.347-.122.546 0 .207.049.403.137.576l-.003-.007c.099.206.711.87 2.091 2.259l1.95 1.966-12.561.002c-8.357.002-12.655.024-12.847.067a1.318 1.318 0 00-.904.682l-.003.007c-.117.238-.145.404-.145.841 0 .89.326 1.364 1.053 1.53.192.043 4.508.066 12.847.067l12.561.002-1.95 1.966c-1.379 1.389-1.992 2.052-2.091 2.259-.273.574-.137 1.124.416 1.678.553.551 1.105.689 1.678.416.214-.101 1.154-.991 3.525-3.341a377.995 377.995 0 013.364-3.309l.092-.089c.256-.227.505-.806.505-1.178 0-.369-.241-.929-.502-1.167a609 609 0 01-3.485-3.435l.026.025c-2.371-2.35-3.31-3.24-3.525-3.341a1.287 1.287 0 00-1.128-.006l.008-.003z"></path>
  </symbol>
  <symbol xmlns="http://www.w3.org/2000/svg" viewBox="0 0 32 32" id="arrow-right">
    <title>arrow-right</title>
    <path d="M18.598 3.276a2.741 2.741 0 00-.978.977l-.007.013a1.283 1.283 0 00.013 1.121l-.003-.007c.104.221 1.22 1.378 4.49 4.656l4.353 4.364-12.562.002c-8.358.002-12.658.024-12.85.067a1.318 1.318 0 00-.904.682l-.003.007c-.117.238-.145.404-.145.841 0 .89.326 1.364 1.053 1.53.192.043 4.509.066 12.85.067l12.562.002-4.353 4.364c-3.27 3.278-4.386 4.436-4.49 4.656-.272.575-.134 1.125.417 1.678.553.551 1.103.689 1.678.417.222-.104 1.664-1.503 5.922-5.739 1.892-1.89 3.798-3.779 5.712-5.661l.14-.137c.257-.227.507-.806.507-1.178 0-.369-.241-.929-.502-1.167a1253.348 1253.348 0 01-5.877-5.828l.019.019c-4.257-4.238-5.699-5.635-5.921-5.739a1.3 1.3 0 00-1.129-.005l.008-.003z"></path>
  </symbol>
  <symbol xmlns="http://www.w3.org/2000/svg" viewBox="0 0 32 32" id="arrow-sm-right-solid">
    <title>arrow-sm-right-solid</title>
    <path d="M17.807 2.81a2.634 2.634 0 00-1.613 3.479l-.006-.018c.176.478.424.75 3.442 3.781l3.253 3.269-20.894.048-.51.248A2.646 2.646 0 000 15.989c0 .734.299 1.397.782 1.876.27.267.595.48.926.606l.51.189h20.667l-3.253 3.269c-3.021 3.034-3.269 3.306-3.445 3.784-.113.283-.179.61-.179.953 0 .733.3 1.396.785 1.872a2.63 2.63 0 002.843.6l-.018.006c.488-.176.819-.491 6.188-5.847 6.204-6.188 6.116-6.089 6.186-7.168a2.342 2.342 0 00-.171-1.088l.006.016c-.187-.512-.432-.771-5.855-6.207-4.555-4.566-5.751-5.719-6.127-5.903a2.686 2.686 0 00-1.191-.274c-.303 0-.595.049-.867.141l.019-.006z"></path>
  </symbol>
  <symbol xmlns="http://www.w3.org/2000/svg" viewBox="0 0 20 20" id="arrow-up-solid">
    <path fill-rule="evenodd" clip-rule="evenodd" d="M3.293 9.707a1 1 0 010-1.414l6-6a1 1 0 011.414 0l6 6a1 1 0 01-1.414 1.414L11 5.414V17a1 1 0 11-2 0V5.414L4.707 9.707a1 1 0 01-1.414 0z" fill="currentColor"></path>
  </symbol>
  <symbol xmlns="http://www.w3.org/2000/svg" viewBox="0 0 32 32" id="arrow-up">
    <title>arrow-up</title>
    <path d="M24.727 9.479c-.022.657-.838.948-1.272.454L16.72 2.6v28.638c-.019.469-.359.779-.761.76s-.712-.359-.693-.76V2.6L8.542 9.933c-.269.299-.731.323-1.03.053s-.322-.732-.05-1.029L15.458.24a.726.726 0 011.079 0l7.996 8.717a.725.725 0 01.193.522z"></path>
  </symbol>
  <symbol xmlns="http://www.w3.org/2000/svg" viewBox="0 0 32 32" id="arrows-expand">
    <title>arrows-expand</title>
    <path d="M1.089.159C.639.32.293.672.143 1.115l-.003.011c-.135.371-.138.527-.103 4.393l.037 4.008.168.342c.216.438.571.674 1.174.777.897.154 1.655-.145 1.965-.777.161-.326.17-.422.192-2.036l.023-1.695 3.065 3.056c2.286 2.281 3.144 3.093 3.382 3.201.646.293 1.256.14 1.866-.468.612-.614.764-1.224.463-1.862-.114-.238-.968-1.144-3.208-3.393L6.11 3.604h1.564c1.126 0 1.656-.027 1.89-.098.77-.232 1.078-.713 1.078-1.676 0-.988-.36-1.509-1.169-1.697C9.278.089 7.652.051 5.302.041 1.633.023 1.434.029 1.088.16zm25.09-.105L22.49.091l-.342.168c-.438.216-.674.571-.777 1.174-.154.897.145 1.655.777 1.965.326.161.422.17 2.036.192l1.695.023-3.056 3.064c-3.244 3.251-3.345 3.373-3.345 4.019 0 .433.19.821.605 1.236.608.608 1.229.759 1.869.454.238-.112 1.151-.975 3.387-3.201l3.064-3.049.021 1.695c.021 1.616.03 1.71.192 2.036.216.438.571.674 1.174.777.897.154 1.655-.145 1.965-.777l.168-.342.037-4.008c.037-3.87.034-4.02-.103-4.393a2.037 2.037 0 00-.364-.609l.002.003c-.282-.28-.947-.539-1.335-.518-.161.009-1.954.032-3.983.053zM10.043 19.64c-.238.108-1.096.92-3.382 3.201l-3.064 3.056-.023-1.695c-.021-1.614-.03-1.71-.192-2.036-.31-.631-1.068-.931-1.965-.777-.603.103-.958.339-1.174.777l-.168.342-.037 4.008c-.037 3.87-.034 4.02.103 4.393.154.46.509.815.958.965l.011.003c.371.135.527.138 4.393.103l4.008-.037.342-.168c.63-.31.938-1.11.771-2.006-.106-.573-.344-.922-.771-1.133-.326-.161-.42-.17-2.036-.192l-1.695-.021 3.049-3.064c2.226-2.236 3.089-3.15 3.201-3.387.303-.637.144-1.27-.472-1.887-.585-.583-1.213-.734-1.855-.443zm10.673-.014c-.365.167-.94.741-1.107 1.107a1.53 1.53 0 00.018 1.251l-.004-.009c.108.238.92 1.096 3.201 3.382l3.056 3.064-1.695.023c-1.614.021-1.71.03-2.036.192-.438.216-.674.571-.777 1.174-.154.897.145 1.655.777 1.965l.342.168 4.008.037c3.87.037 4.02.034 4.393-.103.46-.154.815-.509.965-.958l.003-.011c.137-.372.14-.523.103-4.393l-.037-4.008-.168-.342c-.31-.631-1.068-.931-1.965-.777-.603.103-.958.339-1.174.777-.161.326-.17.422-.192 2.036l-.023 1.695-3.064-3.056c-2.286-2.281-3.144-3.093-3.382-3.201a1.542 1.542 0 00-1.252-.01l.01-.004z"></path>
  </symbol>
  <symbol xmlns="http://www.w3.org/2000/svg" viewBox="0 0 39 32" id="burger-menu">
    <title>burger-menu</title>
    <path d="M36.963 4.571H2.311c-1.275 0-2.31-1.022-2.31-2.286S1.036-.001 2.311-.001h34.652c1.275 0 2.31 1.022 2.31 2.286s-1.035 2.286-2.31 2.286zm0 27.429H2.311c-1.275 0-2.31-1.022-2.31-2.286s1.035-2.286 2.31-2.286h34.652c1.275 0 2.31 1.022 2.31 2.286S38.238 32 36.963 32zm0-13.714H2.311c-1.275 0-2.31-1.022-2.31-2.286s1.035-2.286 2.31-2.286h34.652c1.275 0 2.31 1.022 2.31 2.286s-1.035 2.286-2.31 2.286z"></path>
  </symbol>
  <symbol xmlns="http://www.w3.org/2000/svg" viewBox="0 0 32 32" id="calendar">
    <title>calendar</title>
    <path d="M26.667 26.667h-5.333v-5.333h5.333v5.333zm-8-13.334h-5.333v5.333h5.333v-5.333zm8 0h-5.333v5.333h5.333v-5.333zm-16 8H5.334v5.333h5.333v-5.333zm8 0h-5.333v5.333h5.333v-5.333zm-8-8H5.334v5.333h5.333v-5.333zM32 2.667V32H0V2.667h4V4c0 1.471 1.196 2.667 2.667 2.667S9.334 5.471 9.334 4V2.667h13.333V4c0 1.471 1.196 2.667 2.667 2.667S28.001 5.471 28.001 4V2.667h4zm-2.667 8H2.666v18.667h26.667V10.667zm-2.666-9.334a1.333 1.333 0 10-2.666 0V4a1.333 1.333 0 102.666 0V1.333zM8 4a1.333 1.333 0 11-2.666 0V1.333a1.333 1.333 0 112.666 0V4z"></path>
  </symbol>
  <symbol xmlns="http://www.w3.org/2000/svg" viewBox="0 0 32 32" id="camera">
    <title>camera</title>
    <path d="M16 12q2.125 0 3.634 1.509t1.509 3.634-1.509 3.634T16 22.286t-3.634-1.509-1.509-3.634 1.509-3.634T16 12zm12.571-7.429q1.893 0 3.232 1.339t1.339 3.232v16q0 1.893-1.339 3.232t-3.232 1.339H3.428q-1.893 0-3.232-1.339t-1.339-3.232v-16q0-1.893 1.339-3.232t3.232-1.339h4l.911-2.429Q8.678 1.267 9.58.633t1.848-.634h9.143q.946 0 1.848.634t1.241 1.509l.911 2.429h4zM16 25.143q3.304 0 5.652-2.348T24 17.143t-2.348-5.652T16 9.143t-5.652 2.348T8 17.143t2.348 5.652T16 25.143z"></path>
  </symbol>
  <symbol xmlns="http://www.w3.org/2000/svg" viewBox="0 0 32 32" id="caret-left">
    <title>caret-left</title>
    <path d="M22.196.15C21.764.336 7.477 14.592 7.199 15.113c-.127.26-.201.566-.201.889s.074.629.207.902l-.005-.012c.295.553 14.57 14.781 15.016 14.967.389.161 1.158.189 1.507.056.374-.142.923-.679 1.105-1.081.163-.358.17-1.051.172-14.811.003-15.825.04-14.788-.54-15.398a2.076 2.076 0 00-2.277-.471l.014-.005z"></path>
  </symbol>
  <symbol xmlns="http://www.w3.org/2000/svg" viewBox="0 0 32 32" id="caret-right">
    <title>caret-right</title>
    <path d="M8.163.145a2.303 2.303 0 00-.987 1.003l-.006.013c-.165.358-.172.956-.172 14.835 0 13.788.007 14.479.17 14.837.183.402.732.939 1.106 1.081.349.133 1.118.105 1.508-.056.446-.186 14.727-14.419 15.021-14.972.125-.244.199-.532.199-.837l-.001-.055v.003l.001-.053c0-.305-.074-.594-.204-.848l.005.01C24.508 14.553 10.227.32 9.782.134 9.336-.05 8.525-.045 8.164.145z"></path>
  </symbol>
  <symbol xmlns="http://www.w3.org/2000/svg" viewBox="0 0 32 32" id="chat">
    <title>chat</title>
    <path d="M27.225 3.936A16.362 16.362 0 0021.312.765a17.574 17.574 0 00-4.087-.733c-.355-.033-.716-.033-1.075-.033s-.64 0-.96.029c-.889.046-1.774.142-2.653.287a16.731 16.731 0 00-5.296 1.924A14.51 14.51 0 001.84 7.326a11.773 11.773 0 00-1.485 9.188 12.75 12.75 0 004.125 6.681 16.708 16.708 0 009.11 4.033 1.462 1.462 0 011.37 1.633c0 .525-.119 1.046-.182 1.567-.099.387-.12.791-.064 1.188.016.206.182.37.39.384h.071c.329-.043.651-.126.96-.25a21.431 21.431 0 003.861-2.31 63.74 63.74 0 007.549-6.256 16.678 16.678 0 002.215-2.482 12.228 12.228 0 002.24-6.96 11.998 11.998 0 00-.451-3.274 13.215 13.215 0 00-4.324-6.531zm.937 15.68h.001a15.05 15.05 0 01-1.956 2.195 62.34 62.34 0 01-7.327 6.054c-.675.476-1.344.941-2.025 1.348v-.291a3.381 3.381 0 00-3.038-3.594 14.716 14.716 0 01-8.058-3.567 10.793 10.793 0 01-3.539-5.696 9.812 9.812 0 011.26-7.744 12.547 12.547 0 014.704-4.419 14.904 14.904 0 014.695-1.694c.807-.132 1.621-.22 2.439-.262.265-.025.544-.025.831-.025s.64 0 .96.029c1.234.069 2.455.284 3.639.64 1.92.56 3.701 1.514 5.233 2.8A11.278 11.278 0 0129.702 11c.251.891.378 1.813.378 2.739a10.367 10.367 0 01-1.92 5.869l.002.01zM16.243 12.48a1.84 1.84 0 101.836 1.84 1.855 1.855 0 00-1.836-1.84zm-6.697 0a1.842 1.842 0 10.658 3.549 1.845 1.845 0 00.638-2.995 1.836 1.836 0 00-1.295-.554zm13.119 0a1.84 1.84 0 101.816 1.839 1.832 1.832 0 00-1.815-1.84z"></path>
  </symbol>
  <symbol xmlns="http://www.w3.org/2000/svg" viewBox="0 0 32 32" id="check-circle-solid">
    <title>check-circle-solid</title>
    <path d="M14.866.018l-.853.1c-3.84.447-7.698 2.514-10.148 5.435C1.806 8.007.614 10.619.133 13.736c-.166 1.072-.166 3.468 0 4.539 1.102 7.128 6.472 12.498 13.6 13.6 1.072.166 3.468.166 4.539 0a16.37 16.37 0 008.137-3.69l-.024.02c2.532-2.135 4.395-5.164 5.198-8.462.321-1.318.409-2.115.409-3.738 0-1.108-.032-1.705-.12-2.27-.779-5.046-3.7-9.279-8.093-11.729A15.733 15.733 0 0018.36.158l-.088-.011c-.667-.102-2.911-.186-3.405-.13zm8.043 10.206c.697.341 1.07.958 1.072 1.775.002.901.156.719-4.621 5.485-4.03 4.02-4.279 4.257-4.645 4.389a1.957 1.957 0 01-1.443-.005l.013.005c-.357-.13-.559-.313-2.642-2.388-2.576-2.56-2.62-2.62-2.618-3.48.004-1.148.811-1.969 1.935-1.969.843 0 .954.072 2.59 1.693l1.452 1.44 3.422-3.412c1.881-1.877 3.496-3.452 3.588-3.5a2.124 2.124 0 011.899-.034z"></path>
  </symbol>
  <symbol xmlns="http://www.w3.org/2000/svg" viewBox="0 0 32 32" id="check-circle">
    <title>check-circle</title>
    <path d="M14.942.016c-1.633.164-2.658.369-3.944.793C7.255 2.045 4.227 4.482 2.2 7.886 1.139 9.672.392 11.862.089 14.085c-.107.786-.107 3.062 0 3.847.612 4.487 2.833 8.291 6.387 10.947 2.14 1.6 4.779 2.655 7.6 3.039.786.107 3.062.107 3.847 0 5.067-.693 9.327-3.483 11.877-7.788 1.063-1.794 1.807-3.979 2.11-6.199.107-.785.107-3.062 0-3.847-.693-5.067-3.483-9.327-7.788-11.877C22.373 1.171 20.27.44 18.147.133c-.632-.091-2.708-.168-3.206-.119zm3.142 3.324c1.349.226 2.558.633 3.672 1.2l-.072-.033c1.266.614 2.369 1.419 3.447 2.512 1.908 1.938 3.038 4.139 3.54 6.906.167.911.167 3.257 0 4.168-.338 1.868-.968 3.474-1.935 4.942-1.722 2.613-4.48 4.615-7.404 5.372-1.27.329-1.795.39-3.331.39-1.533 0-2.062-.061-3.323-.388-2.946-.761-5.633-2.709-7.409-5.369-.951-1.422-1.598-3.076-1.938-4.947-.167-.911-.167-3.257 0-4.168.372-2.044 1.09-3.777 2.22-5.354 2.074-2.888 5.257-4.866 8.913-5.313l.062-.006c.713-.088 2.874-.034 3.559.088zm2.148 7.935c-.205.099-1.09.936-3.06 2.897L14.4 16.929l-1.172-1.153c-.757-.744-1.276-1.202-1.465-1.294-.574-.277-1.127-.141-1.683.415-.553.555-.691 1.106-.418 1.683.196.414 3.749 3.968 4.163 4.163.167.083.364.131.572.131s.405-.048.58-.135l-.008.003c.422-.197 7.172-6.948 7.369-7.369.273-.577.135-1.129-.418-1.683-.556-.555-1.116-.693-1.688-.417z"></path>
  </symbol>
  <symbol xmlns="http://www.w3.org/2000/svg" viewBox="0 0 32 32" id="check">
    <title>check</title>
    <path d="M29.216 4.152c-.269.129-2.731 2.54-9.771 9.572l-9.414 9.399-3.443-3.427c-2.518-2.504-3.543-3.473-3.81-3.599-.715-.34-1.401-.169-2.09.517-.687.689-.858 1.373-.519 2.09.245.523 8.626 8.905 9.15 9.15.208.103.453.163.713.163.258 0 .501-.059.718-.165l-.01.004c.529-.249 20.845-20.564 21.094-21.094.336-.719.165-1.401-.521-2.09-.689-.687-1.383-.86-2.096-.519z"></path>
  </symbol>
  <symbol xmlns="http://www.w3.org/2000/svg" viewBox="0 0 32 32" id="chevron-down">
    <title>chevron-down</title>
    <path d="M1.379 7.126A3.42 3.42 0 00.161 8.342l-.009.016a1.601 1.601 0 00.016 1.396l-.004-.009c.245.528 14.596 14.878 15.123 15.123a1.622 1.622 0 001.431-.004l-.01.004c.528-.245 14.878-14.596 15.123-15.123.338-.719.167-1.401-.52-2.09-.689-.687-1.374-.858-2.09-.52-.277.129-1.927 1.732-6.794 6.587l-6.43 6.416-6.43-6.416C4.7 8.867 3.05 7.264 2.773 7.135a1.609 1.609 0 00-1.405-.006l.01-.004z"></path>
  </symbol>
  <symbol xmlns="http://www.w3.org/2000/svg" viewBox="0 0 32 32" id="chevron-left-solid">
    <title>chevron-left-solid</title>
    <path d="M21.483.114a4.317 4.317 0 00-.821.38l.02-.011c-.195.122-3.39 3.262-7.098 6.983-6.46 6.476-6.755 6.787-6.98 7.403a2.777 2.777 0 00-.198 1.298l-.001-.01c.083 1.295-.022 1.176 7.428 8.608 6.448 6.432 6.845 6.81 7.431 7.021.34.136.733.215 1.145.215.88 0 1.676-.361 2.248-.942a3.143 3.143 0 00.943-2.249c0-.412-.079-.806-.223-1.166l.008.021c-.212-.583-.551-.945-5.739-6.146l-5.512-5.528 5.512-5.528c5.188-5.201 5.528-5.563 5.739-6.146A3.16 3.16 0 0022.604.01h-.008a3.496 3.496 0 00-1.139.111l.024-.006z"></path>
  </symbol>
  <symbol xmlns="http://www.w3.org/2000/svg" viewBox="0 0 32 32" id="chevron-left">
    <title>chevron-left</title>
    <path d="M22.247.169C21.722.42 7.373 14.772 7.132 15.29a1.622 1.622 0 00.004 1.431l-.004-.01c.245.527 14.593 14.876 15.121 15.121.719.338 1.401.167 2.09-.519.687-.689.858-1.373.519-2.09-.129-.277-1.732-1.927-6.586-6.793l-6.415-6.429 6.415-6.429c4.854-4.866 6.457-6.516 6.586-6.793.338-.717.167-1.401-.519-2.09-.689-.687-1.383-.86-2.096-.519z"></path>
  </symbol>
  <symbol xmlns="http://www.w3.org/2000/svg" viewBox="0 0 32 32" id="chevron-right-circle">
    <title>chevron-right-circle</title>
    <path d="M15.007.014c-1.161.114-1.505.16-2.199.299C6.68 1.537 1.732 6.362.377 12.434c-.303 1.355-.369 1.984-.373 3.524C0 17.476.05 18.001.321 19.306c1.141 5.497 5.229 10.092 10.571 11.877 1.693.567 3.279.82 5.109.817 2.525-.004 4.697-.502 6.966-1.596 4.063-1.96 7.05-5.478 8.382-9.874.728-2.407.847-5.167.332-7.721-1.091-5.22-4.604-9.438-9.283-11.485l-.103-.04c-1.424-.61-2.729-.963-4.33-1.169-.619-.08-2.511-.143-2.958-.1zm3.167 1.205c.896.135 2.177.455 2.914.726.699.257 2.235 1.014 2.847 1.401a16.35 16.35 0 013.489 3.043l.018.021c1.304 1.552 2.433 3.687 2.942 5.567a14.01 14.01 0 01.527 3.853l-.001.134v-.007c.001 1.745-.217 3.149-.733 4.707-1.576 4.762-5.312 8.338-10.167 9.732-1.309.375-2.535.539-4.035.536-2.473-.004-4.611-.518-6.801-1.636-1.41-.72-2.504-1.526-3.718-2.739-2.398-2.397-3.775-5.157-4.28-8.582-.119-.805-.134-3.012-.026-3.792.578-4.172 2.606-7.658 5.901-10.142C9.324 2.329 11.828 1.387 14.9 1.09c.588-.058 2.562.021 3.276.129zm-5.166 6.452c-.202.123-.274.363-.169.56.038.074 1.488 1.593 3.22 3.379 1.732 1.785 3.372 3.479 3.645 3.765l.495.518-3.645 3.752c-2.005 2.063-3.677 3.81-3.715 3.882-.191.351.215.778.599.63.068-.025 4.429-4.492 7.126-7.297.8-.832.854-.926.694-1.202-.095-.163-7.533-7.825-7.736-7.969-.209-.147-.294-.15-.513-.017z"></path>
  </symbol>
  <symbol xmlns="http://www.w3.org/2000/svg" viewBox="0 0 32 32" id="chevron-right-solid">
    <title>chevron-right-solid</title>
    <path d="M8.561.162A3.167 3.167 0 006.623 4.34l-.008-.021c.211.583.551.945 5.739 6.146l5.511 5.527-5.511 5.527c-5.188 5.201-5.527 5.563-5.739 6.146A3.1 3.1 0 006.4 28.81c0 .88.361 1.676.942 2.248a3.143 3.143 0 002.248.943c.412 0 .805-.079 1.166-.223l-.021.008c.586-.211.984-.59 7.431-7.021 7.45-7.431 7.344-7.312 7.427-8.607a2.799 2.799 0 00-.206-1.307l.007.019c-.224-.615-.519-.926-7.03-7.453C12.894 1.935 11.459.55 11.007.329A3.235 3.235 0 009.577 0c-.364 0-.714.059-1.041.169l.023-.007z"></path>
  </symbol>
  <symbol xmlns="http://www.w3.org/2000/svg" viewBox="0 0 32 32" id="chevron-right">
    <title>chevron-right</title>
    <path d="M8.351.154A3.42 3.42 0 007.133 1.37l-.009.016a1.601 1.601 0 00.016 1.396l-.004-.009c.129.277 1.732 1.927 6.587 6.794l6.416 6.43-6.416 6.43c-4.855 4.867-6.458 6.518-6.587 6.794-.338.717-.167 1.401.52 2.09.689.687 1.372.858 2.09.52.528-.245 14.878-14.596 15.123-15.123a1.622 1.622 0 00-.004-1.431l.004.01C24.624 14.759 10.273.409 9.746.164A1.609 1.609 0 008.341.158l.01-.004z"></path>
  </symbol>
  <symbol xmlns="http://www.w3.org/2000/svg" viewBox="0 0 32 32" id="chevron-up">
    <title>chevron-up</title>
    <path d="M15.284 7.132C14.759 7.383.41 21.736.169 22.253c-.338.719-.167 1.401.519 2.09.689.687 1.373.858 2.09.52.277-.129 1.927-1.732 6.793-6.586L16 11.862l6.429 6.415c4.867 4.855 6.517 6.457 6.793 6.586.717.338 1.401.167 2.09-.52.687-.689.858-1.371.52-2.09-.245-.527-14.594-14.876-15.121-15.121-.209-.103-.454-.163-.714-.163s-.505.06-.723.168l.01-.004z"></path>
  </symbol>
  <symbol xmlns="http://www.w3.org/2000/svg" viewBox="0 0 32 32" id="clic">
    <title>clic</title>
    <path d="M6.583 31.764c.342.002.669-.134.91-.376l4.152-4.152 3.732 3.703c.318.315.774.443 1.208.34.434-.105.783-.425.924-.848l7.156-21.583a1.289 1.289 0 00-1.639-1.623L1.559 14.553a1.29 1.29 0 00-.492 2.131l3.692 3.678-4.146 4.146a1.288 1.288 0 000 1.82l5.06 5.06c.242.241.568.378.91.376zm5.061-7.634a1.278 1.278 0 00-.912.376l-4.148 4.15-3.238-3.238 4.148-4.148a1.288 1.288 0 000-1.822l-3.142-3.126 17.05-5.821-5.684 17.144-3.166-3.144a1.281 1.281 0 00-.908-.371zm12.186-8.779a6.256 6.256 0 003.542-10.64 6.253 6.253 0 00-10.6 3.653l-2.823.965v-.171c0-4.977 4.048-9.024 9.024-9.024S32 4.182 32 9.158c0 4.977-4.05 9.027-9.027 9.027h-.082l.939-2.835z"></path>
  </symbol>
  <symbol xmlns="http://www.w3.org/2000/svg" viewBox="0 0 24 24" id="clock">
    <path d="M9 7h2v5h5v2H9V7z" fill="currentColor"></path>
    <path fill-rule="evenodd" clip-rule="evenodd" d="M22 12c0 5.523-4.477 10-10 10S2 17.523 2 12 6.477 2 12 2s10 4.477 10 10zm-2 0a8 8 0 11-16 0 8 8 0 0116 0z" fill="currentColor"></path>
  </symbol>
  <symbol xmlns="http://www.w3.org/2000/svg" viewBox="0 0 32 32" id="close">
    <title>close</title>
    <path d="M29.37.57L16 13.943 2.627.57A1.455 1.455 0 00.57 2.627L13.943 16 .569 29.37a1.456 1.456 0 00-.001 2.057l.002.001c.567.569 1.489.57 2.058.001L16 18.057l13.369 13.372a1.455 1.455 0 002.058-.001l.002-.002a1.455 1.455 0 00-.001-2.056L18.057 16l13.37-13.373A1.455 1.455 0 0029.37.57z"></path>
  </symbol>
  <symbol xmlns="http://www.w3.org/2000/svg" viewBox="0 0 32 32" id="cloud-download">
    <title>cloud-download</title>
    <path d="M13.648.048a9.547 9.547 0 00-3.109.923l.056-.025c-1.402.703-2.804 2.041-3.605 3.441-.723 1.264-1.156 2.953-1.156 4.508v.415l-.465.228c-.906.447-1.894 1.319-2.573 2.27-.16.224-.43.697-.603 1.052-1.044 2.153-.911 4.776.349 6.852 1.212 1.996 3.219 3.239 5.597 3.467.806.077 1.191.023 1.541-.215.536-.363.67-1.496.251-2.128-.218-.33-.564-.465-1.329-.519-.831-.058-1.111-.128-1.752-.436-1.467-.701-2.462-2.173-2.462-3.877 0-.096.003-.19.009-.284l-.001.013c.051-.985.333-1.721.96-2.512.581-.732 1.255-1.168 2.307-1.492.699-.216.965-.386 1.127-.722.148-.307.155-.641.029-1.349-.183-1.021-.041-2.225.382-3.239.54-1.3 1.766-2.526 3.066-3.067.848-.354 1.227-.426 2.281-.429.831-.001 1.024.016 1.453.134 2.051.564 3.601 2.105 4.156 4.131.2.731.295.943.514 1.153.267.259.447.308 1.315.362 1.64.102 2.847.626 3.926 1.705a5.832 5.832 0 011.539 2.655l.009.041c.186.677.183 2.105-.004 2.828-.51 1.968-2.021 3.553-3.931 4.124l-.813.244c-.66.199-.938.62-.883 1.336.062.832.417 1.304 1.066 1.421.304.054.411.042 1.008-.11 1.678-.431 3.004-1.203 4.191-2.44a8.654 8.654 0 002.412-6.008 8.646 8.646 0 00-1.77-5.256l.016.021c-.722-.96-1.942-1.987-2.987-2.51a9.902 9.902 0 00-2.742-.865l-.059-.008c-.17-.028-.219-.065-.251-.192-.076-.304-.604-1.332-.966-1.877-.5-.752-1.583-1.829-2.352-2.337a8.592 8.592 0 00-4.84-1.477c-.32 0-.636.017-.947.051l.039-.003zm1.827 11.633c-.376.106-.606.289-.763.607l-.135.276-.032 14.399-1.069-1.056c-1.136-1.121-1.367-1.283-1.833-1.283-.354 0-.673.155-1.012.495-.492.492-.619 1.002-.379 1.533.086.187.715.863 2.31 2.477 1.204 1.22 2.27 2.308 2.369 2.417.205.228.739.455 1.071.455.317 0 .866-.227 1.05-.433.087-.097 1.149-1.184 2.362-2.414 1.573-1.596 2.24-2.313 2.33-2.503.248-.521.119-1.04-.386-1.546-.327-.325-.648-.481-.998-.481-.466 0-.697.161-1.835 1.284l-1.071 1.058-.001-7.055c-.001-4.603-.022-7.147-.061-7.317-.138-.607-.559-.93-1.265-.966a2.49 2.49 0 00-.667.057l.016-.003z"></path>
  </symbol>
  <symbol xmlns="http://www.w3.org/2000/svg" viewBox="0 0 32 32" id="cloud-upload-solid">
    <title>cloud-upload-solid</title>
    <path d="M13.544.026c-.916.1-1.753.351-2.516.728l.044-.02c-2.365 1.191-3.96 3.599-3.96 6.38 0 .375.029.743.085 1.102l-.005-.04c.046.312.101.609.123.66.03.078-.023.103-.294.137-1.182.148-2.52.838-3.446 1.776a6.199 6.199 0 00-1.628 2.871l-.009.043c-.194.746-.199 2.129-.011 2.878.589 2.332 2.268 4.019 4.615 4.644.456.121.627.126 4.078.148l3.603.02.016 4.671c.018 4.635.018 4.671.144 4.945.164.354.552.74.902.899.404.183 1.066.176 1.458-.014.378-.191.678-.491.865-.858l.005-.011.142-.292.018-4.667.016-4.669 2.802-.025c2.579-.023 2.841-.036 3.305-.148 1.71-.416 2.976-1.136 4.135-2.348a7.474 7.474 0 001.743-2.811l.016-.052c.347-1 .422-1.467.422-2.634s-.073-1.63-.424-2.638a7.727 7.727 0 00-2.042-3.146l-.005-.004a7.756 7.756 0 00-2.921-1.785l-.055-.016c-.968-.317-1.394-.381-2.563-.386l-1.073-.004-.109-.376c-.16-.561-.692-1.6-1.093-2.129a7.161 7.161 0 00-4.6-2.768l-.04-.005a7.551 7.551 0 00-1.771-.053l.028-.002zm3.249 9.061c.247.121.899.742 3.195 3.047 3.213 3.223 3.108 3.092 3.108 3.903 0 1.233-1.209 2.058-2.385 1.623-.308-.114-.477-.26-1.634-1.406l-1.29-1.28v6.372h-3.56v-6.372l-1.29 1.28c-1.157 1.146-1.326 1.292-1.634 1.406a1.762 1.762 0 01-2.215-.858l-.005-.01a1.394 1.394 0 01-.165-.759v.004c0-.812-.101-.684 3.078-3.875 1.57-1.577 2.944-2.921 3.053-2.989a1.821 1.821 0 011.746-.087z"></path>
  </symbol>
  <symbol xmlns="http://www.w3.org/2000/svg" viewBox="0 0 32 32" id="control-panel">
    <title>control-panel</title>
    <path d="M16 12c.736 0 1.333.599 1.333 1.333s-.597 1.333-1.333 1.333-1.333-.599-1.333-1.333S15.264 12 16 12zm0-2.667a4 4 0 100 8 4 4 0 000-8zM4 14.667a4 4 0 100 8 4 4 0 000-8zm24 0a4 4 0 100 8 4 4 0 000-8zm-12-8c.457 0 .903.047 1.333.135V2.667a1.333 1.333 0 10-2.666 0v4.135A6.652 6.652 0 0116 6.667zM28 12c.457 0 .903.047 1.333.135V2.667a1.333 1.333 0 10-2.666 0v9.468A6.652 6.652 0 0128 12zm0 13.333c-.457 0-.903-.047-1.333-.135v4.135a1.333 1.333 0 102.666 0v-4.135a6.652 6.652 0 01-1.333.135zM4 12c.457 0 .903.047 1.333.135V2.667a1.333 1.333 0 10-2.666 0v9.468A6.652 6.652 0 014 12zm12 8c-.457 0-.903-.047-1.333-.135v9.468a1.333 1.333 0 102.666 0v-9.468A6.652 6.652 0 0116 20zM4 25.333c-.457 0-.903-.047-1.333-.135v4.135a1.333 1.333 0 102.666 0v-4.135A6.652 6.652 0 014 25.333z"></path>
  </symbol>
  <symbol xmlns="http://www.w3.org/2000/svg" viewBox="0 0 32 32" id="cookies">
    <title>cookies</title>
    <path d="M9.823.052C5.837.468 2.337 3.278.987 7.144.535 8.441.361 9.467.36 10.849c-.002 2.442.711 4.613 2.164 6.59.457.623 1.562 1.733 2.171 2.183.84.62 1.913 1.19 2.809 1.493.172.058.328.137.347.175.019.039.096.395.171.791 1.004 5.311 5.471 9.342 10.946 9.876 1.347.131 3.206-.044 4.429-.418 3.273-1.002 5.704-2.903 7.327-5.729.284-.495.916-1.86.916-1.979 0-.024-.126-.044-.28-.044-.476-.002-1.014-.102-1.301-.241-.345-.168-.732-.579-.917-.973-.124-.264-.143-.374-.143-.813 0-.465.014-.538.173-.86.241-.489.54-.745 1.272-1.089.335-.157.609-.296.609-.308s-.231-.16-.513-.328c-.901-.538-1.212-.98-1.216-1.734-.002-.523.138-.829.674-1.469l.403-.48-.612-.088c-1.007-.146-1.418-.324-1.919-.833a2.63 2.63 0 01-.723-2.223l-.002.014c.079-.543.292-.984.701-1.458.178-.206.324-.39.324-.411 0-.063-.849-.703-1.459-1.099-1.489-.968-3.164-1.588-4.99-1.845l-.832-.117-.166-.451c-.983-2.606-2.868-4.683-5.265-5.891l-.062-.028A10.139 10.139 0 0010.851.003c-.363 0-.722.019-1.075.056L9.82.055zm2.849 1.264a9.525 9.525 0 012.295.811l-.054-.025c.951.47.892.406.824.892-.077.558-.176.868-.269.846-.041-.01-.362-.101-.711-.202-.83-.239-1.328-.282-1.562-.133-.373.236-.337.829.06.995.102.043.278.078.389.078.191 0 1.113.226 1.175.288.054.054-.226.241-.493.329-.87.287-1.379.859-1.385 1.561-.002.316.009.348.172.494.367.328.871.126.952-.383.046-.284.205-.44.572-.559.973-.316 1.817-1.306 2.109-2.475.055-.219.123-.405.151-.414s.277.217.555.504c.94.971 1.628 2.008 2.094 3.154.096.235.117.339.072.353a6.08 6.08 0 01-.564.051l-.015.001c-1.038.064-2.392.375-3.434.788a12.28 12.28 0 00-4.34 2.898l-.004.004-.632.653-.206-.212a2.546 2.546 0 00-1.015-.629l-.018-.005c-.293-.098-.432-.113-.887-.093-.485.021-.582.043-.95.218-.92.437-1.471 1.304-1.471 2.314 0 1.202.772 2.175 1.974 2.49.195.051.288.102.276.149l-.146.552c-.215.808-.35 1.722-.382 2.576-.029.796-.032.814-.142.782-.317-.091-1.67-.814-2.113-1.13-.604-.431-1.628-1.429-2.052-2a10.089 10.089 0 01-1.871-4.357l-.008-.06c-.084-.49-.135-2.407-.067-2.475.016-.017.208.063.426.177a7.301 7.301 0 001.819.636l.049.009c.47.096.55.099.71.033.233-.098.354-.275.354-.521a.58.58 0 00-.482-.56h-.003c-.115-.018-.209-.045-.209-.059s.076-.112.168-.217c.42-.478.662-1.422.449-1.747-.134-.205-.421-.311-.641-.238-.254.084-.359.227-.412.566-.1.635-.45 1.016-1.013 1.103-.161.025-.253-.003-.507-.155-.541-.324-.531-.301-.367-.871 1.035-3.602 3.992-6.273 7.586-6.858.688-.112 2.542-.071 3.195.071zm-4.136 1.63c-.446.125-.772.319-1.125.67-.434.431-.667.89-.753 1.481-.111.764.161 1.553.737 2.131.459.47 1.099.762 1.807.762s1.349-.292 1.808-.762l.001-.001c1.021-1.025 1.019-2.585-.005-3.602-.37-.367-.769-.598-1.205-.698-.31-.072-.975-.062-1.266.019zm1.098 1.125c.566.169.932.649.97 1.275.022.352.011.407-.155.723-.568 1.087-2.026 1.033-2.542-.094-.111-.243-.127-.343-.105-.65.068-.942.92-1.526 1.832-1.254zm11.82 4.589c.072.028.081.112.06.551-.029.602.053.998.314 1.517.292.581 1.103 1.269 1.495 1.269a.593.593 0 00.52-.4l.001-.004c.082-.295-.028-.502-.391-.743-.545-.362-.797-.826-.8-1.477-.001-.225.017-.428.039-.45.06-.06 1.066.261 1.785.57a10.81 10.81 0 011.821.988l-.038-.024.302.204-.179.361c-.386.78-.506 1.762-.315 2.576.245 1.043 1.033 2.042 1.98 2.508.268.132.338.19.312.258-.354.912-.203 2.007.387 2.809l.157.214-.283.306a3.14 3.14 0 00-.674 2.959l-.005-.022c.26.876.919 1.64 1.725 1.999.162.072.3.137.308.145.025.023-.41.773-.684 1.18a11.113 11.113 0 01-5.095 4.108l-.075.026-.503.197-.11-.326a3.765 3.765 0 00-.266-.595l.01.019c-.426-.724-1.595-1.646-2.088-1.646l-.025-.001a.535.535 0 00-.52.662l-.001-.004c.039.209.156.322.589.573.604.348 1.257 1.139 1.257 1.522 0 .127-.082.149-1.093.294-.633.091-2.08.077-2.817-.027a12.996 12.996 0 01-2.326-.572l.092.028a13.626 13.626 0 01-2.072-.998l.064.035-.391-.244.418-.203c.517-.252 1.043-.722 1.441-1.291.305-.435.478-.593.85-.78.221-.111.832-.234 1.084-.219.296.019.389-.009.539-.158.217-.217.218-.52.002-.762-.144-.161-.182-.174-.557-.193-.447-.023-1.117.092-1.505.258-.525.225-.972.619-1.331 1.174-.437.676-1.084 1.12-1.636 1.12-.355 0-.89-.244-1.212-.553-.709-.683-1.393-1.673-1.957-2.835-.8-1.648-1.11-3.005-1.107-4.855.002-1.039.069-1.658.276-2.544.174-.746.157-.723.51-.684.418.046.926-.024 1.319-.183.089-.04.199-.082.313-.117l.021-.005c.002.007.074.153.16.327.281.561.871 1.045 1.274 1.045.557 0 .73-.753.242-1.055-.55-.341-.755-.878-.552-1.453.126-.357.104-.57-.076-.751-.282-.281-.732-.184-.951.205-.278.496-.94.889-1.44.855l-.235-.016.318-.626c1.727-3.402 4.902-5.601 8.76-6.069.425-.051 2.423-.033 2.566.024zM9.085 12.08c.286.097.719.457.763.633.022.086-.037.23-.198.489-.126.202-.376.655-.556 1.007-.322.631-.329.64-.503.632-.609-.031-1.146-.442-1.31-1.004-.323-1.113.717-2.128 1.804-1.758zm9.803.243c-.709.117-1.49.674-1.826 1.305-.62 1.159-.256 2.632.825 3.344.472.31.854.428 1.401.433.72.006 1.271-.209 1.798-.702.529-.495.79-1.105.79-1.853v-.01a2.554 2.554 0 00-3.004-2.515l.015-.002zm1.137 1.292c.99.58.94 1.994-.088 2.525-.09.047-.312.097-.493.112-.437.035-.802-.088-1.091-.368-.306-.297-.422-.578-.424-1.021-.002-.606.236-1.001.764-1.269.297-.15.365-.164.709-.143.288.017.44.057.623.164zm-4.845 5.86c-.687.131-1.456.712-1.75 1.325-.393.814-.397 1.542-.015 2.321.438.894 1.284 1.418 2.299 1.422 1.534.006 2.757-1.386 2.536-2.886a2.595 2.595 0 00-3.087-2.179l.017-.003zm1.062 1.193c.107.045.291.169.41.276.967.873.338 2.47-.973 2.47-.306 0-.746-.188-.965-.413a1.375 1.375 0 01-.412-.983l.001-.046v.002c0-.813.574-1.387 1.389-1.387.198 0 .442.036.551.081zm6.462.619c-.477.068-1.045.362-1.413.728-1.34 1.34-.816 3.583.988 4.234.227.082.45.115.796.119.793.008 1.4-.257 1.942-.85.442-.484.642-1.014.643-1.704.003-1.573-1.379-2.754-2.957-2.527zm.886 1.195c.328.112.581.334.766.673.303.554.166 1.332-.303 1.728-.321.272-.601.362-1.038.333-.482-.03-.816-.215-1.068-.589a1.43 1.43 0 01.693-2.158l.01-.003c.236-.084.668-.076.94.016z"></path>
  </symbol>
  <symbol xmlns="http://www.w3.org/2000/svg" viewBox="0 0 32 32" id="document-text">
    <title>document-text</title>
    <path d="M7.176.066c-.485.08-1.171.33-1.597.579-.467.274-1.455 1.261-1.728 1.728a5.258 5.258 0 00-.583 1.653c-.094.578-.094 23.363 0 23.94.168 1.047.554 1.773 1.371 2.592.819.818 1.546 1.203 2.592 1.371.574.093 16.965.093 17.539 0 1.047-.168 1.773-.554 2.592-1.371.818-.819 1.203-1.546 1.371-2.592.045-.275.067-3.135.067-8.418 0-8.806.016-8.416-.395-9.211-.171-.333-.898-1.087-4.879-5.068S18.791.561 18.458.39c-.771-.398-.717-.395-6.075-.389-2.676.005-5.02.032-5.209.064zm14.091 7.465l4.337 4.337v7.841l-.002 7.841-.15.32c-.16.36-.445.641-.798.792l-.01.004c-.285.128-.374.13-8.642.13s-8.357-.002-8.642-.13a1.53 1.53 0 01-.804-.786l-.004-.01-.15-.32V15.996c.002-11.487.002-11.556.131-11.842a1.53 1.53 0 01.786-.804l.01-.004.32-.15 9.282-.002 4.337 4.337zm-10.645 6.951c-.691.189-.986.64-.987 1.514-.002.904.331 1.375 1.087 1.536.216.045 2.005.061 5.473.05l5.153-.018.309-.152c.568-.28.847-1.002.696-1.81-.096-.517-.31-.832-.696-1.023l-.309-.152-5.217-.013c-3.988-.01-5.286.006-5.508.067zm0 6.402c-.691.189-.986.64-.987 1.514-.002.904.331 1.375 1.087 1.536.216.045 2.005.061 5.473.05l5.153-.018.309-.152c.386-.19.6-.506.696-1.023.15-.808-.128-1.53-.696-1.81l-.309-.152-5.217-.013c-3.988-.01-5.286.006-5.508.067z"></path>
  </symbol>
  <symbol xmlns="http://www.w3.org/2000/svg" viewBox="0 0 32 32" id="double-chevron-left">
    <title>double-chevron-left</title>
    <path d="M7.695 8.089L0 16.006l7.687 7.907c4.228 4.348 7.705 7.913 7.726 7.921.031.012 1.448-1.484 2.05-2.163l.108-.122L4.033 16.01l8.317-8.394c2.845-2.87 5.172-5.24 5.172-5.266 0-.058-2.045-2.183-2.097-2.18-.02.002-3.499 3.566-7.73 7.921zm14.462-.027c-4.222 4.343-7.676 7.918-7.676 7.944 0 .068 15.344 15.844 15.394 15.827.023-.008.507-.518 1.076-1.134l1.034-1.119-6.739-6.769c-3.707-3.724-6.739-6.79-6.739-6.814s3.036-3.106 6.747-6.848L32 2.344l-1.052-1.09C30.369.655 29.881.165 29.863.165s-3.486 3.553-7.707 7.895z"></path>
  </symbol>
  <symbol xmlns="http://www.w3.org/2000/svg" viewBox="0 0 32 32" id="double-chevron-right">
    <title>double-chevron-right</title>
    <path d="M1.054 1.23L0 2.322l6.758 6.816c3.716 3.749 6.757 6.835 6.757 6.858s-3.037 3.094-6.75 6.824l-6.75 6.783 1.036 1.12c.57.617 1.055 1.128 1.078 1.136.05.017 15.421-15.786 15.421-15.854C17.55 15.953 2.193.139 2.141.139c-.018 0-.507.491-1.087 1.091zm14.485-.025c-.569.589-1.035 1.093-1.035 1.12s2.331 2.4 5.181 5.275l8.332 8.409-13.56 13.56.104.121c.41.478 2.025 2.182 2.055 2.17C16.698 31.828 32 16.058 32 16.006S16.697.184 16.614.151c-.022-.009-.506.466-1.075 1.055z"></path>
  </symbol>
  <symbol xmlns="http://www.w3.org/2000/svg" viewBox="0 0 32 32" id="download">
    <title>download</title>
    <path d="M30.762 14.042h-2.083a.918.918 0 00-.918.918v12.8H4.241v-12.8a.918.918 0 00-.918-.918H1.24a.918.918 0 00-.918.918v15.805c0 .509.413.918.918.918h29.523a.918.918 0 00.918-.918V14.96a.918.918 0 00-.918-.918zm-12.8 0V1.3a.979.979 0 00-.979-.979h-1.962a.979.979 0 00-.979.979v12.739H8.16l7.84 7.84 7.84-7.84h-5.878z"></path>
  </symbol>
  <symbol xmlns="http://www.w3.org/2000/svg" viewBox="0 0 32 32" id="emoji-happy">
    <title>emoji-happy</title>
    <path d="M14.942.016c-1.633.164-2.658.369-3.944.793C7.255 2.045 4.227 4.482 2.2 7.886 1.139 9.672.392 11.862.089 14.085c-.107.786-.107 3.062 0 3.847.612 4.487 2.833 8.291 6.387 10.947 2.14 1.6 4.779 2.655 7.6 3.039.786.107 3.062.107 3.847 0 5.067-.693 9.327-3.483 11.877-7.788 1.063-1.794 1.807-3.979 2.11-6.199.107-.785.107-3.062 0-3.847-.693-5.067-3.483-9.327-7.788-11.877C22.373 1.171 20.27.44 18.147.133c-.632-.091-2.708-.168-3.206-.119zm3.142 3.324c1.349.226 2.558.633 3.672 1.2l-.072-.033c1.266.614 2.369 1.419 3.447 2.512 1.908 1.938 3.038 4.139 3.54 6.906.167.911.167 3.257 0 4.168-.338 1.868-.968 3.474-1.935 4.942-1.722 2.613-4.48 4.615-7.404 5.372-1.27.329-1.795.39-3.331.39-1.533 0-2.062-.061-3.323-.388-2.946-.761-5.633-2.709-7.409-5.369-.951-1.422-1.598-3.076-1.938-4.947-.167-.911-.167-3.257 0-4.168.372-2.044 1.09-3.777 2.22-5.354 2.074-2.888 5.257-4.866 8.913-5.313l.062-.006c.713-.088 2.874-.034 3.559.088zm-7.438 7.932a1.34 1.34 0 00-.875.68l-.004.007c-.117.239-.146.406-.146.843 0 .957.353 1.409 1.212 1.557.787.135 1.496-.133 1.781-.675.207-.393.208-1.367.003-1.759-.311-.588-1.113-.854-1.972-.654zm9.618 0a1.34 1.34 0 00-.875.68l-.003.007c-.117.239-.146.406-.146.843 0 .957.353 1.409 1.212 1.557.787.135 1.496-.133 1.781-.675.207-.393.208-1.367.003-1.759-.311-.588-1.113-.854-1.972-.654zm-9.041 7.619c-.314.075-.572.236-.883.551-.802.811-.729 1.568.231 2.429.824.741 1.549 1.197 2.491 1.569.871.353 1.881.558 2.938.558s2.068-.205 2.992-.577l-.054.019c.943-.372 1.667-.829 2.491-1.569.96-.861 1.032-1.617.231-2.43-.377-.382-.731-.561-1.105-.561-.423 0-.67.128-1.316.683-1.25 1.074-2.7 1.468-4.253 1.156-.846-.172-1.577-.566-2.408-1.302-.523-.462-.938-.624-1.356-.526z"></path>
  </symbol>
  <symbol xmlns="http://www.w3.org/2000/svg" viewBox="0 0 32 32" id="exclamation-circle-solid">
    <title>exclamation-circle-solid</title>
    <path d="M14.866.018l-.853.1c-3.84.447-7.698 2.514-10.148 5.435C1.806 8.007.614 10.619.133 13.736c-.166 1.072-.166 3.468 0 4.539 1.102 7.128 6.472 12.498 13.6 13.6 1.072.166 3.468.166 4.539 0a16.37 16.37 0 008.137-3.69l-.024.02c2.532-2.135 4.395-5.164 5.198-8.462.321-1.318.409-2.115.409-3.738 0-1.108-.032-1.705-.12-2.27-.779-5.046-3.7-9.279-8.093-11.729A15.733 15.733 0 0018.36.158l-.088-.011c-.667-.102-2.911-.186-3.405-.13zm2.034 6.2c.415.207.74.544.927.957l.005.012c.138.3.14.371.14 4.812v4.507l-.186.383a1.988 1.988 0 01-1.082.981l-.014.004a1.981 1.981 0 01-2.465-.974l-.005-.012-.186-.383-.022-4.307c-.014-2.977.002-4.413.054-4.649.27-1.256 1.659-1.907 2.835-1.332zm0 16.026c.697.341 1.07.958 1.072 1.775 0 .415-.032.565-.186.883a1.988 1.988 0 01-1.082.981l-.014.004c-1.472.551-2.993-.795-2.626-2.326a1.992 1.992 0 012.847-1.312l-.011-.005z"></path>
  </symbol>
  <symbol xmlns="http://www.w3.org/2000/svg" viewBox="0 0 32 32" id="eye">
    <title>eye</title>
    <path d="M14.874 3.871c-.94.086-1.78.215-2.602.391l.143-.025C6.725 5.509 2.103 9.617.208 15.086c-.277.802-.277 1.042 0 1.845C2.276 22.9 7.527 27.17 13.87 28.041c1.044.143 3.217.143 4.261 0 6.343-.87 11.593-5.141 13.662-11.11.277-.802.277-1.042 0-1.845-2.064-5.955-7.36-10.268-13.631-11.102-.717-.094-2.686-.163-3.287-.113zm2.648 3.095c2.027.237 3.692.788 5.409 1.791a13.938 13.938 0 015.289 5.626l.036.078c.339.679.65 1.42.65 1.546 0 .272-.817 1.957-1.354 2.794-2.471 3.835-6.721 6.338-11.555 6.338-1.012 0-1.998-.11-2.948-.318l.091.017c-4.027-.842-7.545-3.569-9.394-7.285-.339-.679-.65-1.42-.65-1.546 0-.272.817-1.957 1.354-2.794 2.843-4.424 7.923-6.851 13.073-6.247zm-2.298 3.015a6.101 6.101 0 00-3.506 1.744 6.003 6.003 0 00-1.598 2.772l-.009.042c-.132.501-.155.715-.155 1.469s.023.968.155 1.469c.485 1.826 1.689 3.273 3.368 4.048.832.385 1.508.527 2.522.527.752 0 .969-.024 1.469-.155 1.823-.482 3.272-1.688 4.048-3.366.385-.832.527-1.508.527-2.522 0-.752-.024-.969-.155-1.469-.482-1.823-1.688-3.272-3.366-4.048-.944-.435-2.316-.648-3.298-.51zm1.458 3.051c1.058.225 2.074 1.24 2.295 2.293a3.674 3.674 0 01-.005 1.387l.004-.023c-.225 1.058-1.24 2.074-2.293 2.295a3.021 3.021 0 01-2.86-.868l-.001-.001c-1.164-1.213-1.166-3.003-.002-4.214a3.018 3.018 0 012.883-.865l-.02-.004z"></path>
  </symbol>
  <symbol xmlns="http://www.w3.org/2000/svg" viewBox="0 0 15 32" id="facebook">
    <title>facebook</title>
    <path d="M2.913 32h5.822V16.008h4.368l.864-4.997H8.735V7.39c0-1.167.755-2.393 1.833-2.393h2.973V0H9.897v.022C4.196.229 3.024 3.531 2.923 6.999h-.011v4.011H-.001v4.997h2.913v15.992z"></path>
  </symbol>
  <symbol xmlns="http://www.w3.org/2000/svg" viewBox="0 0 32 32" id="favorite-star">
    <title>favorite-star</title>
    <path d="M16 25.237l9.888 5.963-2.616-11.246L32 12.391l-11.506-.987L16 .801l-4.494 10.603L0 12.391l8.728 7.563L6.112 31.2z"></path>
  </symbol>
  <symbol xmlns="http://www.w3.org/2000/svg" viewBox="0 0 32 32" id="filter">
    <path fill="transparent" stroke-linejoin="round" stroke-linecap="round" stroke-width="2.909" stroke="currentColor" d="M3.47 6.788c-1.1-1.23-1.65-1.844-1.671-2.367-.018-.454.177-.89.527-1.179.403-.333 1.228-.333 2.878-.333h21.59c1.65 0 2.475 0 2.878.333.35.289.545.725.527 1.179-.021.522-.571 1.137-1.671 2.367l-8.3 9.276c-.219.245-.329.368-.407.507a1.48 1.48 0 00-.151.395c-.035.156-.035.321-.035.649v7.778c0 .284 0 .427-.046.55a.727.727 0 01-.192.284c-.097.088-.229.141-.493.247l-4.945 1.978c-.535.214-.802.321-1.017.276a.725.725 0 01-.458-.31c-.121-.183-.121-.471-.121-1.046v-9.756c0-.329 0-.493-.035-.649a1.467 1.467 0 00-.151-.395c-.078-.14-.188-.262-.407-.507l-8.3-9.276z"></path>
  </symbol>
  <symbol xmlns="http://www.w3.org/2000/svg" viewBox="0 0 52 53" id="fingerprint">
    <path d="M50.113 17.099c-.465 0-.924-.211-1.226-.611A32.35 32.35 0 0033.015 5.154a32.674 32.674 0 00-5.786-1.32h-.003c-8.522-1.141-17.003 1.081-23.88 6.259A1.533 1.533 0 011.5 7.643C9.027 1.978 18.308-.455 27.636.795h.005a35.76 35.76 0 016.326 1.444 35.404 35.404 0 0117.369 12.404 1.533 1.533 0 01-1.223 2.456z" fill="currentColor"></path>
    <path d="M31.861 52.153a1.533 1.533 0 01-1.314-2.32A32.646 32.646 0 0032.504 46c1.725-4.005 2.268-7.372 2.394-8.309A12.09 12.09 0 0024.515 24.1a12.017 12.017 0 00-8.874 2.33 12.035 12.035 0 00-4.66 7.667 8.333 8.333 0 01-3.03 5.156 1.533 1.533 0 11-1.912-2.398 5.272 5.272 0 001.917-3.261 15.09 15.09 0 015.841-9.614 15.066 15.066 0 0111.126-2.918A15.156 15.156 0 0137.937 38.1c-.139 1.034-.737 4.75-2.617 9.114a35.701 35.701 0 01-2.142 4.192c-.287.48-.795.747-1.317.747zM49.475 31.51c-.699 0-1.33-.48-1.493-1.19-2.012-8.742-8.557-15.9-17.08-18.684a25.842 25.842 0 00-4.577-1.044c-6.737-.902-13.442.855-18.88 4.95a25.93 25.93 0 00-4.45 4.263 1.533 1.533 0 11-2.37-1.944A29.005 29.005 0 015.6 13.09c6.086-4.58 13.59-6.548 21.131-5.537a28.792 28.792 0 0117.536 9.224 28.897 28.897 0 016.702 12.855 1.533 1.533 0 01-1.495 1.877z" fill="currentColor"></path>
    <path d="M41.489 47.363a1.532 1.532 0 01-1.455-2.017c1.035-3.111 1.457-5.566 1.616-6.752 1.21-9.04-4.2-17.655-12.865-20.485a19.003 19.003 0 00-3.366-.767 18.793 18.793 0 00-13.878 3.639 18.821 18.821 0 00-7.284 11.992 1.533 1.533 0 01-3.024-.503 21.875 21.875 0 018.464-13.94 21.84 21.84 0 0116.129-4.228 22.07 22.07 0 013.91.892c10.071 3.288 16.36 13.3 14.952 23.806-.173 1.293-.63 3.963-1.745 7.313a1.534 1.534 0 01-1.454 1.05z" fill="currentColor"></path>
    <path d="M22.906 52.803a1.533 1.533 0 01-1.117-2.582c5.159-5.494 6.245-12.64 6.351-13.436a5.287 5.287 0 00-4.533-5.935 5.287 5.287 0 00-5.935 4.532c-.008.06-.985 6.117-5.13 8.937a1.533 1.533 0 11-1.724-2.535c2.459-1.672 3.586-5.484 3.819-6.834.624-4.549 4.824-7.75 9.377-7.14 4.562.612 7.776 4.82 7.165 9.382-.082.61-.428 2.818-1.457 5.647-1.343 3.695-3.26 6.884-5.698 9.48-.302.321-.71.484-1.118.484z" fill="currentColor"></path>
    <path d="M15.518 50.218a1.533 1.533 0 01-.864-2.8c5.615-3.82 6.726-11.464 6.736-11.54a1.534 1.534 0 013.039.409c-.05.368-1.285 9.063-8.05 13.666-.264.18-.564.265-.861.265z" fill="currentColor"></path>
  </symbol>
  <symbol xmlns="http://www.w3.org/2000/svg" viewBox="0 0 32 32" id="gps">
    <title>gps</title>
    <path d="M16 24.616a1.23 1.23 0 011.232 1.229v1.162a11.076 11.076 0 009.775-9.775h-1.162a1.23 1.23 0 010-2.461h1.163a11.076 11.076 0 00-9.776-9.776v1.16a1.231 1.231 0 11-2.464 0v-1.16c-5.133.569-9.209 4.642-9.776 9.776h1.162a1.23 1.23 0 110 2.461H4.992a11.078 11.078 0 009.775 9.775v-1.162a1.23 1.23 0 011.232-1.229zm11.007-7.384h-1.162a1.23 1.23 0 010-2.461h4.923a1.23 1.23 0 110 2.461h-3.761zm-22.014 0H1.232a1.231 1.231 0 110-2.461h4.922a1.23 1.23 0 110 2.461H4.992zM17.232 4.995v1.16a1.231 1.231 0 11-2.464 0V1.232a1.231 1.231 0 112.464 0v3.763zm-2.464 22.012v-1.162c0-.678.551-1.229 1.232-1.229s1.232.551 1.232 1.229v4.923a1.231 1.231 0 11-2.464 0v-3.761zM8.353 16A7.646 7.646 0 0116 8.353 7.648 7.648 0 118.353 16z"></path>
  </symbol>
  <symbol xmlns="http://www.w3.org/2000/svg" viewBox="0 0 24 24" id="grid">
    <path d="M4 6a2 2 0 012-2h2a2 2 0 012 2v2a2 2 0 01-2 2H6a2 2 0 01-2-2V6zm10 0a2 2 0 012-2h2a2 2 0 012 2v2a2 2 0 01-2 2h-2a2 2 0 01-2-2V6zM4 16a2 2 0 012-2h2a2 2 0 012 2v2a2 2 0 01-2 2H6a2 2 0 01-2-2v-2zm10 0a2 2 0 012-2h2a2 2 0 012 2v2a2 2 0 01-2 2h-2a2 2 0 01-2-2v-2z" stroke="currentColor" stroke-width="2" stroke-linecap="round" stroke-linejoin="round" fill="transparent"></path>
  </symbol>
  <symbol xmlns="http://www.w3.org/2000/svg" viewBox="0 0 32 32" id="home">
    <title>home</title>
    <path d="M15.426.165c-.21.1-1.793 1.634-5.993 5.806l-5.782 5.744c-.041.04-.818.834-1.725 1.763C.815 14.618.232 15.263.138 15.459c-.276.571-.139 1.12.413 1.674.542.542 1.106.689 1.642.427.143-.07.438-.287.657-.483l.397-.354.035 12.725.14.367c.397 1.039 1.191 1.761 2.228 2.027.475.121.765.124 10.35.124s9.875-.003 10.35-.124c.609-.156.993-.378 1.446-.83s.674-.837.83-1.446c.12-.469.124-.74.124-6.669v-6.178l.398.355c.218.196.515.414.658.485.536.261 1.1.115 1.642-.427.551-.553.689-1.103.413-1.674-.096-.198-.685-.85-1.823-2.013a527.542 527.542 0 00-1.723-1.76c-.024-.021-2.611-2.592-5.749-5.712-4.31-4.284-5.778-5.708-5.998-5.811a1.3 1.3 0 00-1.151.005l.008-.003zm5.371 8.58l4.766 4.766V28.78h-4.782v-3.337c0-3.105-.008-3.369-.124-3.825a2.835 2.835 0 00-.829-1.444l-.002-.002a2.838 2.838 0 00-1.451-.832l-.019-.004c-.47-.12-.666-.128-2.564-.105-1.911.022-2.082.033-2.423.161a3.341 3.341 0 00-1.981 1.986c-.131.346-.137.469-.156 3.879l-.021 3.522H6.436V13.51l4.766-4.766c1.58-1.59 3.143-3.143 4.716-4.686l.081-.079c.018 0 2.176 2.144 4.797 4.766zm-3.203 16.847v3.188h-3.188v-6.375h3.188v3.188z"></path>
  </symbol>
  <symbol xmlns="http://www.w3.org/2000/svg" viewBox="0 0 24 24" id="laptop">
    <path d="M3 19h18M6 17h12a2 2 0 002-2V8a2 2 0 00-2-2H6a2 2 0 00-2 2v7a2 2 0 002 2z" stroke="currentColor" stroke-width="2" stroke-linecap="round" stroke-linejoin="round" fill="transparent"></path>
  </symbol>
  <symbol xmlns="http://www.w3.org/2000/svg" viewBox="0 0 160 160" id="light">
    <title></title>
    <path d="M79.995 133.333c3.378 0 6.169 2.119 6.61 4.87l.061.765v15.398c0 3.112-2.986 5.634-6.671 5.634-3.369 0-6.16-2.119-6.601-4.87l-.061-.765v-15.398c0-3.112 2.986-5.634 6.662-5.634zm47.81-12.59l.715.523 9.973 9.965a5.136 5.136 0 01-3.627 8.769 5.136 5.136 0 01-3.013-.992l-.613-.53-9.973-9.965a5.13 5.13 0 01.241-7.007 5.14 5.14 0 016.297-.763zm-89.29.742a5.08 5.08 0 01.747 6.225l-.517.706-9.847 9.847a5.078 5.078 0 01-7.414.252 5.075 5.075 0 01-.33-6.815l.581-.599 9.847-9.847a5.081 5.081 0 016.931.231zM80.004 40a40.003 40.003 0 0128.284 11.719 39.959 39.959 0 0111.713 28.288 39.975 39.975 0 01-11.72 28.281A40.012 40.012 0 0179.99 120a40.043 40.043 0 01-28.262-11.734A40.037 40.037 0 0140.001 80a39.963 39.963 0 0111.72-28.281A39.986 39.986 0 0180.005 40zm-.015 10.511a29.487 29.487 0 00-20.834 8.65A29.539 29.539 0 0050.504 80c0 7.825 3.113 15.324 8.644 20.854s13.03 8.635 20.856 8.635a29.464 29.464 0 0020.856-8.643 29.482 29.482 0 008.636-20.854c0-7.818-3.113-15.324-8.644-20.854s-13.038-8.635-20.863-8.628zm74.375 22.822c3.113 0 5.636 2.984 5.636 6.667 0 3.375-2.12 6.164-4.871 6.606l-.765.061h-15.402c-3.105 0-5.628-2.984-5.628-6.667 0-1.763.59-3.462 1.646-4.711.845-.999 1.933-1.651 3.097-1.872l.885-.084h15.402zm-133.326 0c3.113 0 5.628 2.984 5.628 6.667 0 3.375-2.113 6.164-4.864 6.606l-.765.061H5.635c-3.113 0-5.636-2.984-5.636-6.667 0-3.375 2.12-6.164 4.871-6.606l.765-.061h15.402zm117.453-51.825a5.134 5.134 0 01.764 6.299l-.523.715-9.982 9.976A5.13 5.13 0 01125.12 40a5.144 5.144 0 01-4.729-3.174 5.127 5.127 0 01.536-4.91l.562-.673 9.982-9.976a5.143 5.143 0 017.018.241zM25.249 20.003a5.03 5.03 0 013.651 1.735l9.849 9.849c1.756 2.008 1.651 5.036-.238 6.925s-4.91 1.993-6.925.238l-9.849-9.849a5.06 5.06 0 01-1.735-3.651 5.075 5.075 0 015.246-5.246zM79.995 0c3.378 0 6.169 2.119 6.61 4.87l.061.765v15.398c0 3.112-2.986 5.635-6.671 5.635-1.764 0-3.464-.598-4.714-1.653-1-.844-1.647-1.932-1.865-3.096l-.083-.885V5.636c0-3.112 2.986-5.634 6.662-5.634z"></path>
  </symbol>
  <symbol xmlns="http://www.w3.org/2000/svg" viewBox="0 0 32 32" id="like">
    <title>like</title>
    <path d="M15.904 6.481c1.292-3.061 4.242-5.2 7.674-5.2 4.623 0 7.952 3.955 8.371 8.668 0 0 .226 1.17-.271 3.276-.677 2.868-2.269 5.417-4.415 7.362L15.905 30.721 4.738 20.587C2.592 18.643 1 16.094.323 13.225-.174 11.119.052 9.949.052 9.949.471 5.236 3.8 1.281 8.423 1.281c3.432 0 6.191 2.14 7.482 5.201z"></path>
  </symbol>
  <symbol xmlns="http://www.w3.org/2000/svg" viewBox="0 0 34 32" id="linkedin">
    <title>linkedin</title>
    <path d="M8.215 3.751C8.215 1.679 6.377 0 4.109 0 1.839 0 0 1.679 0 3.751c0 2.07 1.838 3.747 4.109 3.747 2.268 0 4.106-1.677 4.106-3.747zM.941 31.603h7.368v-21.25H.941zM18.65 19.784c0-2.437 1.153-4.82 3.91-4.82s3.435 2.383 3.435 4.762v11.605h7.335v-12.08c0-8.393-4.961-9.839-8.013-9.839-3.049 0-4.731 1.031-6.667 3.531v-2.861h-7.356v21.25h7.356V19.785z"></path>
  </symbol>
  <symbol xmlns="http://www.w3.org/2000/svg" viewBox="0 0 32 32" id="locator">
    <title>locator</title>
    <path d="M15.737 0C9.259 0 4 5.37 4 12.018 4 21.689 15.737 32 15.737 32S27.51 21.689 27.51 11.982C27.545 5.369 22.216 0 15.737 0zm-.308 15.673a4.897 4.897 0 01-4.898-4.898 4.897 4.897 0 014.898-4.898c2.705 0 4.898 2.191 4.898 4.898s-2.191 4.898-4.898 4.898z"></path>
  </symbol>
  <symbol xmlns="http://www.w3.org/2000/svg" viewBox="0 0 28 32" id="lock">
    <title>lock</title>
    <path d="M6.957 20.248a1.242 1.242 0 11-1.242 1.242c0-.686.556-1.242 1.242-1.242zm3.416 1.243a1.242 1.242 0 102.484 0 1.242 1.242 0 10-2.484 0zm4.658 0a1.242 1.242 0 102.484 0 1.242 1.242 0 10-2.484 0zm4.721 0a1.242 1.242 0 102.484 0 1.242 1.242 0 10-2.484 0zm5.59-.249v-4.596a2.487 2.487 0 00-2.484-2.484H4.97a2.487 2.487 0 00-2.484 2.484v10.186a2.487 2.487 0 002.484 2.484h17.888a2.487 2.487 0 002.484-2.484 1.242 1.242 0 112.484 0 4.975 4.975 0 01-4.969 4.969H4.969A4.975 4.975 0 010 26.832V16.646a4.975 4.975 0 014.969-4.969h1.488V7.296C6.457 3.273 9.801 0 13.91 0s7.453 3.273 7.453 7.296v4.381h1.493a4.975 4.975 0 014.969 4.969v4.596a1.242 1.242 0 11-2.484 0zm-16.4-9.565h9.938V7.296c0-2.653-2.229-4.812-4.969-4.812S8.942 4.642 8.942 7.296v4.381z"></path>
  </symbol>
  <symbol xmlns="http://www.w3.org/2000/svg" viewBox="0 0 32 32" id="mail-solid">
    <title>mail-solid</title>
    <path d="M3.134 4.119a4.99 4.99 0 00-.964.351l.03-.013C1.576 4.763.798 5.519.48 6.127.282 6.503 0 7.415 0 7.675c0 .076 2.398 1.306 8 4.106l8 4 8-4c5.602-2.8 8-4.03 8-4.106 0-.26-.282-1.172-.48-1.548-.318-.608-1.096-1.364-1.72-1.668-.956-.47-.094-.442-13.834-.438-10.37.004-12.47.02-12.832.098zm-3.12 14.38l.02 6.216.182.534a3.977 3.977 0 002.622 2.569l.028.007.5.156h25.268l.5-.156a3.977 3.977 0 002.642-2.548l.008-.028.182-.534.02-6.216c.01-3.42.002-6.218-.018-6.218-.018 0-3.62 1.794-8.002 3.984L16 20.249l-7.966-3.984c5.493 2.423 2.868 1.093.239-.229L.032 12.281c-.02 0-.028 2.798-.018 6.218z"></path>
  </symbol>
  <symbol xmlns="http://www.w3.org/2000/svg" viewBox="0 0 32 32" id="mail">
    <title>mail</title>
    <path d="M3.987 3.281c-.956.162-1.79.608-2.548 1.364C.652 5.433.235 6.235.067 7.281c-.093.585-.088 16.891.006 17.479.275 1.73 1.53 3.197 3.243 3.79l.622.216h24.116l.622-.216a4.88 4.88 0 001.976-1.271l.002-.002a4.575 4.575 0 001.081-1.776l.009-.032.211-.605.032-7.612c.018-4.187.014-8.174-.01-8.861-.038-1.174-.053-1.284-.241-1.852a4.468 4.468 0 00-1.08-1.804l.001.001c-.633-.672-1.283-1.065-2.284-1.387-.288-.093-1.492-.104-12.186-.114-6.635-.006-12.013.014-12.202.046zm23.876 3.28c.649.307.924.795.926 1.646l.002.549-6.103 4.068c-5.188 3.457-6.147 4.073-6.397 4.11-.694.106-.401.277-6.985-4.11L3.203 8.756l.002-.549c.002-.851.277-1.339.926-1.646l.32-.15h23.093l.32.15zM8.321 16.005c2.727 1.817 5.116 3.392 5.309 3.501a4.752 4.752 0 002.367.623c.597 0 1.169-.109 1.696-.308l-.033.011c.56-.201.787-.347 6.077-3.872l5.021-3.346.018 5.837c.016 5.287.008 5.863-.088 6.115a1.623 1.623 0 01-.815.879l-.01.004-.32.149H4.45l-.32-.15a1.53 1.53 0 01-.791-.798l-.004-.01c-.128-.283-.13-.39-.131-6.16-.002-4.683.014-5.864.078-5.826.043.027 2.311 1.534 5.037 3.35z"></path>
  </symbol>
  <symbol xmlns="http://www.w3.org/2000/svg" viewBox="0 0 32 32" id="minus-circle">
    <title>minus-circle</title>
    <path d="M14.942.016c-1.633.164-2.658.369-3.944.793C7.255 2.045 4.227 4.482 2.2 7.886 1.139 9.672.392 11.862.089 14.085c-.107.786-.107 3.062 0 3.847.612 4.487 2.833 8.291 6.387 10.947 2.14 1.6 4.779 2.655 7.6 3.039.786.107 3.062.107 3.847 0 5.067-.693 9.327-3.483 11.877-7.788 1.063-1.794 1.807-3.979 2.11-6.199.107-.785.107-3.062 0-3.847-.693-5.067-3.483-9.327-7.788-11.877C22.373 1.171 20.27.44 18.147.133c-.632-.091-2.708-.168-3.206-.119zm3.142 3.324c1.349.226 2.558.633 3.672 1.2l-.072-.033c1.266.614 2.369 1.419 3.447 2.512 1.908 1.938 3.038 4.139 3.54 6.906.167.911.167 3.257 0 4.168-.338 1.868-.968 3.474-1.935 4.942-1.722 2.613-4.48 4.615-7.404 5.372-1.27.329-1.795.39-3.331.39-1.533 0-2.062-.061-3.323-.388-2.946-.761-5.633-2.709-7.409-5.369-.951-1.422-1.598-3.076-1.938-4.947-.167-.911-.167-3.257 0-4.168.372-2.044 1.09-3.777 2.22-5.354 2.074-2.888 5.257-4.866 8.913-5.313l.062-.006c.713-.088 2.874-.034 3.559.088zm-7.438 11.138c-.386.093-.7.345-.875.68l-.004.007c-.117.239-.146.406-.146.843 0 .893.327 1.367 1.056 1.534.394.09 10.25.09 10.644 0 .71-.162 1.055-.652 1.056-1.502 0-.609-.09-.898-.369-1.185-.43-.441-.099-.417-5.882-.43-3.116-.005-5.33.014-5.482.051z"></path>
  </symbol>
  <symbol xmlns="http://www.w3.org/2000/svg" viewBox="0 0 32 32" id="minus">
    <title>minus</title>
    <path d="M1.099 14.312C.33 14.52.002 15.024 0 15.996c-.002 1.006.369 1.53 1.209 1.708.246.052 4.904.069 14.992.057l14.636-.02.344-.169c.632-.312.942-1.115.775-2.014-.107-.575-.345-.926-.775-1.138l-.344-.169-14.707-.012c-11.481-.011-14.778.005-15.031.073z"></path>
  </symbol>
  <symbol xmlns="http://www.w3.org/2000/svg" viewBox="0 0 160 160" id="moon">
    <title></title>
    <path d="M75.669.009C33.464 2.681 0 37.499 0 79.926 0 124.088 36.274 160 80.882 160c38.618 0 70.996-26.906 78.987-62.818.546-2.326-.652-4.718-2.857-5.695-2.212-.977-4.805-.274-6.2 1.681-10.42 14.186-27.244 23.458-46.339 23.458-31.699 0-57.292-25.337-57.292-56.719 0-22.019 12.657-41.046 31.121-50.463a4.988 4.988 0 002.541-5.767c-.638-2.281-2.791-3.805-5.174-3.669l-.001.001zM54.764 15.075c-10.92 11.86-17.693 27.552-17.693 44.833 0 36.792 30.238 66.728 67.402 66.728 13.777 0 26.598-4.157 37.282-11.208-12.302 20.637-34.872 34.563-60.872 34.563-39.144 0-70.772-31.312-70.772-70.065 0-29.559 18.556-54.542 44.654-64.852z"></path>
  </symbol>
  <symbol xmlns="http://www.w3.org/2000/svg" viewBox="0 0 32 32" id="phone">
    <title>phone</title>
    <path d="M7.607 2.718l3.631 4.742c.137.258.29.597.238.752-.011.037-.088.185-.565.611-1.659 1.485-2.477 3.306-2.303 5.13.183 1.912 1.325 3.386 2.252 4.286l2.912 2.91c.899.928 2.374 2.071 4.289 2.255 1.81.177 3.64-.643 5.127-2.301.432-.48.578-.553.61-.565.126-.04.379.037.696.198l4.757 3.633c.326.323.317.355.242.594-.084.262-.401.701-.827 1.139-2.739 2.737-5.105 3.762-7.711 3.311-2.419-.419-5.24-2.266-8.621-5.646l-4.089-4.089c-3.38-3.381-5.229-6.201-5.646-8.621-.449-2.593.572-4.971 3.308-7.707.439-.429.878-.747 1.144-.831.085-.025.144-.044.197-.044.096 0 .176.061.361.243zm23.378 19.847c-1.298-1.029-2.645-2.048-3.977-3.056l-1.233-.927c-1.012-.541-1.97-.688-2.771-.419-.776.258-1.247.786-1.68 1.271-1.304 1.455-2.341 1.537-3.019 1.476-.936-.11-1.939-.661-2.752-1.516l-2.934-2.934c-.856-.815-1.41-1.819-1.513-2.745-.067-.674.016-1.721 1.529-3.076.426-.379.955-.851 1.216-1.629.27-.801.125-1.761-.457-2.829l-.858-1.134C11.518 3.701 10.489 2.339 9.415.992 8.557.134 7.367-.194 6.307.138c-.89.277-1.56.848-2.149 1.421C.908 4.679-.446 8.018.13 11.483c.522 3.021 2.481 6.093 6.35 9.962l4.088 4.089c3.87 3.87 6.941 5.826 9.973 6.351.454.069.912.103 1.369.103 2.967 0 5.956-1.435 8.542-4.13.576-.59 1.146-1.26 1.424-2.151.33-1.06.003-2.251-.889-3.142z"></path>
  </symbol>
  <symbol xmlns="http://www.w3.org/2000/svg" viewBox="0 0 32 32" id="photo-camera">
    <title>photo-camera</title>
    <path d="M6.667 5.333h-4V4h4v1.333zm10.666 8c-2.205 0-4 1.795-4 4s1.795 4 4 4 4-1.795 4-4-1.795-4-4-4zM32 6.667v22.667H0V6.667h7.907c.892 0 1.724-.445 2.219-1.188l1.875-2.812h10.667l1.875 2.812a2.665 2.665 0 002.219 1.188h5.24zM6.667 12a1.333 1.333 0 10-2.665 0 1.333 1.333 0 002.665 0zM24 17.333a6.668 6.668 0 10-13.335.001A6.668 6.668 0 0024 17.333z"></path>
  </symbol>
  <symbol xmlns="http://www.w3.org/2000/svg" viewBox="0 0 32 32" id="picture">
    <title>picture</title>
    <path d="M10.286 10.286q0 1.429-1 2.429t-2.429 1-2.429-1-1-2.429 1-2.429 2.429-1 2.429 1 1 2.429zm18.285 6.857v8H3.428v-3.429L9.142 16l2.857 2.857 9.143-9.143zm1.715-12.572H1.715q-.232 0-.402.17t-.17.402v21.714q0 .232.17.402t.402.17h28.571q.232 0 .402-.17t.17-.402V5.143q0-.232-.17-.402t-.402-.17zm2.857.572v21.714q0 1.179-.839 2.018t-2.018.839H1.715q-1.179 0-2.018-.839t-.839-2.018V5.143q0-1.179.839-2.018t2.018-.839h28.571q1.179 0 2.018.839t.839 2.018z"></path>
  </symbol>
  <symbol xmlns="http://www.w3.org/2000/svg" viewBox="0 0 32 32" id="play">
    <title>play</title>
    <path d="M10.667 6.667v18.667l14.667-9.333z"></path>
  </symbol>
  <symbol xmlns="http://www.w3.org/2000/svg" viewBox="0 0 32 32" id="plus">
    <title>plus</title>
    <path d="M15.309.095c-.429.134-.66.313-.874.676l-.192.328-.039 13.133-13.065.039-.354.182c-.239.12-.433.301-.564.522l-.003.006c-.199.322-.214.395-.214 1.029 0 .618.02.714.198 1.018.133.221.313.401.527.53l.007.004.336.198 13.133.039.039 13.133.198.336c.133.221.313.401.527.53l.007.004c.304.178.4.198 1.018.198.634 0 .707-.014 1.029-.214a1.36 1.36 0 00.525-.56l.004-.008.182-.354.039-13.065 13.144-.039.347-.214c.44-.272.676-.707.726-1.337.05-.612-.117-1.182-.445-1.508-.479-.481-.267-.466-7.38-.466h-6.396V7.839c0-7.111.012-6.901-.465-7.38-.417-.417-1.308-.58-1.994-.365z"></path>
  </symbol>
  <symbol xmlns="http://www.w3.org/2000/svg" viewBox="0 0 32 32" id="question-mark-circle-solid">
    <title>question-mark-circle-solid</title>
    <path d="M14.866.018l-.853.1c-3.84.447-7.698 2.514-10.148 5.435C1.806 8.007.614 10.619.133 13.736c-.166 1.072-.166 3.468 0 4.539 1.102 7.128 6.472 12.498 13.6 13.6 1.072.166 3.468.166 4.539 0a16.37 16.37 0 008.137-3.69l-.024.02c2.532-2.135 4.395-5.164 5.198-8.462.321-1.318.409-2.115.409-3.738 0-1.108-.032-1.705-.12-2.27-.779-5.046-3.7-9.279-8.093-11.729A15.733 15.733 0 0018.36.158l-.088-.011c-.667-.102-2.911-.186-3.405-.13zm2.639 6.17a6.104 6.104 0 014.305 4.266l.01.043c.188.701.208 2.171.038 2.861a6.128 6.128 0 01-3.31 4.077l-.037.016-.487.232-.034.431a1.996 1.996 0 01-1.286 1.76l-.014.005a1.981 1.981 0 01-2.465-.974l-.005-.012-.186-.383v-1.502c0-1.386.01-1.526.14-1.807.335-.723.911-1.102 1.819-1.194.96-.096 1.587-.537 1.879-1.32.567-1.512-.861-3.051-2.412-2.6-.495.144-.863.425-1.194.911a2.91 2.91 0 01-.546.601l-.005.004c-1.02.739-2.496.353-3.001-.785-.309-.699-.218-1.354.296-2.143a6.09 6.09 0 014.057-2.609l.035-.005c.593-.094 1.785-.03 2.402.128zM16.9 22.244c.697.341 1.07.958 1.072 1.775 0 .415-.032.565-.186.883a1.988 1.988 0 01-1.082.981l-.014.004c-1.472.551-2.993-.795-2.626-2.326a1.992 1.992 0 012.847-1.312l-.011-.005z"></path>
  </symbol>
  <symbol xmlns="http://www.w3.org/2000/svg" viewBox="0 0 32 32" id="question-mark-circle">
    <title>question-mark-circle</title>
    <path d="M14.942.016c-1.633.164-2.658.369-3.944.793C7.255 2.045 4.227 4.482 2.2 7.886 1.139 9.672.392 11.862.089 14.085c-.107.786-.107 3.062 0 3.847.612 4.487 2.833 8.291 6.387 10.947 2.14 1.6 4.779 2.655 7.6 3.039.786.107 3.062.107 3.847 0 5.067-.693 9.327-3.483 11.877-7.788 1.063-1.794 1.807-3.979 2.11-6.199.107-.785.107-3.062 0-3.847-.693-5.067-3.483-9.327-7.788-11.877C22.373 1.171 20.27.44 18.147.133c-.632-.091-2.708-.168-3.206-.119zm3.142 3.324c1.349.226 2.558.633 3.672 1.2l-.072-.033c1.266.614 2.369 1.419 3.447 2.512 1.908 1.938 3.038 4.139 3.54 6.906.167.911.167 3.257 0 4.168-.338 1.868-.968 3.474-1.935 4.942-1.722 2.613-4.48 4.615-7.404 5.372-1.27.329-1.795.39-3.331.39-1.533 0-2.062-.061-3.323-.388-2.946-.761-5.633-2.709-7.409-5.369-.951-1.422-1.598-3.076-1.938-4.947-.167-.911-.167-3.257 0-4.168.372-2.044 1.09-3.777 2.22-5.354 2.074-2.888 5.257-4.866 8.913-5.313l.062-.006c.713-.088 2.874-.034 3.559.088zm-2.982 3.096c-2.788.22-5.447 1.821-6.484 3.903-.487.978-.388 1.608.329 2.094.481.327 1.106.489 1.467.38.372-.111.673-.398.979-.931.827-1.438 2.534-2.284 4.607-2.284 2.07.002 3.878.886 4.594 2.249.16.308.181.415.183.928 0 .535-.018.614-.221 1.016-.295.582-.967 1.205-1.688 1.565-.387.181-.85.351-1.329.483l-.064.015a8.122 8.122 0 00-1.302.454l.052-.021c-.502.26-1.228.989-1.459 1.467-.537 1.109-.444 2.352.207 2.783.531.351 1.541.349 2.049-.003.309-.215.446-.463.542-.983.09-.491-.04-.409 1.186-.749 1.452-.402 2.581-1.06 3.568-2.079.571-.59.829-.957 1.153-1.643a5.134 5.134 0 00.525-2.279c0-.59-.098-1.158-.279-1.687l.011.037c-.446-1.403-1.666-2.778-3.238-3.652-1.448-.805-3.507-1.21-5.386-1.063zm.353 16.058a1.34 1.34 0 00-.875.68l-.004.007c-.117.239-.146.406-.146.843 0 .957.353 1.409 1.212 1.557.787.135 1.496-.133 1.781-.675.207-.393.208-1.367.003-1.759-.311-.588-1.113-.854-1.972-.654z"></path>
  </symbol>
  <symbol xmlns="http://www.w3.org/2000/svg" viewBox="0 0 32 32" id="search">
    <title>search</title>
    <path d="M11.487.06A12.873 12.873 0 001.36 7.04l-.034.073C.491 8.762.002 10.709.002 12.769c0 2.888.961 5.552 2.58 7.689l-.023-.032c2.197 2.938 5.527 4.761 9.262 5.066 2.903.238 6.019-.636 8.384-2.353l.382-.276 4.443 4.433c3.342 3.332 4.516 4.465 4.737 4.569.575.272 1.125.134 1.677-.417.551-.553.688-1.102.417-1.677-.104-.22-1.236-1.395-4.569-4.737l-4.433-4.443.276-.382c1.717-2.364 2.591-5.481 2.353-8.384-.343-4.195-2.601-7.858-6.174-10.018C17.049.44 14.133-.211 11.486.059zm2.606 3.219c2.778.395 5.13 1.89 6.697 4.259a9.403 9.403 0 011.559 5.23c0 3.251-1.602 6.205-4.353 8.024a9.319 9.319 0 01-5.186 1.559h-.046.002c-3.253 0-6.203-1.602-8.024-4.353a9.319 9.319 0 01-1.559-5.186v-.046.002c0-3.253 1.602-6.203 4.353-8.024a9.417 9.417 0 015.218-1.56c.473 0 .937.035 1.392.101l-.052-.006z"></path>
  </symbol>
  <symbol xmlns="http://www.w3.org/2000/svg" viewBox="0 0 24 24" id="switch-vertical">
    <path d="M7 16V4m0 0L3 8m4-4l4 4m6 0v12m0 0l4-4m-4 4l-4-4" stroke="currentColor" stroke-width="2" stroke-linecap="round" stroke-linejoin="round" fill="transparent"></path>
  </symbol>
  <symbol xmlns="http://www.w3.org/2000/svg" viewBox="0 0 24 24" id="sync">
    <path d="M4.56 10.642L6.355 3.95l1.9 1.9a9.004 9.004 0 0111.156 1.256l-1.414 1.415a7.003 7.003 0 00-8.28-1.21l1.537 1.538-6.692 1.793zm14.88 2.716l-1.794 6.692-1.9-1.9A9.003 9.003 0 014.59 16.894l1.414-1.415a7.003 7.003 0 008.28 1.21l-1.537-1.538 6.692-1.793z" fill="currentColor"></path>
  </symbol>
  <symbol xmlns="http://www.w3.org/2000/svg" viewBox="0 0 32 32" id="trash">
    <title>trash</title>
    <path d="M12.188.062a3.28 3.28 0 00-2.415 2.082l-.007.023c-.122.328-.136.525-.159 2.297l-.024 1.938-3.311.002c-2.03.002-3.423.027-3.599.067a1.32 1.32 0 00-.906.683l-.003.007c-.117.239-.146.405-.146.843 0 .972.357 1.419 1.246 1.559.248.04.45.096.45.127 0 .61 1.309 18.163 1.382 18.53.341 1.719 1.663 3.135 3.391 3.633L8.6 32h14.801l.513-.147a4.845 4.845 0 003.422-3.764l.005-.03c.046-.256 1.347-17.992 1.347-18.37 0-.03.203-.086.45-.127.87-.136 1.245-.594 1.246-1.527 0-.609-.09-.897-.368-1.184-.418-.429-.292-.416-4.131-.437l-3.476-.018V4.647c0-1.528-.016-1.812-.125-2.241a2.85 2.85 0 00-.833-1.451l-.002-.001a2.841 2.841 0 00-1.434-.831l-.019-.004c-.461-.117-.711-.125-4.021-.119-1.941.005-3.646.032-3.787.061zm7.016 4.739v1.602h-6.407V3.199h6.407v1.602zm6.277 4.981c-.002.098-.285 4.144-.633 8.993-.705 9.831-.622 9.14-1.176 9.648a1.651 1.651 0 01-.538.334l-.011.004c-.179.048-2.396.064-7.263.053-7.777-.019-7.151.018-7.607-.445-.477-.484-.4.184-1.1-9.59-.349-4.886-.636-8.95-.636-9.028v-.144h18.966l-.002.176zm-13.229 3.097a1.36 1.36 0 00-.876.683l-.004.007-.146.298v10.7l.152.309c.191.386.506.601 1.024.697.806.151 1.535-.135 1.818-.708l.146-.298v-5.318c0-4.142-.018-5.369-.082-5.547a1.485 1.485 0 00-.703-.743l-.009-.004c-.28-.117-.993-.159-1.322-.077zm6.407 0a1.36 1.36 0 00-.876.683l-.004.007-.146.298v10.7l.152.309c.191.386.506.601 1.024.697.806.151 1.535-.135 1.818-.708l.146-.298v-5.318c0-4.142-.018-5.369-.082-5.547a1.485 1.485 0 00-.703-.743l-.009-.004c-.28-.117-.993-.159-1.322-.077z"></path>
  </symbol>
  <symbol xmlns="http://www.w3.org/2000/svg" viewBox="0 0 39 32" id="twitter">
    <title>twitter</title>
    <path d="M32.751 2.475a8.016 8.016 0 00-13.607 7.329C13.138 9.646 6.571 6.637 2.617 1.486.186 5.693 2.29 10.373 5.048 12.078c-.944.071-2.682-.109-3.501-.907-.055 2.793 1.288 6.493 6.184 7.835-.943.507-2.612.362-3.338.254.255 2.357 3.556 5.439 7.166 5.439-1.287 1.488-6.127 4.188-11.56 3.329 3.689 2.245 7.989 3.545 12.54 3.545 12.933 0 22.977-10.482 22.436-23.412-.002-.077 0-.111 0-.145 0-.04-.003-.078-.005-.117 1.177-.805 2.757-2.23 3.886-4.104-.655.361-2.618 1.082-4.445 1.262 1.173-.633 2.91-2.706 3.339-4.354-1.129.723-3.721 1.774-5 1.774z"></path>
  </symbol>
  <symbol xmlns="http://www.w3.org/2000/svg" viewBox="0 0 32 32" id="upload">
    <title>upload</title>
    <path d="M15.293.151a1.82 1.82 0 00-.578.368l.001-.001c-.112.123-1.819 1.852-3.79 3.845-2.627 2.655-3.627 3.71-3.739 3.948-.304.638-.151 1.25.462 1.865.616.615 1.227.765 1.865.462.229-.11.966-.79 2.508-2.321l2.183-2.165.02 8.802.02 8.804.169.343c.211.428.561.666 1.135.773.893.167 1.701-.149 2.016-.785l.162-.33.02-8.804.02-8.802 2.183 2.165c1.542 1.531 2.279 2.211 2.508 2.321.638.304 1.249.153 1.865-.462.613-.615.765-1.227.462-1.865-.112-.238-1.101-1.282-3.712-3.916A627.181 627.181 0 0117.396.667l-.112-.114c-.274-.3-.895-.559-1.321-.552-.244.018-.47.072-.681.156l.015-.005zM1.171 21.455a1.508 1.508 0 00-.971.757l-.004.008c-.155.318-.162.396-.155 2.035.005 1.597.018 1.749.188 2.389a7.027 7.027 0 001.875 3.283l.001.001c.924.924 1.954 1.515 3.284 1.883l.684.188h19.821l.684-.188c2.16-.597 3.822-1.982 4.724-3.938.469-1.016.606-1.723.646-3.371.041-1.575-.016-2.071-.279-2.456-.355-.517-1.115-.76-1.915-.611-.556.103-.932.362-1.14.785-.147.302-.165.464-.206 1.929-.025.879-.078 1.701-.121 1.826-.375 1.149-1.499 2.188-2.629 2.428-.533.114-18.819.114-19.352 0-1.13-.24-2.254-1.279-2.629-2.428-.043-.124-.098-.947-.124-1.826-.051-1.732-.091-1.918-.472-2.302a1.72 1.72 0 00-.436-.301l-.01-.004c-.311-.131-1.101-.178-1.465-.087z"></path>
  </symbol>
  <symbol xmlns="http://www.w3.org/2000/svg" viewBox="0 0 32 32" id="user-circle">
    <title>user-circle</title>
    <path d="M14.942.016c-1.633.164-2.658.369-3.944.793C7.255 2.045 4.227 4.482 2.2 7.886 1.139 9.672.392 11.862.089 14.085c-.107.786-.107 3.062 0 3.847.693 5.07 3.482 9.325 7.788 11.877 1.794 1.063 3.979 1.807 6.199 2.11.786.107 3.062.107 3.847 0 5.066-.691 9.335-3.49 11.877-7.788 1.064-1.797 1.807-3.98 2.11-6.199.107-.785.107-3.062 0-3.847-.693-5.067-3.483-9.327-7.788-11.877C22.373 1.172 20.27.441 18.147.134c-.632-.091-2.708-.168-3.206-.119zm3.142 3.324c1.349.226 2.558.633 3.672 1.2l-.072-.033c1.266.614 2.369 1.419 3.447 2.512 1.908 1.938 3.038 4.139 3.54 6.906.167.911.167 3.257 0 4.168a12.844 12.844 0 01-1.153 3.578l.034-.075c-.207.433-.845 1.547-.943 1.651-.013.013-.45-.163-.971-.394-3.091-1.361-6.138-1.989-9.637-1.989-3.509 0-6.529.624-9.641 1.993-.776.34-.963.401-1.013.329-2.042-3.036-2.679-6.874-1.744-10.51.345-1.34 1.085-2.9 1.948-4.104 2.074-2.888 5.257-4.866 8.913-5.313l.062-.006c.713-.088 2.874-.034 3.559.088zm-2.902 3.115a6.493 6.493 0 00-4.977 3.652l-.017.039c-.406.877-.555 1.589-.555 2.656 0 .792.026 1.021.164 1.547.508 1.92 1.778 3.447 3.546 4.264.877.406 1.589.555 2.656.555.792 0 1.021-.026 1.547-.163 1.92-.508 3.447-1.778 4.264-3.546.406-.877.555-1.589.555-2.656 0-.792-.026-1.021-.163-1.547-.508-1.92-1.778-3.447-3.546-4.264-.994-.458-2.44-.683-3.474-.537zm1.536 3.214c1.114.237 2.185 1.306 2.417 2.416a3.83 3.83 0 01-.006 1.461l.004-.024c-.237 1.114-1.306 2.185-2.416 2.417a3.18 3.18 0 01-3.013-.914l-.001-.001c-1.226-1.278-1.228-3.163-.002-4.439a3.179 3.179 0 013.037-.911l-.022-.004zm1.302 14.45c1.454.143 2.639.37 3.911.749.686.205 1.935.656 2.231.805l.181.09-.406.324c-1.289 1.031-3.051 1.919-4.607 2.321-1.27.329-1.795.39-3.331.39s-2.062-.061-3.331-.39c-1.579-.409-3.485-1.377-4.703-2.389l-.308-.256.18-.09c.297-.149 1.547-.6 2.231-.805 1.781-.535 3.829-.843 5.948-.843.705 0 1.403.034 2.091.101l-.087-.007z"></path>
  </symbol>
  <symbol xmlns="http://www.w3.org/2000/svg" viewBox="0 0 32 32" id="user">
    <title>user</title>
    <path d="M15.103.049a7.886 7.886 0 00-4.742 2.297l-.001.001C9.002 3.705 8.256 5.292 8.051 7.266c-.146 1.406.155 3.014.814 4.329.509 1.015 1.554 2.234 2.471 2.881 1.295.934 2.913 1.494 4.663 1.494s3.37-.56 4.689-1.512l-.024.016a10.07 10.07 0 001.807-1.801l.017-.023a7.967 7.967 0 001.495-4.667 8.024 8.024 0 00-.541-2.905l.019.055c-.774-2.069-2.532-3.825-4.617-4.611A7.917 7.917 0 0015.992 0c-.313 0-.622.018-.925.053l.037-.003zm1.909 3.231c.617.123 1.518.559 2.024.979 1.731 1.438 2.261 3.829 1.289 5.811-1.184 2.409-4.033 3.408-6.408 2.245-1.626-.794-2.725-2.435-2.725-4.334 0-1.173.42-2.247 1.117-3.082l-.006.008c.642-.775 1.728-1.443 2.643-1.624a6.065 6.065 0 012.102.002l-.036-.005zm-2.293 14.388c-1.773.183-3.796.854-5.285 1.752-3.58 2.164-5.841 5.827-6.192 10.039-.123 1.472.045 2.048.694 2.367l.309.152 11.564.018c7.978.011 11.663-.003 11.884-.051.945-.2 1.217-.855 1.063-2.561-.376-4.179-2.636-7.817-6.189-9.964-2.271-1.371-5.194-2.023-7.848-1.752zm2.612 3.228a9.113 9.113 0 013.945 1.489l-.032-.02a9.744 9.744 0 013.803 4.774l.022.067c.131.36.412 1.414.413 1.554 0 .027-4.267.048-9.482.048s-9.482-.021-9.482-.048c.002-.139.282-1.193.413-1.554a9.756 9.756 0 013.788-4.819l.036-.023a9.445 9.445 0 015.231-1.564c.474 0 .94.035 1.395.101l-.052-.006z"></path>
  </symbol>
  <symbol xmlns="http://www.w3.org/2000/svg" viewBox="0 0 32 32" id="video-camera">
    <title>video-camera</title>
    <path d="M21.333 21.333A2.668 2.668 0 0118.666 24h-16a2.668 2.668 0 01-2.667-2.667V10.666a2.668 2.668 0 012.667-2.667h16a2.668 2.668 0 012.667 2.667v10.667zM32 8l-8 5.631v4.739l8 5.631v-16z"></path>
  </symbol>
  <symbol xmlns="http://www.w3.org/2000/svg" viewBox="0 0 24 24" id="volume-off">
    <path clip-rule="evenodd" d="M5.586 15H4a1 1 0 01-1-1v-4a1 1 0 011-1h1.586l4.707-4.707C10.923 3.663 12 4.109 12 5v14c0 .891-1.077 1.337-1.707.707L5.586 15z" stroke="currentColor" stroke-width="2" stroke-linecap="round" stroke-linejoin="round" fill="transparent"></path>
    <path d="M17 14l2-2m0 0l2-2m-2 2l-2-2m2 2l2 2" stroke="currentColor" stroke-width="2" stroke-linecap="round" stroke-linejoin="round" fill="transparent"></path>
  </symbol>
  <symbol xmlns="http://www.w3.org/2000/svg" viewBox="0 0 24 24" id="volume-up">
    <path d="M15.536 8.464a5 5 0 010 7.072m2.828-9.9a9 9 0 010 12.728M5.586 15H4a1 1 0 01-1-1v-4a1 1 0 011-1h1.586l4.707-4.707C10.923 3.663 12 4.109 12 5v14c0 .891-1.077 1.337-1.707.707L5.586 15z" stroke="currentColor" stroke-width="2" stroke-linecap="round" stroke-linejoin="round" fill="transparent"></path>
  </symbol>
  <symbol xmlns="http://www.w3.org/2000/svg" viewBox="0 0 32 32" id="whatsapp">
    <title>whatsapp</title>
    <path d="M27.215 4.65A15.76 15.76 0 0015.994 0C7.251 0 .136 7.113.132 15.856a15.823 15.823 0 002.117 7.927L-.001 32l8.409-2.205a15.856 15.856 0 007.58 1.93h.006c.001 0-.001 0 0 0 8.742 0 15.858-7.114 15.862-15.857A15.76 15.76 0 0027.215 4.65zm-11.22 24.397h-.005a13.164 13.164 0 01-6.71-1.837l-.481-.286-4.99 1.308 1.332-4.863-.314-.499a13.143 13.143 0 01-2.016-7.014C2.814 8.589 8.728 2.677 16 2.677c3.521.001 6.832 1.374 9.321 3.865s3.859 5.803 3.858 9.324c-.003 7.267-5.917 13.18-13.184 13.18zm4.523-11.16c-.363-.132-.627-.198-.892.198s-1.024 1.289-1.255 1.553c-.231.264-.462.298-.859.099s-1.673-.617-3.187-1.966c-1.178-1.05-1.974-2.348-2.205-2.745s-.025-.611.174-.809c.178-.178.396-.463.595-.694s.264-.397.396-.661.066-.496-.033-.694c-.099-.198-.892-2.149-1.222-2.942-.322-.773-.649-.668-.892-.68-.231-.011-.495-.014-.76-.014s-.694.099-1.057.496-1.387 1.355-1.387 3.305 1.42 3.834 1.618 4.099c.198.264 2.795 4.266 6.77 5.983.946.408 1.684.652 2.259.835.949.301 1.813.259 2.496.157.761-.114 2.345-.958 2.675-1.884s.33-1.719.231-1.884-.363-.264-.76-.463c-.396-.198-2.345-1.157-2.708-1.289z"></path>
  </symbol>
  <symbol xmlns="http://www.w3.org/2000/svg" viewBox="0 0 32 32" id="x-solid">
    <title>x-solid</title>
    <path d="M1.802.142A2.636 2.636 0 00.189 3.62l-.006-.018c.176.488.496.824 6.113 6.451l5.923 5.936-5.923 5.936C.68 27.552.36 27.888.183 28.376a2.618 2.618 0 00.605 2.825 2.63 2.63 0 002.843.6l-.018.006c.488-.176.824-.496 6.451-6.113L16 19.771l5.936 5.923c5.627 5.616 5.963 5.936 6.451 6.113a2.618 2.618 0 002.825-.605 2.63 2.63 0 00.6-2.843l.006.018c-.176-.488-.496-.824-6.113-6.451l-5.923-5.936 5.923-5.936c5.616-5.627 5.936-5.963 6.113-6.451a2.643 2.643 0 00-1.287-3.32l-.015-.007a2.088 2.088 0 00-1.137-.248h.006c-1.241 0-.846-.334-7.449 6.257L16 12.208l-5.891-5.886C5.245 1.463 4.141.402 3.778.241a2.81 2.81 0 00-1.122-.23c-.305 0-.6.048-.875.137l.02-.006z"></path>
  </symbol>
  <symbol xmlns="http://www.w3.org/2000/svg" viewBox="0 0 32 32" id="x">
    <title>x</title>
    <path d="M1.579.181A3.895 3.895 0 00.189 1.57l-.01.018a1.82 1.82 0 00.018 1.595l-.005-.011c.148.314 1.734 1.959 6.385 6.622L12.767 16l-6.19 6.206C1.926 26.868.339 28.514.192 28.828c-.386.818-.191 1.6.593 2.387.787.784 1.568.98 2.387.593.314-.148 1.96-1.734 6.622-6.385L16 19.233l6.206 6.19c4.662 4.651 6.308 6.238 6.622 6.385.818.386 1.6.191 2.387-.593.784-.787.98-1.569.593-2.387-.148-.314-1.734-1.959-6.385-6.622L19.233 16l6.19-6.206c4.651-4.662 6.238-6.308 6.385-6.622.386-.818.191-1.6-.593-2.387-.787-.784-1.569-.98-2.387-.593-.314.148-1.959 1.734-6.622 6.385L16 12.767l-6.206-6.19C5.132 1.926 3.486.339 3.172.192A1.844 1.844 0 001.567.185L1.578.18z"></path>
  </symbol>
  <symbol xmlns="http://www.w3.org/2000/svg" viewBox="0 0 45 32" id="youtube">
    <title>youtube</title>
    <path d="M17.95 21.901l-.001-12.783 12.224 6.414-12.222 6.37zM44.789 6.903s-.443-3.135-1.798-4.516C41.27.574 39.342.566 38.458.46c-6.331-.461-15.827-.461-15.827-.461h-.02s-9.496 0-15.827.461C5.899.565 3.972.574 2.25 2.387.894 3.768.453 6.903.453 6.903s-.452 3.682-.452 7.363v3.452c0 3.682.452 7.363.452 7.363s.441 3.135 1.797 4.516c1.722 1.813 3.983 1.756 4.989 1.945 3.619.35 15.382.458 15.382.458s9.506-.014 15.837-.475c.884-.107 2.812-.115 4.533-1.928 1.356-1.381 1.798-4.516 1.798-4.516s.452-3.681.452-7.363v-3.452c0-3.681-.452-7.363-.452-7.363z"></path>
  </symbol>
</svg>


